# File generated by ImageToStl.com - Free Image and 3D model conversion tools

mtllib cow.mtl

# grp1_0
o obj1
v 304.78618281 395.48078113 52.73805136
v 259.33104773 372.51752429 3.62180352
v 378.13515441 395.76026111 63.76983068
v 306.42858013 615.08115344 197.80533963
v 243.66325413 711.28971057 172.61419535
v 246.9562469 544.54227405 188.25906407
v -376.72586135 483.94669299 -99.09840422
v -353.30903479 544.32065539 -168.06426363
v -366.77668589 394.6151195 -86.4185526
v -354.30325241 407.60074573 -141.13312187
v -413.58353673 330.03061633 -76.13604069
v -416.89434355 322.46707873 -113.06407837
v -147.11308206 417.51923327 54.18380495
v -170.88757944 338.68790393 5.48254882
v -132.16333739 408.51169543 -1.84571183
v 421.87111227 402.83249621 75.08716902
v 427.56245891 360.2454906 93.68365078
v 409.44157406 224.43805652 78.55462661
v 573.89425395 759.55136828 -78.0445007
v 481.59632876 780.56986194 -91.92912441
v 563.54633748 812.33475451 -48.41588955
v -120.40502882 431.5401073 121.02905159
v -136.50873531 495.78519397 178.72373473
v -175.277791 409.79987292 96.08856347
v 306.1397807 395.48078113 -44.19989773
v 379.80461944 395.76364856 -53.18574765
v 226.03182856 785.11295276 129.85964309
v 131.55833988 818.8006969 118.47749572
v 136.86414293 720.67581897 172.76861464
v -97.59697827 380.98502307 39.68797701
v -359.47633769 73.15743976 71.96057131
v -385.72306502 40.18837314 79.70445302
v -363.21067558 279.05823474 41.8124793
v -116.98278772 431.4717174 -124.05483672
v -172.52651833 409.77249865 -100.94390258
v -131.49888037 495.66147571 -180.05716148
v -48.88307814 865.49607043 -44.17599476
v -130.66715653 859.95279651 -121.09494666
v -205.65954722 851.93424182 -117.079487
v 970.65281626 685.19473987 46.78411763
v 895.20982722 766.66123156 41.54031583
v 867.18435904 725.72904162 63.93754858
v -40.84413389 405.2515636 -158.0147228
v 752.31686423 858.36386828 -75.81548051
v 768.6217623 843.32730823 -82.22146374
v 765.87991455 863.04172473 -151.91104736
v -335.03213967 366.01468615 62.49110543
v -272.70082805 393.74838977 98.99864309
v -352.92187074 468.31412463 77.27880834
v 49.81535409 870.29795031 0.69628183
v 90.13286703 852.84275012 91.55711825
v 235.9578092 875.09848742 3.29530785
v 836.90191246 675.27811389 77.54259291
v 837.57407457 642.01779895 50.8914133
v 938.78333924 640.88523059 61.9776282
v -411.5914152 326.71692614 56.89957638
v -400.61329452 99.77514605 88.31727762
v -419.88856421 322.4654613 101.38460098
v 723.86627922 842.98917346 -74.71410095
v 331.87495322 753.24460559 153.3509193
v 333.53289287 809.92453723 116.20865072
v 416.89884317 70.61762958 -91.1563422
v 394.37981933 160.66080432 -67.18227972
v 402.41959531 54.72696261 -68.34006005
v 622.02892058 838.69022326 -9.79509446
v 564.99842547 830.36423449 7.88987399
v 645.94086304 831.35025744 61.55554833
v 767.56595494 804.61307483 -172.06082687
v 742.12014608 823.20792346 -160.5923258
v 402.25177686 6.07754331 -60.47899652
v 377.08408771 39.46700244 -85.75598267
v 894.54616959 627.74979358 -11.30492915
v 785.893949 632.41928821 -10.38054335
v 837.69253543 674.27860217 -53.14354765
v -319.97136623 867.56723742 52.34424995
v -293.41264855 862.98972278 123.14829242
v -208.84489197 851.9335094 111.29370055
v -221.70740806 336.10440783 54.4130067
v -279.86666279 327.06391101 50.30097669
v -244.24543888 307.61688952 29.26881481
v -283.80926675 736.76779895 186.61328526
v -292.71907528 634.59476428 196.81003868
v -189.10227298 782.5897594 157.97526061
v 846.48211655 794.14475207 87.4100119
v 528.81077119 502.92551379 38.46270658
v 538.94290923 549.91574817 109.84092654
v 493.17218021 416.26139026 59.34411576
v 392.34733768 160.66600757 78.17067544
v 396.97656879 190.58621936 115.92947331
v -334.55755727 304.33417468 114.46208712
v -393.97690061 311.3119884 118.76415374
v -386.94574256 213.18067126 108.71519588
v -269.95486609 447.72840075 101.0206393
v -178.31087199 439.23963122 83.06119578
v 740.10186543 822.95505481 -74.24598459
v 670.64584758 819.48197131 -59.21046995
v 709.06762087 746.1008678 -72.68318944
v 400.05765766 190.58074145 -104.79054661
v 406.48285962 74.68833117 -109.0800314
v 355.05206285 197.30561023 -103.67455937
v -282.20576191 882.97916369 -3.93545209
v 463.23286999 565.7729259 -169.50689272
v 403.10934873 564.33115344 -190.91938925
v 453.22999659 643.36197619 -157.19641066
v 450.47328087 481.74076037 -161.57605611
v 721.49621218 842.99021106 94.90028438
v 749.90989233 858.36600451 96.80030717
v 234.77888273 464.27963977 157.80085518
v 307.60885418 441.26322131 141.4584162
v 596.18337603 535.87204699 5.96894003
v 530.57431934 579.04416614 66.72351519
v 501.07896368 620.85214953 126.707828
v 452.64272313 566.52963977 185.42532951
v 406.38241429 59.69065432 83.14635668
v 797.09426515 900.2975841 -10.21920284
v 843.52910531 851.76975207 41.03502397
v 891.4976059 784.67099719 12.44870761
v 410.98817286 11.01430945 145.28932192
v 478.1322735 8.42095523 109.75934795
v 405.07744585 71.85108905 120.23828128
v 239.19335408 464.34506946 -151.31450634
v 165.40003091 360.03046374 -66.77065605
v 507.09036558 628.32822375 -109.95520851
v -145.54428727 417.50849109 -58.26055507
v 475.75446968 8.70095901 -91.65507964
v 444.92049313 10.05826287 -129.46983731
v -382.17045138 863.26712756 -5.33508982
v 165.67264124 469.90866809 174.25413428
v 162.21450402 359.95029406 72.10773663
v 177.89014977 344.13977771 2.48459947
v -388.3746589 424.77353625 -34.44102749
v -337.16821251 382.08847766 -79.27533124
v -373.28829695 381.26917224 -1.35720439
v 341.74472162 401.46152453 91.0924793
v 334.49012568 389.47064929 129.2453355
v 769.69940595 908.70297961 24.47542782
v 740.89753808 892.05484729 51.2628859
v -211.01169551 391.74939685 88.40560247
v 377.84038913 30.12078052 -111.88435299
v -208.44123233 391.77799182 -94.26402015
v -269.82621794 393.7612987 -106.57484171
v -175.92628955 439.2378612 -87.99488461
v 342.81815189 868.5038219 -62.31241669
v -285.4202668 15.57192569 93.74183464
v -356.55546444 5.90391474 57.38864652
v 923.32794266 651.44992785 -9.88247382
v 941.14829405 636.54178576 -35.83660918
v -45.03829702 487.19632678 214.40940057
v -110.57437699 612.71726184 193.85507131
v 524.51784014 530.9793468 -90.67230636
v 472.94960621 424.87580066 -86.40974906
v 948.59463974 634.8064342 54.8098396
v 403.93543117 472.3052135 -179.61792009
v 378.98565848 247.6955791 -122.88191622
v 359.66095957 370.61594348 -146.42439662
v 737.73895487 822.95560412 94.8821175
v -114.458143 709.29733996 190.075593
v -204.98896971 622.91367297 199.25940964
v 376.8280469 646.16587024 190.39382529
v 397.62128413 564.33115344 202.10850407
v 448.66408752 643.36197619 169.79128977
v 712.41436564 618.95407824 7.07532467
v 685.3121084 630.80722766 35.93613955
v -36.52518259 598.96115832 214.99624551
v 75.5433075 595.30588489 218.73511373
v -382.55914703 39.82069735 108.54263037
v -56.10000498 364.77735095 -54.7725084
v 52.26574698 344.84079699 -65.17593901
v -36.19480295 348.77594714 23.44701726
v 167.91278877 717.17911487 -166.07826801
v 53.58220371 703.45713 -193.05798618
v 134.73336871 819.01316028 -114.55894911
v -133.9974087 859.95279651 117.40115155
v -120.40965019 800.28458362 161.41679689
v -318.3391466 867.57553821 -61.29265055
v 170.43268856 469.90866809 -166.63678232
v 252.11644975 544.56955676 -181.28900149
v 191.80934276 605.84604602 -188.69282334
v 311.8321434 615.08115344 -189.17098909
v 445.78606421 481.74076037 174.09909087
v 393.43197027 466.29819446 189.62154881
v 422.96318639 391.9899364 154.53934542
v 12.47619805 789.39456897 -148.65941802
v -13.37482101 838.20041614 -101.48511682
v 478.84492275 780.57108264 105.34676409
v 526.99898748 721.86515002 108.12355029
v 571.4830336 759.54654651 94.04933383
v -354.81268417 5.90544124 -67.31350852
v -342.64980019 10.05938487 -141.66010177
v -282.690319 15.57194953 -101.66946376
v 8.6300833 789.41977649 148.87765213
v -16.1748832 838.19919543 101.07325343
v -306.37236839 305.62018542 -39.33516639
v -316.6279645 326.69962268 7.25939165
v -246.77895544 452.24997668 54.21385067
v 311.44059189 441.22699695 -132.80076778
v -50.07706002 865.49686389 42.79221043
v 478.89715495 449.76001697 108.37098915
v 761.33178081 863.02963977 173.23538266
v 766.02874876 843.32486682 103.65650028
v 422.88874736 741.45413928 138.4610705
v -240.0457365 319.29837756 -50.79761651
v -171.34978555 351.54407458 -38.68211164
v -243.33279622 307.61560779 -36.06825633
v -358.10072124 407.60346179 131.19428441
v 341.07121557 867.9248424 72.32862977
v 762.46132425 804.61460071 193.42875059
v 737.34494708 823.2093883 181.24816358
v 937.92030421 611.98361926 13.0985261
v 560.05847795 656.60550647 88.8371289
v 569.07565581 655.56497912 -70.96178886
v 713.03400171 689.10483508 -56.25895295
v 340.49317678 529.4850841 197.39027524
v -322.04939685 361.29886584 45.04231516
v -243.86874739 414.40405993 60.46197506
v -311.48759748 326.27588611 75.23313679
v 742.03990476 892.05484729 -30.54773463
v 532.55065885 416.61792712 6.41401462
v 92.68472725 852.84421496 -88.99393578
v 235.81120273 843.07297473 -62.13773446
v -285.23783275 325.50864367 -8.5752931
v 69.18101704 396.89640002 -158.55916561
v 778.68852958 882.13236194 67.2263635
v 823.65295098 823.77579455 86.76561193
v 777.10250482 859.24088244 88.41875206
v 427.97403175 401.46341662 -64.80169064
v 452.40102297 380.69666247 12.95210843
v 132.42303139 397.84470324 -137.06048663
v 411.47508338 224.46666675 -67.0839408
v 359.79874393 206.14739184 -56.27062624
v 128.53172596 397.84470324 141.61545622
v 64.6990622 396.89640002 162.41615097
v 711.2238857 689.18515735 76.17903131
v 753.18650752 759.7295299 94.21314379
v 337.96802603 389.47626452 -119.85300617
v 345.64024526 526.42911487 -187.09650263
v 341.24314177 206.26792102 84.41106541
v 561.97542156 812.33457141 64.13338197
v 521.76503969 558.33139758 -45.06710538
v 523.1811 493.02875476 -25.34513243
v -391.33742758 471.56403308 36.26415619
v -390.08105639 510.53910022 46.87203396
v -379.60651246 537.30002551 -5.30003298
v -357.44613022 77.87879901 105.04082515
v -408.06345477 635.51016955 -6.03839139
v -416.14461734 618.14035754 47.46767939
v 345.88680608 886.87821155 5.36902817
v -379.34595638 483.94681506 88.54195723
v -284.51005546 811.5531383 163.1389933
v -334.07209545 435.25067859 52.55988477
v -407.26030482 704.80380969 113.87939781
v -389.09539628 695.02030139 -5.43240844
v -369.04674698 394.6151195 76.15193334
v -39.12028219 487.19632678 -209.40939061
v -357.8635077 544.32035022 158.13503696
v 306.53374979 487.95447497 -170.56859243
v -410.399061 627.16062121 119.23386195
v 381.99721217 646.16587024 -179.79608444
v -360.68233238 709.1265636 162.42834336
v -322.95304495 489.46393542 161.257274
v -311.75764311 562.47617297 192.38389031
v -346.47595856 10.06632762 132.04214476
v 336.02725887 753.24460559 -144.01656076
v 336.64140048 809.93051867 -106.84435131
v 426.58991427 741.45413928 -126.59809675
v -357.66129884 798.07169299 157.76273239
v -217.97399137 539.05930285 203.36577255
v -405.34362034 761.58670764 106.35437713
v 429.90685588 383.93390613 -141.02380272
v -444.94363646 721.66422229 40.37339273
v -425.34002775 696.03757434 -5.93880885
v -359.2427119 849.57736926 120.44290145
v -402.83464312 814.14804797 83.56125079
v -267.79615615 438.26740222 171.7613342
v 368.16882664 45.37868838 108.01730477
v 358.13159354 205.9821239 66.32448829
v -457.43264363 771.68399768 -6.66156371
v -446.47503802 586.62052112 17.34688829
v -421.43745745 490.59934192 -5.88407495
v 400.3794039 6.14062153 71.7007157
v -413.81004451 610.42227893 -62.52007052
v -388.62024286 510.53769641 -57.73760936
v -470.28616819 660.47226672 -6.52552948
v -438.6538054 296.4566112 3.38626089
v -356.16088359 205.58957629 86.85586368
v 780.26564496 882.13242297 -45.4565091
v 779.270274 859.24246936 -66.68183765
v 789.85915208 903.71067004 -119.0312459
v -445.81020993 586.52872424 -29.79486114
v -440.37325762 319.11991076 -22.03702082
v 344.18333857 401.4524303 -81.50766727
v -406.90995826 627.16062121 -130.63832452
v -403.92193155 704.80380969 -125.19829348
v 229.56948557 785.11295276 -123.48975872
v 969.74815952 637.39609485 -11.23193312
v 985.75572414 683.30411487 -8.64129191
v 822.79153865 702.36600451 -61.68042562
v -443.64254741 721.66501574 -52.77353431
v -229.85585056 393.81613879 138.79670074
v 50.42553195 344.84079699 66.61110989
v -402.21600974 761.58670764 -117.62954023
v 86.99378083 480.3661571 215.57064329
v 186.47320538 605.80503039 193.45479826
v -30.73455535 702.04154162 189.52563185
v 48.17901349 703.45713 193.89162701
v 233.99436975 843.07480578 68.69828477
v -401.29975401 813.6882091 -89.76353664
v -355.73970056 849.57736926 -130.42535032
v -353.1168727 798.07169299 -167.68646751
v -279.84413127 811.5531383 -171.01129319
v -289.85985973 862.98972278 -131.2847745
v -356.00935192 709.12033801 -172.42836487
v -184.53075092 782.58078723 -163.17852557
v -278.48807903 736.76779895 -194.46371622
v 430.01144847 360.2454906 -81.70080206
v -30.46606988 599.00284533 -218.9272735
v 81.66320885 595.36124377 -219.54178644
v -115.85579272 800.28458362 -164.7078285
v -287.10979897 634.59476428 -204.89843541
v -109.10416642 709.29733996 -193.3495835
v -45.2694042 405.2515636 158.90112929
v -199.34541215 622.91367297 -204.90411687
v -306.26443367 562.47556262 -201.01245159
v 300.80801838 486.16504626 177.48376403
v -318.32521848 489.46332507 -170.21054368
v -245.16901681 452.24997668 -61.08194701
v -242.08548543 414.40405993 -67.24637752
v -332.47430397 435.25067859 -61.86599496
v -320.66803168 361.2956615 -54.00877542
v -390.38713243 308.12027698 -57.41238615
v -361.90107307 279.05628161 -51.93321078
v -25.41979672 702.04154162 -191.09095003
v 529.8123041 721.86692004 -93.36530915
v -350.62539545 468.30893664 -87.10245944
v 355.02206431 370.03052478 155.7386064
v 352.01793097 197.30800586 113.55586208
v -397.99068888 99.76316028 -99.46135266
v -383.34567751 40.18621783 -90.43418845
v -357.32572193 73.15682177 -81.96403396
v 52.30752838 332.8029552 0.73102028
v -267.02906404 447.72840075 -108.51075325
v 375.40791717 247.69754748 133.41899586
v -105.09760959 612.66257434 -198.36377307
v -383.76085831 213.17998462 -119.46873251
v -379.38041849 39.82648425 -119.17422876
v -390.50891403 311.30329089 -129.70945618
v -354.37031573 77.87416797 -114.97361034
v -331.23682461 304.32965808 -123.75444603
v -261.79808307 439.09061389 -179.56463848
v -221.7709113 397.25217395 -146.56888521
v -212.21071469 539.05930285 -209.37144207
v -309.24379431 326.30075793 -83.8984615
v -311.18038987 286.63950305 25.23980848
v -353.59695083 205.59004931 -96.75806448
v 343.46726092 206.2946239 -74.62885694
v 786.2269275 903.71237903 141.05127176
v 92.88816076 480.3661571 -206.55553336
v -456.04245371 308.48868518 -6.37370941
v 896.03216784 766.64511828 -16.52105227
v 841.11935536 785.65653186 -65.38601862
v 855.1857034 808.52463489 -55.76697684
v 778.48386765 788.46579699 -77.50458728
vn 0.4743 -0.06124 -0.87823
vn 0.96645 -0.24227 0.0853
vn -0.42834 -0.88917 -0.16091
vn -0.21716 -0.97538 -0.03838
vn -0.0359 -0.81295 0.58123
vn -0.03501 -0.81262 0.58175
vn 0.28498 0.85203 -0.43913
vn -0.44942 0.89049 -0.07097
vn -0.82883 0.2289 0.51054
vn 0.73498 -0.05567 -0.6758
vn -0.47433 -0.06121 -0.87822
vn 0.87035 0.08041 0.48582
vn -0.02295 -0.59972 -0.79988
vn -0.98192 -0.12057 -0.14594
vn -0.74592 -0.06205 -0.66314
vn 0.04059 -0.10361 0.99379
vn 0.90641 0.28554 0.31128
vn -0.59405 -0.49478 -0.63426
vn 0.15797 0.70542 0.69097
vn 0.88751 -0.41414 -0.20203
vn 0.20095 -0.02525 0.97928
vn 0.77737 -0.08115 -0.62379
vn -0.17596 -0.98164 -0.07362
vn -0.02419 -0.4765 0.87884
vn 0.83377 -0.06715 0.54801
vn 0.55112 0.83251 0.05644
vn 0.13693 -0.09995 0.98553
vn -0.92731 -0.20174 0.31528
vn -0.28076 -0.79611 0.53608
vn 0.78808 -0.6021 0.12809
vn -0.72035 -0.04594 -0.69209
vn 0.01286 0.13184 0.99119
vn 0.72573 0.06523 -0.68488
vn 0.96026 0.26916 0.0739
vn 0.81423 0.56939 -0.11321
vn 0.09021 0.92977 -0.35693
vn 0.07338 0.96324 -0.25842
vn 0.99246 0.07435 -0.09739
vn 0.97836 0.20165 -0.04631
vn -0.00915 -0.77673 -0.62976
vn -0.95968 -0.21259 -0.1839
vn -0.99914 0.02219 -0.0349
vn -0.9988 -0.03336 0.03591
vn -0.19374 0.03744 0.98034
vn -0.00795 -0.59487 -0.80378
vn -0.93095 0.31246 0.18895
vn -0.93645 0.32216 -0.13885
vn 0.66702 -0.38133 0.64005
vn 0.45835 -0.16717 -0.87291
vn 0.78296 0.54174 -0.30577
vn 0.71204 0.67741 0.18471
vn -0.23039 0.96518 0.1239
vn -0.13829 0.77854 0.61217
vn 0.80603 0.45573 0.37767
vn -0.64138 0.27383 -0.7167
vn -0.71773 0.66707 0.19967
vn 0.0404 -0.64495 -0.76316
vn -0.50021 0.62232 0.60209
vn 0.13891 -0.19158 0.9716
vn 0.90625 0.19868 -0.37315
vn 0.26835 0.96081 -0.06955
vn -0.25922 0.51126 -0.8194
vn 0.27236 0.31658 -0.90863
vn -0.34856 -0.76771 -0.53771
vn -0.27586 -0.87997 -0.38673
vn 0.08605 -0.44095 0.8934
vn 0.79423 0.12853 -0.59387
vn -0.19441 0.26573 -0.94424
vn -0.25698 -0.34251 -0.90368
vn -0.98314 0.18277 -0.00509
vn -0.30445 0.2487 0.91949
vn -0.88776 0.4099 0.20943
vn -0.02828 0.62428 0.78069
vn 0.93468 -0.35334 -0.03905
vn -0.53232 0.75148 -0.38977
vn 0.04355 -0.61021 -0.79104
vn -0.94884 -0.22996 -0.21639
vn 0.89726 -0.33753 -0.28459
vn -0.04844 0.01451 -0.99872
vn 0.99628 0.07548 0.0415
vn 0.93476 0.2903 0.20482
vn 0.65308 0.44228 -0.61471
vn 0.99981 -0.01947 -0.0027
vn 0.11565 -0.95999 -0.25505
vn -0.44638 -0.11064 0.88798
vn -0.14664 -0.19483 -0.96981
vn -0.86484 0.13348 0.48397
vn 0.81352 -0.11595 0.56987
vn -0.26193 0.00065 0.96509
vn -0.73456 0.0988 -0.67131
vn -0.9933 -0.00896 -0.11519
vn 0.98722 0.05116 0.1509
vn 0.88852 0.36092 -0.28333
vn -0.71155 0.01828 0.7024
vn -0.00264 -0.53204 -0.84671
vn 0.96928 0.17196 0.17589
vn -0.03815 0.11511 -0.99262
vn 0.71189 0.01824 0.70206
vn 0.96593 -0.25835 0.01565
vn -0.7627 0.12144 -0.63525
vn 0.95051 -0.10921 0.29087
vn -0.99867 0.00377 0.05145
vn 0.17215 -0.69485 -0.69825
vn 0.15299 0.12329 0.98051
vn -0.45807 -0.16777 -0.87294
vn 0.46188 -0.07406 0.88384
vn 0.77934 -0.2172 0.58776
vn 0.86618 -0.49081 -0.09395
vn -0.37656 -0.45413 -0.80744
vn 0.31503 0.80042 -0.50998
vn -0.7487 0.61828 -0.23912
vn 0.82198 0.47752 -0.31036
vn -0.15777 0.7055 0.69092
vn 0.9686 0.00575 0.24854
vn -0.79139 -0.21169 0.57349
vn 0.89322 0.3313 0.30396
vn 0.81873 0.21485 0.53247
vn 0.02428 -0.47647 0.87885
vn -0.5022 0.43213 -0.74904
vn -0.07861 -0.79206 0.60537
vn 0.79333 0.18758 0.57918
vn 0.92725 -0.20186 0.31538
vn 0.28078 -0.79608 0.53611
vn -0.4501 -0.0759 -0.88975
vn 0.19373 0.03744 0.98034
vn 0.83907 0.54368 0.01926
vn -0.8468 0.19014 -0.49677
vn 0.99829 -0.04998 -0.03027
vn 0.73223 0.67906 -0.05208
vn 0.11489 0.88896 0.44334
vn -0.73867 0.46537 -0.48765
vn -0.61115 -0.18648 -0.76924
vn -0.66699 -0.46327 0.58353
vn 0.00915 -0.77673 -0.62976
vn -0.06019 -0.41581 0.90746
vn 0.5749 0.7974 -0.18339
vn 0.2621 0.0004 0.96504
vn 0.00795 -0.59486 -0.80379
vn -0.67113 0.16546 0.72264
vn 0.02887 -0.02312 -0.99932
vn -0.6613 0.72974 -0.17364
vn 0.58189 0.60418 -0.5444
vn -0.06054 -0.30935 -0.94902
vn -0.46997 0.10452 -0.87647
vn -0.17899 0.9831 0.03852
vn 0.59117 0.53338 0.60499
vn 0.65796 0.47687 0.58283
vn -0.33804 0.29939 -0.89224
vn -0.5364 0.18632 -0.82314
vn 0.96906 0.23895 -0.06189
vn 0.53606 0.19526 -0.82129
vn 0.9311 0.16164 -0.32699
vn -0.8138 -0.2519 -0.52371
vn -0.51235 -0.83245 -0.21102
vn 0.2938 0.41458 -0.86128
vn -0.26833 0.96082 -0.06946
vn -0.79311 -0.60839 0.02897
vn 0.26014 -0.49787 0.82732
vn 0.2918 -0.19895 0.93556
vn -0.83968 0.48682 -0.24071
vn 0.25922 0.51111 -0.81949
vn 0.57567 0.64459 0.5031
vn -0.14538 -0.98653 0.07505
vn -0.15611 0.63167 0.75936
vn -0.30633 -0.91401 -0.26597
vn 0.17133 -0.84031 -0.51432
vn -0.20427 -0.95184 -0.22864
vn 0.27701 0.2406 0.93026
vn -0.93749 -0.29937 -0.17746
vn 0.74553 0.23974 0.62186
vn -0.67723 0.21243 0.70444
vn -0.98786 0.10008 0.11878
vn -0.07878 -0.98204 0.17143
vn 0.93488 0.28954 0.20535
vn -0.15448 -0.94105 0.30094
vn -0.24578 0.02686 0.96895
vn -0.50213 0.86225 0.06633
vn -0.82419 -0.56629 -0.00561
vn -0.7959 -0.60388 0.04321
vn -0.97304 -0.1921 0.12765
vn -0.86133 -0.28822 0.41839
vn -0.84604 -0.05627 -0.53013
vn 0.42832 -0.88919 -0.16087
vn 0.43896 0.47395 -0.76333
vn -0.98674 -0.04961 -0.15456
vn 0.02609 0.99909 0.03375
vn -0.93129 -0.1663 -0.3241
vn -0.56227 0.15464 -0.81236
vn 0.11499 -0.96601 -0.23154
vn 0.12032 -0.96461 -0.23463
vn 0.08796 -0.99509 0.04538
vn 0.51077 -0.81129 -0.28447
vn -0.93478 0.29029 0.20475
vn 0.78793 -0.61498 -0.03101
vn 0.21726 -0.97536 -0.03843
vn 0.05849 -0.85163 0.52087
vn 0.01357 0.997 -0.07624
vn 0.91902 -0.35098 -0.17948
vn 0.82755 -0.49063 -0.27285
vn 0.88435 -0.46579 -0.03104
vn 0.78338 -0.61053 0.11649
vn 0.03828 0.11507 -0.99262
vn -0.81876 0.21479 0.53244
vn 0.69674 -0.71322 0.07658
vn 0.99843 -0.02086 -0.05207
vn 0.69824 -0.71329 0.06066
vn 0.9942 -0.08638 0.06415
vn 0.91513 -0.1837 -0.35888
vn 0.64358 -0.75747 0.10975
vn -0.13775 -0.99038 0.01328
vn -0.85653 0.46087 -0.23227
vn 0.99607 -0.06937 0.05502
vn 0.51258 0.01819 -0.85844
vn 0.47414 -0.0247 -0.88011
vn 0.51104 -0.79041 0.33777
vn 0.80331 -0.15372 0.57538
vn 0.41485 -0.88364 0.21698
vn 0.60818 -0.73701 0.29483
vn 0.91538 0.03196 -0.40133
vn -0.84514 -0.47255 -0.24988
vn 0.45157 -0.87085 0.19416
vn 0.41446 0.90627 -0.08303
vn 0.69644 0.71749 0.01363
vn -0.76514 -0.60082 0.23146
vn -0.16401 0.85528 -0.49152
vn -0.26775 0.24 0.93312
vn 0.21262 -0.94952 -0.23064
vn 0.56942 -0.81756 -0.08578
vn 0.37329 -0.92146 0.10753
vn -0.15047 0.9728 -0.17614
vn 0.96677 0.25233 -0.04098
vn 0.94598 0.30875 0.09899
vn 0.77346 0.23121 0.59018
vn -0.35618 -0.78551 -0.50606
vn -0.13882 -0.19157 0.97161
vn 0.76071 0.64878 -0.01983
vn -0.95624 -0.1326 -0.2608
vn -0.84077 -0.36998 -0.39525
vn 0.63265 -0.77276 -0.05098
vn -0.64399 0.69426 -0.32137
vn 0.15638 -0.69154 -0.70521
vn -0.32988 0.76234 0.55679
vn -0.77752 -0.01277 -0.62872
vn 0.07754 0.98878 -0.12764
vn 0.52782 0.00739 0.84933
vn -0.65975 -0.75069 -0.03452
vn 0.34468 0.89156 -0.29382
vn -0.73729 0.67554 -0.00717
vn -0.17527 -0.02008 -0.98432
vn 0.5096 -0.05822 -0.85844
vn -0.16449 0.98185 -0.09446
vn -0.07593 -0.99612 0.04458
vn -0.87853 0.07381 0.47194
vn 0.26352 0.90634 -0.3303
vn 0.17651 0.02973 0.98385
vn 0.59179 0.28204 -0.75514
vn -0.96484 0.05398 -0.25722
vn -0.69652 0.71741 0.01363
vn 0.97278 0.2294 -0.0327
vn -0.41447 0.90627 -0.08295
vn -0.56863 -0.81812 -0.08563
vn 0.43273 -0.83362 -0.34325
vn -0.37526 -0.92091 0.10535
vn -0.9418 -0.08513 -0.32522
vn 0.85803 0.2118 -0.4679
vn -0.4742 -0.02469 -0.88007
vn 0.46272 0.10267 -0.88054
vn 0.67833 -0.71747 -0.15845
vn -0.85958 0.10624 0.49983
vn -0.51258 0.01812 -0.85845
vn 0.84147 -0.163 0.51513
vn 0.13701 0.97957 -0.14722
vn 0.13776 -0.99038 0.01329
vn 0.15443 -0.94157 0.29933
vn 0.97169 0.2362 -0.00466
vn 0.95668 0.23814 0.16749
vn 0.96912 -0.0444 0.24254
vn 0.72775 0.58616 -0.35609
vn 0.6871 0.17774 0.70448
vn -0.10415 -0.56941 0.81543
vn 0.17835 -0.76042 0.62446
vn -0.36466 -0.46594 -0.80618
vn 0.37545 -0.39575 0.83811
vn 0.94643 0.18833 0.26229
vn 0.86604 -0.45789 -0.20079
vn -0.18471 -0.75898 0.62437
vn 0.93625 0.01188 0.35114
vn -0.97245 0.23034 -0.03583
vn -0.74021 -0.07134 -0.66858
vn 0.98313 0.18281 -0.0055
vn 0.16563 0.97319 -0.15961
vn -0.46375 -0.86249 0.20261
vn -0.86479 -0.05882 -0.49868
vn -0.46183 -0.07398 0.88388
vn -0.40263 -0.88405 0.23737
vn -0.64985 0.59968 -0.46699
vn -0.38876 -0.40701 0.82656
vn -0.55855 -0.76619 0.31776
vn 0.09961 -0.56304 0.8204
vn -0.51104 -0.79041 0.33777
vn -0.64362 -0.75745 0.10967
vn 0.94372 0.33045 0.01371
vn -0.04682 0.65369 -0.75531
vn -0.80332 -0.15364 0.57539
vn -0.14177 -0.20121 0.96924
vn -0.7949 -0.14162 0.58998
vn -0.99608 -0.06926 0.05495
vn -0.69822 -0.71331 0.06062
vn -0.74556 0.23963 0.62187
vn -0.88985 -0.36463 0.27424
vn -0.94204 0.1546 0.29776
vn -0.7867 0.19805 0.5847
vn 0.78317 0.54588 -0.29775
vn -0.9962 -0.02211 -0.08419
vn -0.01306 0.13186 0.99118
vn -0.84165 -0.16326 0.51475
vn -0.55545 0.82221 -0.12431
vn -0.98024 -0.03261 0.19512
vn -0.81355 -0.11594 0.56981
vn -0.96028 0.26908 0.07384
vn -0.93786 -0.32467 0.12252
vn -0.94999 -0.10982 0.29234
vn 0.82694 -0.05736 -0.55936
vn -0.95467 -0.14154 0.26187
vn -0.96809 0.01967 0.24981
vn -0.42651 -0.21545 0.87845
vn -0.69672 -0.71324 0.07658
vn -0.88438 -0.46574 -0.03102
vn -0.7879 -0.61503 -0.03099
vn -0.78336 -0.61054 0.11657
vn -0.99843 -0.02092 -0.05195
vn -0.51075 -0.81131 -0.28444
vn 0.77002 0.25917 -0.58302
vn -0.11498 -0.96601 -0.23153
vn -0.82755 -0.49063 -0.27285
vn -0.23257 0.80159 -0.55078
vn -0.919 -0.35103 -0.17951
vn 0.93749 -0.29937 -0.17746
vn 0.61877 0.688 0.37918
vn 0.93203 -0.1557 -0.32723
vn 0.67722 0.21243 0.70444
vn 0.98785 0.1001 0.11887
vn 0.79593 -0.60384 0.04329
vn 0.07193 -0.65801 -0.74956
vn 0.82421 -0.56625 -0.00551
vn -0.43733 0.13629 0.88891
vn 0.85167 -0.51666 0.08791
vn 0.99224 -0.09536 0.07976
vn 0.86781 -0.32 0.38014
vn -0.96414 -0.04218 0.26201
vn 0.86617 -0.32385 0.38062
vn 0.07322 -0.97457 0.21177
vn -0.96924 0.172 0.17603
vn 0.30555 -0.91482 -0.26408
vn 0.64908 0.56595 -0.50833
vn 0.78635 0.54984 -0.28166
vn -0.65833 -0.72999 -0.18364
vn 0.97352 -0.02214 -0.22751
vn 0.56292 -0.8177 -0.12032
vn 0.30851 0.68968 0.65511
vn -0.88424 0.38267 -0.26772
vn -0.58705 0.59082 -0.55344
vn 0.27634 -0.87977 -0.38684
vn -0.17651 0.02972 0.98385
vn 0.72418 -0.67925 -0.11907
vn 0.11865 -0.98989 -0.07775
vn 0.94735 -0.29507 -0.12434
vn 0.98193 -0.12044 -0.14594
vn 0.93259 0.11359 -0.3426
vn 0.63207 -0.76882 -0.097
vn -0.88665 0.2912 -0.35924
vn 0.17638 -0.12887 -0.97585
vn -0.15303 0.12333 0.9805
vn -0.95375 0.14521 -0.2632
vn -0.79286 0.18769 0.57978
vn 0.93884 -0.26714 -0.21729
vn 0.99058 -0.0352 -0.13237
vn -0.99775 -0.05469 -0.03891
vn 0.77788 -0.15668 0.60857
vn -0.64908 0.65851 0.38087
vn -0.95549 -0.28877 -0.06036
vn 0.79489 -0.1417 0.58997
vn 0.87309 0.44858 -0.19102
vn 0.95978 0.11607 -0.25562
vn 0.32353 0.94176 -0.0917
vn 0.66731 -0.71123 -0.22101
vn 0.57827 -0.50427 -0.64134
vn 0.26171 -0.68732 -0.67757
vn 0.96386 -0.25864 -0.06392
vn 0.94526 0.20526 0.25366
vn 0.89038 0.28285 0.35667
vn 0.13818 -0.98046 -0.14001
vn 0.71071 0.67974 0.18122
vn -0.86621 -0.49077 -0.09395
vn -0.64248 -0.76603 -0.02024
vn -0.80674 -0.57775 -0.12398
vn 0.57252 0.28579 -0.76847
vn -0.98894 0.14826 0.00242
vn 0.1417 -0.20122 0.96924
vn 0.681 -0.07234 0.7287
vn 0.41475 -0.32272 -0.85078
vn -0.31836 -0.58498 -0.74595
vn 0.8659 0.0066 0.50018
vn 0.51145 -0.83396 -0.20717
vn -0.06688 -0.50531 -0.86034
vn 0.50699 0.73781 -0.44564
vn -0.85172 -0.51658 0.08785
vn -0.99247 0.07429 -0.0974
vn 0.75469 0.34778 -0.55632
vn -0.07191 0.98737 -0.14117
vn -0.91231 -0.40759 0.03955
vn -0.91518 0.03185 -0.40179
vn -0.63769 0.69675 -0.32848
vn -0.92343 -0.33435 -0.18836
vn -0.85982 0.20602 -0.46719
vn -0.94431 -0.29678 -0.14211
vn -0.91513 -0.1837 -0.35888
vn -0.9942 -0.08638 0.06415
vn 0.94183 -0.08513 -0.32514
vn 0.34224 -0.36111 -0.86745
vn -0.92718 0.13525 -0.34936
vn -0.85695 0.19241 -0.47814
vn -0.99734 0.05977 0.04178
vn -0.95359 0.22323 -0.20207
vn -0.99662 0.06114 0.05478
vn -0.44853 0.57569 -0.68367
vn -0.89488 0.21031 0.39365
vn -0.99843 0.0176 0.0531
vn -0.95209 0.03869 0.30336
vn 0.9694 -0.23503 -0.07094
vn -0.28857 -0.23021 0.92937
vn -0.91524 0.1337 0.38009
vn -0.78231 0.13821 0.60736
vn 0.047 0.65362 -0.75536
vn -0.28926 0.46993 -0.83396
vn 0.88512 -0.11145 -0.45182
vn 0.81567 0.38006 -0.43616
vn 0.8912 0.43974 -0.11133
vn 0.73855 0.46547 -0.48772
vn 0.88668 0.29107 -0.35926
vn -0.95477 -0.02471 -0.2963
vn 0.30451 0.24719 0.91988
vn 0.24459 0.90314 -0.35286
vn 0.63776 0.69669 -0.32847
vn 0.77976 0.40352 0.4787
vn -0.79497 0.18576 0.57751
vn 0.93429 0.3307 -0.13316
vn -0.0239 0.04946 -0.99849
vn -0.345 0.89142 -0.29385
vn 0.64404 0.69421 -0.32138
vn 0.78843 0.47444 0.39151
vn 0.84758 -0.02305 -0.53017
vn -0.79881 0.50133 -0.33251
vn -0.89039 0.28284 0.35667
vn -0.24508 0.12229 -0.96176
vn -0.05513 0.98422 0.16812
vn 0.80672 -0.57778 -0.12398
vn -0.07256 0.99719 -0.01839
vn 0.10146 0.06446 -0.99275
vn 0.17823 0.98397 -0.00619
vn -0.78954 0.60417 0.10767
vn 0.90717 0.39456 0.14614
vn -0.25519 -0.10177 0.96152
vn 0.07264 0.99719 -0.01838
vn 0.31826 -0.58504 -0.74594
vn 0.79881 0.50134 -0.33249
vn 0.78954 0.60419 0.10765
vn 0.94431 -0.29712 -0.1414
vn 0.78226 0.13827 0.60742
vn 0.77419 0.3498 -0.52751
vn -0.80844 0.41245 -0.4199
vn -0.17037 -0.98534 0.00883
vn 0.4373 0.13626 0.88893
vn -0.47174 0.83801 -0.27424
vn 0.26041 0.95144 0.16415
vn 0.91214 -0.40795 0.03972
vn 0.85097 0.03317 -0.52417
vn -0.31862 0.36253 -0.87582
vn 0.35912 0.06245 -0.9312
vn 0.32735 -0.93828 -0.11165
vn 0.50029 0.74065 0.44849
vn 0.79328 -0.60812 0.02993
vn -0.61862 0.78539 0.02178
vn 0.87439 -0.06973 0.48018
vn 0.5802 0.58689 -0.56474
vn 0.07758 -0.98879 0.12761
vn 0.94206 0.15463 0.29768
vn -0.97106 -0.01113 0.23856
vn -0.89335 -0.04275 0.44732
vn 0.56667 0.15723 0.8088
vn -0.94997 0.31235 -0.00134
vn 0.79509 0.18598 0.57727
vn -0.87383 -0.1317 0.46806
vn 0.37994 -0.07685 -0.92181
vn 0.89791 -0.32038 0.30186
vn -0.30647 0.21829 0.92651
vn -0.07754 -0.98878 0.12764
vn -0.11563 -0.95997 -0.25511
vn 0.80204 -0.20766 -0.56001
vn 0.97627 0.19438 0.09541
vn -0.95979 0.11466 -0.25624
vn 0.15607 0.63166 0.75937
vn -0.94738 0.30737 0.08938
vn 0.49404 -0.27485 -0.82485
vn 0.18024 0.08843 -0.97964
vn 0.88774 0.40993 0.20947
vn 0.83176 -0.47164 0.2928
vn -0.96149 0.26257 -0.08122
vn 0.96707 0.21015 0.14353
vn 0.9441 -0.12773 -0.3039
vn 0.24342 0.12142 -0.96229
vn -0.67125 0.42905 -0.60443
vn -0.41504 -0.32268 -0.85066
vn -0.96214 0.12977 -0.23967
vn -0.99385 0.00188 -0.11068
vn 0.19503 0.26508 -0.9443
vn -0.22578 0.28538 0.93144
vn -0.56461 -0.81676 -0.11886
vn 0.1885 -0.03795 -0.98134
vn -0.85173 -0.00094 0.52398
vn -0.1319 -0.98627 -0.09933
vn -0.78844 0.47443 0.39152
vn 0.14429 -0.70792 -0.6914
vn -0.68104 -0.07239 0.72866
vn 0.42685 -0.21243 0.87902
vn -0.94322 0.22703 0.24248
vn -0.89118 0.43978 -0.11133
vn 0.88991 -0.36454 0.27418
vn 0.27957 0.47262 -0.83575
vn -0.82119 0.49962 -0.27572
vn 0.19654 0.83829 0.50856
vn 0.13356 -0.96092 -0.24248
vn -0.85333 0.17512 0.49109
vn -0.14423 -0.70791 -0.69142
vn 0.96174 0.21517 -0.16957
vn 0.85337 0.17509 0.49103
vn -0.89793 -0.32029 0.30189
vn 0.99197 0.00886 -0.12614
vn -0.3251 -0.93908 -0.11154
vn -0.0721 -0.65817 -0.74941
vn -0.81558 0.38019 -0.43622
vn 0.89488 0.21038 0.39362
vn 0.26507 -0.104 0.9586
vn -0.79238 -0.00197 0.61003
vn 0.99481 -0.09057 -0.04638
vn -0.89666 0.41935 0.14197
vn -0.96907 0.23891 -0.06185
vn -0.94844 -0.29003 -0.12783
vn 0.57073 0.03233 -0.8205
vn 0.89576 -0.04495 0.44226
vn 0.44886 0.56618 -0.69135
vn -0.70356 0.56483 -0.43124
vn 0.20413 -0.23156 -0.95116
vn 0.97595 -0.01183 0.21769
vn -0.07758 0.98879 -0.12761
vn 0.78031 -0.34091 -0.5243
vn 0.3217 -0.3219 -0.89044
vn -0.938 -0.22398 0.26455
vn 0.67377 -0.73582 0.06783
vn 0.86161 -0.47901 0.16788
vn 0.07073 -0.44764 -0.89141
vn 0.77826 -0.01296 -0.62781
vn 0.6333 0.23331 0.7379
vn 0.24579 0.02686 0.96895
vn -0.04062 -0.10362 0.99379
vn 0.31692 0.02925 -0.948
vn 0.67125 0.16546 0.72252
vn -0.01993 -0.99973 -0.01207
vn -0.65438 -0.73594 -0.17376
vn -0.65037 -0.15711 -0.74319
vn 0.85891 0.05796 0.50883
vn -0.77796 -0.15675 0.60845
vn -0.17823 0.98397 -0.00619
vn 0.78006 -0.01965 -0.62539
vn 0.30649 0.21825 0.92652
vn 0.05605 -0.98969 0.1318
vn -0.63368 0.23335 0.73756
vn 0.87808 0.30983 -0.36467
vn 0.17098 -0.98523 0.00916
vn 0.79215 -0.00211 0.61032
vn -0.80003 0.26757 -0.537
vn 0.78671 0.1981 0.58468
vn 0.92894 -0.29744 -0.22043
vn -0.0518 -0.47658 -0.8776
vn 0.0666 -0.00239 -0.99778
vn -0.9636 -0.26649 -0.02158
vn -0.32216 -0.32166 -0.89036
vn -0.28436 0.86203 -0.41957
vn -0.92092 -0.36417 -0.13888
vn -0.82039 0.48093 -0.3093
vn 0.16882 0.74121 0.6497
vn -0.78641 0.5499 -0.28137
vn -0.25407 0.49471 -0.83109
vn 0.79833 0.535 -0.27649
vn -0.37221 -0.07729 -0.92493
vn 0.22574 0.28537 0.93145
vn 0.95083 -0.16237 -0.26375
vn 0.87282 -0.48763 -0.01985
vn 0.99888 -0.03383 0.03297
vn 0.85369 0.47014 -0.22402
vn -0.70309 0.3918 -0.59343
vn 0.43072 0.26446 -0.86287
vn -0.95035 0.05488 0.30631
vn 0.95837 0.24631 -0.14442
vn 0.92302 -0.336 -0.18744
vn -0.76797 0.24743 -0.59076
vn 0.86185 0.10704 0.49575
vn 0.86524 0.12427 0.48571
vn -0.68712 0.17777 0.70446
vn 0.72513 -0.11731 0.67855
vn 0.43622 0.19417 -0.87864
vn 0.94032 0.30553 -0.14981
vn -0.27082 0.31672 -0.90903
vn -0.44631 -0.31687 -0.8369
vn 0.6421 0.27507 -0.71557
vn -0.15904 -0.96504 -0.20834
vn 0.98232 0.03136 0.18458
vn -0.67125 -0.73814 0.06763
vn 0.77677 0.27364 -0.56723
vn -0.80578 -0.31465 -0.5017
vn -0.94101 0.03814 0.33623
vn -0.27248 0.04438 -0.96114
vn 0.6772 0.54052 0.49924
vn -0.91537 0.16083 -0.3691
vn 0.72401 0.12769 -0.67786
vn 0.83636 -0.05772 -0.54514
vn 0.98893 0.14833 0.00242
vn -0.86755 -0.01907 -0.49698
vn -0.7979 0.32913 -0.50501
vn -0.94359 -0.32163 -0.07873
vn 0.84493 -0.36321 -0.39264
vn 0.98868 0.11949 -0.09072
vn -0.07334 0.96329 -0.25825
vn -0.99256 0.00042 -0.12175
vn -0.83598 -0.01959 0.54841
vn 0.99639 0.07526 0.03934
vn 0.6425 -0.76602 -0.02024
vn 0.96356 -0.2666 -0.02171
vn 0.96811 0.01974 0.24973
vn -0.75152 0.63389 -0.18276
vn -0.92974 -0.29312 -0.22287
vn -0.92429 0.36564 -0.10947
vn -0.17215 -0.22067 -0.96004
vn 0.99959 0.00369 -0.02854
vn -0.72671 -0.05752 -0.68453
vn -0.32904 0.65521 0.68002
vn -0.92316 0.31236 0.22406
vn -0.91166 0.31362 0.26554
vn 0.02254 -0.99425 -0.10466
vn -0.20096 -0.02525 0.97927
vn 0.60222 -0.37685 0.70378
vn -0.88641 0.41268 -0.20971
vn 0.95215 0.04575 0.3022
vn -0.0013 0.99765 0.06852
vn -0.18024 0.08843 -0.97964
vn -0.90828 -0.40415 -0.10807
vn 0.82524 0.5549 -0.10518
vn 0.36565 0.5179 0.77336
vn -0.50167 -0.20986 -0.83922
vn 0.99986 0.01307 -0.0108
vn -0.7733 0.61062 -0.17075
vn -0.14452 -0.95777 -0.24857
vn -0.98881 0.0286 -0.14639
vn -0.24564 0.86747 -0.43261
vn 0.39466 0.25631 -0.88235
vn -0.23716 0.79151 0.56327
vn 0.93787 -0.32462 0.12258
vn 0.17557 -0.02016 -0.98426
vn -0.21683 0.77445 0.59432
vn 0.93793 0.05523 0.34239
vn -0.20165 -0.23842 -0.95
vn -0.98723 0.05119 0.15084
vn -0.76712 0.63659 -0.07921
vn -0.94394 0.17543 0.27964
vn 0.37509 -0.46182 -0.80376
vn 0.8528 0.18115 -0.4898
vn 0.76159 0.20702 -0.6141
vn 0.36713 -0.47811 -0.79789
vn 0.99893 0.02394 0.0395
vn -0.97835 0.20172 -0.04615
vn -0.86159 -0.47905 0.16783
vn -0.70676 -0.70688 -0.02851
vn 0.94624 -0.21047 0.24563
vn -0.94382 0.18133 0.27626
vn -0.5638 -0.81709 -0.12035
vn 0.95502 -0.13963 0.26161
vn 0.61162 0.66607 -0.42694
vn -0.9632 0.26686 -0.0321
vn 0.44652 -0.31714 -0.83669
vn -0.58203 0.52388 0.62193
vn -0.65885 0.47457 0.5837
vn -0.77906 0.41455 0.47033
vn -0.85806 0.51302 0.02338
vn -0.27856 0.05017 -0.95911
vn 0.23931 0.55976 0.79335
vn -0.6478 0.73917 -0.18436
vn 0.48561 0.86357 -0.13575
vn -0.89318 0.33131 0.30407
vn 0.53414 0.78402 -0.31624
vn -0.47463 0.03676 0.87942
vn -0.26791 -0.04864 0.96221
vn -0.72513 -0.11744 0.67852
vn 0.9961 0.06429 0.06049
vn 0.96532 0.11239 -0.23562
vn -0.56675 0.15703 0.80879
vn -0.77347 0.23097 0.59025
vn -0.95971 -0.20988 0.18683
vn -0.56309 -0.61748 -0.54922
vn -0.59701 -0.41728 0.68517
vn -0.57971 -0.41101 0.70357
vn -0.2332 0.61711 0.75153
vn 0.91798 0.13365 0.37344
vn -0.96894 0.00639 0.2472
vn -0.97225 -0.20215 -0.11772
vn -0.99594 -0.0894 0.0102
vn -0.96923 0.24287 -0.04002
vn -0.98149 0.17194 -0.0844
vn -0.95936 0.08441 -0.26928
vn -0.98039 -0.0388 -0.19319
vn 0.82878 0.22893 0.5106
usemtl mat0
f 1//1 2//1 3//1
f 4//2 5//2 6//2
f 7//3 8//3 9//3
f 10//4 9//4 8//4
f 9//5 10//5 11//5
f 12//6 11//6 10//6
f 13//7 14//7 15//7
f 16//8 17//8 18//8
f 19//9 20//9 21//9
f 22//10 23//10 24//10
f 25//11 26//11 2//11
f 27//12 28//12 29//12
f 15//13 30//13 13//13
f 31//14 32//14 33//14
f 34//15 35//15 36//15
f 37//16 38//16 39//16
f 40//17 41//17 42//17
f 34//18 36//18 43//18
f 44//19 45//19 46//19
f 47//20 48//20 49//20
f 50//21 51//21 52//21
f 53//22 54//22 55//22
f 56//23 57//23 58//23
f 44//24 46//24 59//24
f 60//25 61//25 5//25
f 62//26 63//26 64//26
f 65//27 66//27 67//27
f 68//28 69//28 46//28
f 69//29 59//29 46//29
f 70//30 64//30 71//30
f 72//31 73//31 74//31
f 75//32 76//32 77//32
f 78//33 79//33 80//33
f 81//34 82//34 83//34
f 42//35 84//35 53//35
f 85//36 86//36 87//36
f 88//37 18//37 89//37
f 90//38 91//38 92//38
f 93//39 48//39 94//39
f 59//40 69//40 95//40
f 59//41 95//41 96//41
f 95//42 97//42 19//42
f 98//43 99//43 100//43
f 101//44 50//44 37//44
f 68//45 95//45 69//45
f 102//46 103//46 104//46
f 102//47 105//47 103//47
f 106//48 107//48 67//48
f 108//49 1//49 109//49
f 110//50 111//50 85//50
f 112//51 113//51 86//51
f 88//52 89//52 114//52
f 115//53 116//53 117//53
f 118//54 119//54 120//54
f 121//55 25//55 122//55
f 123//56 102//56 104//56
f 15//57 124//57 30//57
f 125//58 126//58 62//58
f 101//59 127//59 75//59
f 108//60 6//60 128//60
f 68//61 46//61 95//61
f 45//62 95//62 46//62
f 2//63 129//63 130//63
f 131//64 132//64 133//64
f 134//65 135//65 109//65
f 136//66 65//66 137//66
f 79//67 138//67 48//67
f 2//68 122//68 25//68
f 139//69 126//69 70//69
f 140//70 141//70 142//70
f 21//71 143//71 66//71
f 144//72 145//72 31//72
f 146//73 55//73 147//73
f 23//74 148//74 149//74
f 150//75 151//75 105//75
f 147//76 152//76 146//76
f 153//77 154//77 155//77
f 106//78 67//78 156//78
f 70//79 126//79 125//79
f 149//80 157//80 158//80
f 159//81 160//81 161//81
f 110//82 162//82 163//82
f 164//83 148//83 165//83
f 57//84 32//84 166//84
f 21//85 65//85 96//85
f 167//86 168//86 169//86
f 170//87 171//87 172//87
f 173//88 77//88 174//88
f 39//89 175//89 101//89
f 176//90 121//90 122//90
f 177//91 178//91 179//91
f 159//92 4//92 160//92
f 180//93 181//93 182//93
f 183//94 184//94 172//94
f 146//95 152//95 55//95
f 185//96 186//96 187//96
f 188//97 189//97 190//97
f 191//98 28//98 192//98
f 164//99 149//99 148//99
f 193//100 141//100 140//100
f 157//101 174//101 83//101
f 100//102 99//102 139//102
f 194//103 133//103 193//103
f 93//104 94//104 195//104
f 121//105 196//105 25//105
f 197//106 192//106 51//106
f 187//107 156//107 67//107
f 57//108 92//108 58//108
f 43//109 167//109 34//109
f 198//110 182//110 17//110
f 17//111 16//111 198//111
f 35//112 34//112 142//112
f 107//113 199//113 200//113
f 4//114 159//114 5//114
f 19//115 96//115 95//115
f 186//116 185//116 201//116
f 60//117 201//117 61//117
f 107//118 106//118 199//118
f 202//119 203//119 204//119
f 58//120 205//120 56//120
f 61//121 185//121 206//121
f 207//122 199//122 208//122
f 208//123 199//123 106//123
f 209//124 72//124 147//124
f 101//125 197//125 50//125
f 112//126 210//126 186//126
f 211//127 212//127 110//127
f 213//128 160//128 4//128
f 41//129 84//129 42//129
f 86//130 111//130 112//130
f 214//131 215//131 216//131
f 72//132 74//132 147//132
f 65//133 59//133 96//133
f 106//134 156//134 208//134
f 136//135 217//135 65//135
f 85//136 87//136 218//136
f 77//137 101//137 75//137
f 207//138 208//138 156//138
f 172//139 219//139 220//139
f 79//140 194//140 221//140
f 105//141 102//141 150//141
f 13//142 78//142 14//142
f 72//143 209//143 54//143
f 168//144 222//144 122//144
f 86//145 85//145 111//145
f 116//146 223//146 224//146
f 225//147 224//147 223//147
f 226//148 151//148 227//148
f 228//149 122//149 222//149
f 229//150 230//150 63//150
f 231//151 232//151 129//151
f 210//152 233//152 234//152
f 132//153 141//153 193//153
f 155//154 235//154 236//154
f 218//155 87//155 227//155
f 207//156 156//156 199//156
f 134//157 3//157 237//157
f 67//158 137//158 65//158
f 238//159 67//159 66//159
f 239//160 110//160 240//160
f 200//161 199//161 156//161
f 116//162 224//162 84//162
f 241//163 242//163 243//163
f 31//164 244//164 144//164
f 243//165 242//165 245//165
f 70//166 71//166 139//166
f 246//167 245//167 242//167
f 247//168 206//168 66//168
f 195//169 215//169 248//169
f 249//170 83//170 76//170
f 250//171 248//171 215//171
f 215//172 214//172 250//172
f 246//173 251//173 245//173
f 113//174 161//174 160//174
f 252//175 245//175 251//175
f 37//176 39//176 101//176
f 99//177 98//177 62//177
f 214//178 253//178 250//178
f 248//179 250//179 253//179
f 56//180 214//180 33//180
f 214//181 56//181 253//181
f 43//182 254//182 222//182
f 248//183 253//183 255//183
f 14//184 78//184 80//184
f 178//185 177//185 176//185
f 150//186 239//186 240//186
f 177//187 256//187 121//187
f 221//188 14//188 80//188
f 248//189 257//189 242//189
f 246//190 242//190 257//190
f 257//191 251//191 246//191
f 248//192 255//192 257//192
f 258//193 104//193 103//193
f 259//194 257//194 255//194
f 205//195 255//195 253//195
f 253//196 56//196 205//196
f 55//197 209//197 147//197
f 255//198 205//198 260//198
f 260//199 261//199 255//199
f 259//200 255//200 82//200
f 261//201 82//201 255//201
f 145//202 144//202 262//202
f 263//203 264//203 265//203
f 251//204 257//204 259//204
f 82//205 261//205 158//205
f 259//206 266//206 251//206
f 267//207 158//207 261//207
f 261//208 260//208 267//208
f 268//209 251//209 266//209
f 251//210 268//210 252//210
f 269//211 98//211 153//211
f 266//212 259//212 249//212
f 268//213 270//213 252//213
f 271//214 252//214 270//214
f 266//215 272//215 268//215
f 266//216 249//216 272//216
f 268//217 273//217 270//217
f 273//218 268//218 272//218
f 90//219 274//219 91//219
f 275//220 276//220 114//220
f 277//221 270//221 273//221
f 270//222 278//222 271//222
f 279//223 271//223 278//223
f 280//224 275//224 114//224
f 14//225 203//225 15//225
f 247//226 66//226 143//226
f 281//227 282//227 245//227
f 270//228 283//228 278//228
f 283//229 270//229 277//229
f 98//230 269//230 229//230
f 26//231 230//231 226//231
f 201//232 112//232 186//232
f 107//233 200//233 225//233
f 132//234 193//234 133//234
f 101//235 175//235 127//235
f 284//236 279//236 278//236
f 236//237 153//237 155//237
f 196//238 236//238 235//238
f 278//239 283//239 284//239
f 285//240 33//240 216//240
f 280//241 118//241 275//241
f 99//242 62//242 126//242
f 196//243 121//243 256//243
f 286//244 287//244 288//244
f 137//245 223//245 136//245
f 289//246 290//246 283//246
f 216//247 90//247 285//247
f 290//248 289//248 279//248
f 25//249 291//249 26//249
f 209//250 55//250 54//250
f 279//251 284//251 290//251
f 292//252 281//252 293//252
f 294//253 170//253 172//253
f 295//254 296//254 152//254
f 197//255 51//255 50//255
f 87//256 198//256 16//256
f 74//257 297//257 147//257
f 279//258 289//258 271//258
f 229//259 226//259 230//259
f 298//260 271//260 289//260
f 298//261 289//261 283//261
f 133//262 47//262 241//262
f 283//263 277//263 298//263
f 98//264 100//264 154//264
f 274//265 90//265 299//265
f 271//266 298//266 252//266
f 300//267 129//267 232//267
f 241//268 49//268 242//268
f 183//269 172//269 171//269
f 301//270 252//270 298//270
f 83//271 174//271 77//271
f 17//272 182//272 18//272
f 293//273 252//273 301//273
f 252//274 293//274 245//274
f 165//275 302//275 303//275
f 40//276 42//276 55//276
f 304//277 164//277 305//277
f 198//278 86//278 113//278
f 27//279 306//279 28//279
f 272//280 75//280 273//280
f 127//281 277//281 273//281
f 124//282 34//282 167//282
f 75//283 127//283 273//283
f 305//284 165//284 29//284
f 71//285 64//285 230//285
f 127//286 307//286 277//286
f 186//287 234//287 187//287
f 18//288 276//288 16//288
f 212//289 74//289 162//289
f 138//290 94//290 48//290
f 89//291 18//291 182//291
f 307//292 298//292 277//292
f 193//293 140//293 202//293
f 37//294 219//294 184//294
f 301//295 298//295 307//295
f 239//296 123//296 211//296
f 175//297 307//297 127//297
f 307//298 308//298 301//298
f 308//299 307//299 175//299
f 309//300 301//300 308//300
f 301//301 309//301 293//301
f 64//302 63//302 230//302
f 299//303 90//303 216//303
f 309//304 308//304 310//304
f 311//305 308//305 175//305
f 311//306 310//306 308//306
f 309//307 310//307 312//307
f 312//308 293//308 309//308
f 310//309 311//309 313//309
f 314//310 312//310 310//310
f 310//311 313//311 314//311
f 39//312 313//312 311//312
f 315//313 151//313 226//313
f 316//314 317//314 254//314
f 175//315 39//315 311//315
f 313//316 39//316 318//316
f 151//317 240//317 218//317
f 170//318 179//318 178//318
f 38//319 318//319 39//319
f 314//320 313//320 319//320
f 314//321 319//321 312//321
f 320//322 313//322 318//322
f 321//323 232//323 148//323
f 313//324 320//324 322//324
f 322//325 319//325 313//325
f 220//326 52//326 143//326
f 293//327 312//327 292//327
f 312//328 319//328 8//328
f 312//329 8//329 292//329
f 323//330 8//330 319//330
f 319//331 322//331 323//331
f 7//332 292//332 8//332
f 324//333 109//333 213//333
f 7//334 282//334 292//334
f 325//335 8//335 323//335
f 151//336 315//336 269//336
f 8//337 325//337 10//337
f 326//338 7//338 327//338
f 161//339 112//339 201//339
f 6//340 108//340 324//340
f 328//341 327//341 7//341
f 327//342 328//342 329//342
f 7//343 9//343 328//343
f 166//344 32//344 262//344
f 329//345 328//345 9//345
f 220//346 219//346 52//346
f 91//347 205//347 58//347
f 330//348 331//348 329//348
f 329//349 9//349 330//349
f 332//350 171//350 316//350
f 11//351 330//351 9//351
f 241//352 243//352 282//352
f 20//353 19//353 333//353
f 243//354 245//354 282//354
f 13//355 138//355 78//355
f 138//356 13//356 94//356
f 131//357 282//357 334//357
f 233//358 53//358 234//358
f 335//359 135//359 336//359
f 41//360 40//360 117//360
f 105//361 269//361 153//361
f 228//362 176//362 122//362
f 291//363 196//363 235//363
f 37//364 50//364 219//364
f 337//365 330//365 11//365
f 11//366 12//366 337//366
f 330//367 338//367 331//367
f 339//368 331//368 338//368
f 267//369 274//369 23//369
f 338//370 330//370 337//370
f 94//371 24//371 195//371
f 340//372 300//372 169//372
f 341//373 326//373 142//373
f 211//374 97//374 212//374
f 264//375 143//375 20//375
f 181//376 335//376 342//376
f 303//377 128//377 6//377
f 236//378 179//378 103//378
f 206//379 306//379 61//379
f 104//380 265//380 123//380
f 316//381 254//381 343//381
f 76//382 272//382 249//382
f 128//383 303//383 302//383
f 342//384 89//384 181//384
f 226//385 229//385 315//385
f 49//386 241//386 47//386
f 22//387 321//387 23//387
f 194//388 47//388 133//388
f 336//389 275//389 120//389
f 303//390 29//390 165//390
f 161//391 201//391 159//391
f 100//392 139//392 230//392
f 112//393 161//393 113//393
f 337//394 12//394 344//394
f 344//395 345//395 337//395
f 346//396 344//396 12//396
f 73//397 163//397 162//397
f 345//398 344//398 347//398
f 76//399 75//399 272//399
f 27//400 61//400 306//400
f 49//401 93//401 248//401
f 248//402 242//402 49//402
f 27//403 5//403 61//403
f 335//404 213//404 135//404
f 167//405 30//405 124//405
f 198//406 87//406 86//406
f 346//407 12//407 10//407
f 348//408 344//408 346//408
f 163//409 111//409 110//409
f 315//410 229//410 269//410
f 10//411 349//411 346//411
f 348//412 346//412 349//412
f 33//413 214//413 216//413
f 325//414 349//414 10//414
f 349//415 350//415 348//415
f 349//416 325//416 351//416
f 323//417 351//417 325//417
f 351//418 323//418 322//418
f 89//419 342//419 336//419
f 169//420 321//420 30//420
f 351//421 36//421 349//421
f 350//422 349//422 36//422
f 322//423 343//423 351//423
f 36//424 351//424 343//424
f 343//425 322//425 320//425
f 350//426 36//426 35//426
f 263//427 265//427 258//427
f 320//428 332//428 343//428
f 320//429 318//429 332//429
f 234//430 200//430 156//430
f 21//431 66//431 65//431
f 183//432 332//432 318//432
f 318//433 38//433 183//433
f 350//434 352//434 348//434
f 352//435 350//435 35//435
f 79//436 47//436 353//436
f 35//437 327//437 352//437
f 327//438 35//438 326//438
f 329//439 352//439 327//439
f 142//440 326//440 35//440
f 212//441 297//441 74//441
f 238//442 66//442 206//442
f 40//443 152//443 296//443
f 331//444 352//444 329//444
f 224//445 225//445 200//445
f 143//446 21//446 20//446
f 181//447 180//447 160//447
f 147//448 295//448 152//448
f 352//449 354//449 348//449
f 354//450 352//450 331//450
f 244//451 262//451 144//451
f 302//452 148//452 232//452
f 344//453 348//453 354//453
f 104//454 258//454 265//454
f 122//455 130//455 168//455
f 150//456 123//456 239//456
f 91//457 58//457 92//457
f 244//458 31//458 285//458
f 73//459 54//459 163//459
f 331//460 339//460 354//460
f 354//461 347//461 344//461
f 64//462 70//462 125//462
f 247//463 143//463 52//463
f 347//464 354//464 339//464
f 7//465 334//465 282//465
f 92//466 285//466 90//466
f 285//467 92//467 244//467
f 274//468 267//468 260//468
f 174//469 191//469 173//469
f 128//470 302//470 231//470
f 211//471 110//471 239//471
f 135//472 134//472 237//472
f 306//473 52//473 51//473
f 269//474 105//474 151//474
f 63//475 62//475 98//475
f 205//476 91//476 274//476
f 79//477 78//477 138//477
f 218//478 227//478 151//478
f 227//479 16//479 3//479
f 237//480 336//480 135//480
f 116//481 84//481 41//481
f 291//482 355//482 26//482
f 123//483 150//483 102//483
f 67//484 238//484 187//484
f 231//485 129//485 128//485
f 225//486 356//486 223//486
f 249//487 81//487 83//487
f 317//488 316//488 171//488
f 171//489 332//489 183//489
f 107//490 225//490 137//490
f 114//491 276//491 88//491
f 206//492 185//492 238//492
f 96//493 19//493 21//493
f 321//494 169//494 232//494
f 262//495 244//495 166//495
f 184//496 38//496 37//496
f 287//497 286//497 288//497
f 337//498 345//498 338//498
f 47//499 79//499 48//499
f 303//500 6//500 5//500
f 154//501 153//501 98//501
f 339//502 190//502 347//502
f 265//503 333//503 123//503
f 300//504 232//504 169//504
f 340//505 130//505 300//505
f 190//506 339//506 188//506
f 118//507 120//507 275//507
f 317//508 178//508 357//508
f 53//509 55//509 42//509
f 324//510 213//510 6//510
f 129//511 300//511 130//511
f 162//512 110//512 212//512
f 334//513 7//513 341//513
f 97//514 211//514 333//514
f 357//515 254//515 317//515
f 2//516 1//516 129//516
f 326//517 341//517 7//517
f 32//518 57//518 56//518
f 72//519 54//519 73//519
f 294//520 264//520 170//520
f 336//521 276//521 275//521
f 347//522 190//522 189//522
f 145//523 262//523 32//523
f 294//524 220//524 264//524
f 306//525 206//525 52//525
f 178//526 317//526 170//526
f 215//527 195//527 24//527
f 81//528 249//528 259//528
f 216//529 24//529 299//529
f 110//530 218//530 240//530
f 41//531 117//531 116//531
f 241//532 131//532 133//532
f 264//533 20//533 265//533
f 188//534 338//534 189//534
f 23//535 149//535 267//535
f 61//536 201//536 185//536
f 189//537 345//537 347//537
f 181//538 160//538 213//538
f 355//539 235//539 100//539
f 345//540 189//540 338//540
f 24//541 216//541 215//541
f 60//542 159//542 201//542
f 247//543 52//543 206//543
f 219//544 172//544 184//544
f 4//545 6//545 213//545
f 114//546 119//546 280//546
f 18//547 88//547 276//547
f 236//548 256//548 179//548
f 221//549 204//549 14//549
f 305//550 191//550 304//550
f 299//551 24//551 23//551
f 124//552 203//552 140//552
f 100//553 230//553 355//553
f 165//554 305//554 164//554
f 223//555 356//555 225//555
f 148//556 23//556 321//556
f 13//557 22//557 94//557
f 316//558 343//558 332//558
f 230//559 26//559 355//559
f 188//560 339//560 338//560
f 79//561 221//561 80//561
f 109//562 324//562 108//562
f 192//563 173//563 191//563
f 197//564 101//564 77//564
f 197//565 77//565 173//565
f 227//566 3//566 2//566
f 28//567 306//567 51//567
f 282//568 131//568 241//568
f 334//569 132//569 131//569
f 284//570 358//570 290//570
f 27//571 29//571 5//571
f 143//572 264//572 220//572
f 33//573 285//573 31//573
f 54//574 53//574 163//574
f 192//575 197//575 173//575
f 245//576 293//576 281//576
f 184//577 183//577 38//577
f 111//578 163//578 210//578
f 235//579 355//579 291//579
f 51//580 192//580 28//580
f 222//581 357//581 228//581
f 77//582 76//582 83//582
f 336//583 342//583 335//583
f 30//584 167//584 169//584
f 119//585 118//585 280//585
f 141//586 334//586 341//586
f 124//587 142//587 34//587
f 124//588 15//588 203//588
f 132//589 334//589 141//589
f 24//590 94//590 22//590
f 296//591 117//591 40//591
f 140//592 142//592 124//592
f 203//593 14//593 204//593
f 110//594 85//594 218//594
f 43//595 222//595 167//595
f 195//596 248//596 93//596
f 213//597 335//597 181//597
f 358//598 284//598 283//598
f 89//599 336//599 120//599
f 182//600 181//600 89//600
f 203//601 202//601 140//601
f 16//602 227//602 87//602
f 333//603 19//603 97//603
f 234//604 224//604 200//604
f 260//605 205//605 274//605
f 256//606 236//606 196//606
f 191//607 305//607 28//607
f 29//608 28//608 305//608
f 294//609 172//609 220//609
f 223//610 137//610 225//610
f 221//611 194//611 193//611
f 113//612 160//612 180//612
f 2//613 130//613 122//613
f 291//614 25//614 196//614
f 108//615 129//615 1//615
f 47//616 194//616 353//616
f 303//617 5//617 29//617
f 276//618 237//618 3//618
f 232//619 231//619 302//619
f 254//620 43//620 36//620
f 263//621 258//621 170//621
f 26//622 226//622 227//622
f 62//623 64//623 125//623
f 121//624 176//624 177//624
f 128//625 129//625 108//625
f 233//626 163//626 53//626
f 166//627 244//627 92//627
f 357//628 222//628 254//628
f 176//629 228//629 357//629
f 36//630 343//630 254//630
f 109//631 135//631 213//631
f 234//632 53//632 84//632
f 63//633 98//633 229//633
f 153//634 236//634 103//634
f 263//635 170//635 264//635
f 158//636 267//636 149//636
f 92//637 57//637 166//637
f 48//638 93//638 49//638
f 158//639 83//639 82//639
f 147//640 296//640 295//640
f 100//641 155//641 154//641
f 153//642 103//642 105//642
f 340//643 169//643 168//643
f 302//644 165//644 148//644
f 73//645 162//645 74//645
f 359//646 117//646 296//646
f 296//647 147//647 297//647
f 296//648 297//648 359//648
f 139//649 71//649 230//649
f 50//650 52//650 219//650
f 137//651 67//651 107//651
f 176//652 357//652 178//652
f 157//653 304//653 174//653
f 120//654 114//654 89//654
f 340//655 168//655 130//655
f 56//656 33//656 32//656
f 55//657 152//657 40//657
f 136//658 223//658 116//658
f 168//659 167//659 222//659
f 156//660 187//660 234//660
f 359//661 297//661 360//661
f 281//662 292//662 282//662
f 177//663 179//663 256//663
f 240//664 151//664 150//664
f 193//665 202//665 221//665
f 359//666 361//666 117//666
f 81//667 259//667 82//667
f 1//668 3//668 134//668
f 361//669 115//669 117//669
f 60//670 5//670 159//670
f 336//671 237//671 276//671
f 258//672 103//672 179//672
f 361//673 359//673 360//673
f 171//674 170//674 317//674
f 321//675 22//675 30//675
f 299//676 23//676 274//676
f 163//677 233//677 210//677
f 13//678 30//678 22//678
f 157//679 149//679 304//679
f 341//680 142//680 141//680
f 145//681 32//681 31//681
f 358//682 283//682 290//682
f 164//683 304//683 149//683
f 361//684 360//684 362//684
f 155//685 100//685 235//685
f 83//686 158//686 157//686
f 210//687 112//687 111//687
f 362//688 45//688 361//688
f 134//689 109//689 1//689
f 115//690 361//690 286//690
f 287//691 286//691 361//691
f 361//692 45//692 287//692
f 123//693 333//693 211//693
f 227//694 2//694 26//694
f 116//695 115//695 136//695
f 194//696 79//696 353//696
f 180//697 198//697 113//697
f 333//698 265//698 20//698
f 182//699 198//699 180//699
f 217//700 115//700 286//700
f 217//701 136//701 115//701
f 286//702 287//702 217//702
f 224//703 234//703 84//703
f 234//704 186//704 210//704
f 44//705 217//705 287//705
f 44//706 287//706 45//706
f 126//707 139//707 99//707
f 202//708 204//708 221//708
f 217//709 44//709 65//709
f 59//710 65//710 44//710
f 119//711 114//711 120//711
f 191//712 174//712 304//712
f 179//713 170//713 258//713
f 362//714 95//714 45//714
f 362//715 97//715 95//715
f 3//716 16//716 276//716
f 297//717 362//717 360//717
f 97//718 362//718 212//718
f 297//719 212//719 362//719
f 187//720 238//720 185//720
# Vertices: 362, normals: 720, texture coordinates: 0, faces: 720

