# WaveFront *.obj file (generated by Autodesk ATF)

v -7.482729 8.058709 13.227104
v -13.826283 8.058706 8.988487
v 18.064917 12.456935 1.215843
v 13.826290 16.185598 6.347862
v 7.482738 18.676997 9.777031
v -7.482728 18.676998 9.777031
v -13.826281 16.185601 6.347862
v -18.064907 12.456938 1.215843
v 18.064917 15.175204 -2.525520
v 13.826290 21.208283 -0.565224
v 7.482738 25.239447 0.744591
v -7.482728 25.239447 0.744591
v -13.826281 21.208284 -0.565224
v -18.064907 15.175200 -2.525520
v 18.064917 15.175206 -7.150124
v 13.826290 21.208288 -9.110359
v 7.482738 25.239456 -10.420174
v 0.000002 26.655014 -10.880135
v -7.482728 25.239458 -10.420174
v -13.826281 21.208291 -9.110359
v -18.064907 15.175209 -7.150124
v 18.064917 12.456942 -10.891487
v 13.826286 16.185588 -16.023537
v 7.482738 18.676996 -19.452614
v 0.000001 19.551854 -20.656776
v -7.482728 18.676997 -19.452614
v -13.826281 16.185591 -16.023537
v -18.064907 12.456945 -10.891487
v 18.064917 8.058701 -12.320503
v 13.826288 8.058706 -18.664070
v 7.482737 8.058703 -22.902718
v 0.000000 8.058705 -24.391121
v -7.482729 8.058704 -22.902718
v -13.826283 8.058709 -18.664070
v -18.064907 8.058705 -12.320503
v 18.064915 3.660474 -10.891487
v 13.826288 -0.068190 -16.023476
v 7.482736 -2.559587 -19.452614
v 0.000002 -3.434441 -20.656776
v -7.482730 -2.559586 -19.452614
v -13.826283 -0.068187 -16.023476
v -18.064907 3.660477 -10.891487
v 7.482735 -8.198771 -19.071754
v 18.064915 0.942204 -7.150063
v 13.826286 -5.090880 -6.912697
v 7.482735 -10.843796 -8.222511
v 0.000001 -14.137175 -10.880135
v -7.482730 -10.843794 -8.222511
v -13.826283 -5.090878 -6.912697
v -18.064907 0.942208 -7.150063
v 18.064915 0.942208 4.939049
v 13.826288 -5.090873 6.899284
v 7.482735 -7.879170 -1.238686
v 0.000001 -14.137182 -4.011147
v -7.482730 -7.879169 -1.238686
v -13.826283 -5.090870 6.899284
v -18.064907 0.942212 4.939049
v 18.064915 3.660467 1.215843
v 13.826290 -0.068179 6.347893
v 7.482736 -2.559586 9.777031
v -7.482730 -2.559585 9.777031
v -13.826283 -0.068176 6.347893
v -18.064907 3.660470 1.215843
v 18.064917 8.058707 2.644920
v 13.826288 8.058703 8.988487
v 7.482737 8.058708 13.227104
v -18.064907 8.058710 2.644920
v 16.553324 8.058704 -4.837776
v 15.064915 12.456935 1.215843
v 15.064915 15.175197 -2.525520
v 15.064915 15.175206 -7.150124
v 15.064915 12.456942 -10.891487
v 15.064915 8.058702 -12.320503
v 15.064913 3.660474 -10.891487
v 15.064913 0.942205 -7.150063
v 15.064913 0.942203 -2.525520
v 15.064913 3.660467 1.215843
v 15.064915 8.058707 2.644920
v -15.064907 15.175200 -2.525520
v -15.064907 12.456938 1.215843
v -15.064907 15.175209 -7.150124
v -15.064907 12.456944 -10.891487
v -15.064907 8.058704 -12.320503
v -15.064907 3.660477 -10.891487
v -16.553316 8.058707 -4.837776
v -15.064909 0.942207 -7.150063
v -15.064909 0.942205 -2.525520
v -15.064907 3.660470 1.215843
v -15.064907 8.058710 2.644920
v 0.000002 -9.073641 -22.901436
v -7.482730 -8.198769 -19.071754
v 7.482734 -14.761227 -10.123207
v 0.000001 -16.176792 -13.208656
v -7.482731 -14.761227 -10.123207
v 10.988642 -4.590525 -20.252541
v 7.482735 -7.081930 -23.681648
v -7.482730 -7.081929 -23.681648
v -10.988639 -4.590530 -20.252510
v 13.826285 -9.613224 -11.141731
v 7.482734 -15.366138 -12.451546
v -7.482731 -15.366137 -12.451546
v -13.826283 -9.613222 -11.141731
v 5.782444 20.363341 14.582512
v 0.000005 21.238214 15.786644
v -5.782435 20.363342 14.582512
v -5.782436 9.745053 18.032616
v 5.782444 26.925806 5.550011
v 0.000005 28.341372 6.009972
v -5.782435 26.925798 5.550072
v 5.782441 26.925808 -5.614693
v 0.000002 28.341358 -6.074623
v -5.782438 26.925808 -5.614693
v 5.782441 -10.647238 14.806267
v 0.000001 -16.905235 18.011345
v -5.782438 -10.647238 14.806267
v 5.782442 -0.873241 14.582512
v 0.000003 -1.748099 15.786644
v -5.782437 -0.873240 14.582512
v 5.782443 9.745052 18.032616
v 0.000004 9.745050 19.521019
v 0.000001 -19.365328 8.937798
v 0.000002 -13.159222 -1.882271
v 5.706572 -14.843487 6.917625
v -5.706569 -14.843487 6.917625
v 9.050266 -7.749407 6.766319
v 10.750559 -9.435753 1.960808
v -10.750554 -9.435751 1.960808
v -9.050261 -7.749406 6.766319
v 48.584511 26.248838 16.978691
v 13.826286 -11.063948 -7.510170
v 7.482734 -16.816862 -8.820015
v 0.000001 -20.110249 -11.477669
v -7.482731 -16.816860 -8.820015
v -13.826283 -11.063946 -7.510170
v -48.584496 26.248846 16.978691
v 48.584511 26.248833 22.958672
v 13.826288 -12.393730 2.530968
v 7.482734 -13.852255 -1.836189
v 0.000001 -20.110249 -4.608620
v -7.482731 -13.852253 -1.836189
v -13.826283 -12.393730 2.530968
v -48.584496 26.248840 22.958672
v 18.064915 -10.107861 -7.454994
v 13.826288 -14.483107 -7.217598
v 7.482734 -20.236019 -8.527412
v -7.482731 -20.236019 -8.527412
v -13.826283 -14.483103 -7.217598
v -18.064909 -10.107857 -7.454994
v 18.064917 -10.107864 4.634087
v 13.826288 -15.812872 2.823540
v 7.482734 -17.271397 -1.543617
v -7.482731 -17.271393 -1.543617
v -13.826283 -15.812870 2.823540
v -18.064909 -10.107861 4.634087

f 66 65 4
f 66 4 5
f 15 9 70
f 15 70 71
f 8 14 79
f 8 79 80
f 2 1 6
f 2 6 7
f 115 55 127
f 115 127 128
f 65 64 3
f 65 3 4
f 67 2 7
f 67 7 8
f 17 18 111
f 17 111 110
f 7 6 12
f 7 12 13
f 66 5 103
f 66 103 119
f 4 3 9
f 4 9 10
f 8 7 13
f 8 13 14
f 113 114 121
f 113 121 123
f 5 4 10
f 5 10 11
f 3 64 78
f 3 78 69
f 35 42 84
f 35 84 83
f 14 13 20
f 14 20 21
f 12 6 105
f 12 105 109
f 11 10 16
f 11 16 17
f 9 3 69
f 9 69 70
f 63 67 89
f 63 89 88
f 13 12 19
f 13 19 20
f 6 1 106
f 6 106 105
f 10 9 15
f 10 15 16
f 19 18 25
f 19 25 26
f 17 16 23
f 17 23 24
f 36 29 73
f 36 73 74
f 28 35 83
f 28 83 82
f 20 19 26
f 20 26 27
f 18 17 24
f 18 24 25
f 16 15 22
f 16 22 23
f 21 20 27
f 21 27 28
f 42 50 86
f 42 86 84
f 27 26 33
f 27 33 34
f 25 24 31
f 25 31 32
f 23 22 29
f 23 29 30
f 28 27 34
f 28 34 35
f 26 25 32
f 26 32 33
f 24 23 30
f 24 30 31
f 64 58 77
f 64 77 78
f 32 31 38
f 32 38 39
f 30 29 36
f 30 36 37
f 35 34 41
f 35 41 42
f 33 32 39
f 33 39 40
f 31 30 37
f 31 37 38
f 29 22 72
f 29 72 73
f 21 28 82
f 21 82 81
f 34 33 40
f 34 40 41
f 42 41 49
f 42 49 50
f 39 38 43
f 39 43 90
f 45 46 100
f 45 100 99
f 44 36 74
f 44 74 75
f 50 57 87
f 50 87 86
f 41 40 97
f 41 97 98
f 38 46 92
f 38 92 43
f 37 36 44
f 37 44 45
f 47 46 131
f 47 131 132
f 51 44 75
f 51 75 76
f 57 63 88
f 57 88 87
f 54 55 140
f 54 140 139
f 46 45 130
f 46 130 131
f 53 54 139
f 53 139 138
f 45 44 129
f 45 129 130
f 57 50 135
f 57 135 142
f 14 21 81
f 14 81 79
f 56 55 61
f 56 61 62
f 19 12 109
f 19 109 112
f 52 51 58
f 52 58 59
f 57 56 62
f 57 62 63
f 53 60 116
f 53 116 113
f 53 52 59
f 53 59 60
f 58 51 76
f 58 76 77
f 59 58 64
f 59 64 65
f 63 62 2
f 63 2 67
f 1 61 118
f 1 118 106
f 60 59 65
f 60 65 66
f 22 15 71
f 22 71 72
f 67 8 80
f 67 80 89
f 62 61 1
f 62 1 2
f 61 55 115
f 61 115 118
usemtl 0,85,204
f 78 68 69
f 69 68 70
f 70 68 71
f 71 68 72
f 72 68 73
f 73 68 74
f 74 68 75
f 75 68 76
f 76 68 77
f 77 68 78
f 85 89 80
f 85 80 79
f 85 79 81
f 85 81 82
f 85 82 83
f 85 83 84
f 85 84 86
f 85 86 87
f 85 87 88
f 85 88 89
usemtl 157,192,204
f 91 90 93
f 91 93 94
f 90 43 92
f 90 92 93
f 48 40 91
f 48 91 94
usemtl 0,85,204
f 46 47 93
f 46 93 92
usemtl 157,192,204
f 40 39 90
f 40 90 91
usemtl 0,85,204
f 47 48 94
f 47 94 93
usemtl 157,192,204
f 96 95 99
f 96 99 100
f 98 97 101
f 98 101 102
f 46 38 96
f 46 96 100
f 40 48 101
f 40 101 97
f 48 49 102
f 48 102 101
f 37 45 99
f 37 99 95
f 38 37 95
f 38 95 96
f 49 41 98
f 49 98 102
f 120 119 103
f 120 103 104
f 106 120 104
f 106 104 105
f 104 103 107
f 104 107 108
f 105 104 108
f 105 108 109
f 109 108 111
f 109 111 112
f 108 107 110
f 108 110 111
f 114 113 116
f 114 116 117
f 115 114 117
f 115 117 118
f 118 117 120
f 118 120 106
f 117 116 119
f 117 119 120
f 11 17 110
f 11 110 107
f 60 66 119
f 60 119 116
f 18 19 112
f 18 112 111
f 5 11 107
f 5 107 103
f 122 121 124
f 122 123 121
f 54 53 122
f 114 115 124
f 114 124 121
f 113 123 125
f 55 54 122
f 126 125 123
f 126 123 122
f 122 53 126
f 53 113 125
f 53 125 126
f 128 127 122
f 128 122 124
f 55 122 127
f 124 115 128
f 130 129 143
f 130 143 144
f 133 140 152
f 133 152 146
f 132 131 138
f 132 138 139
f 140 141 153
f 140 153 152
f 136 137 150
f 136 150 149
f 133 132 139
f 133 139 140
f 55 56 141
f 55 141 140
f 48 47 132
f 48 132 133
f 56 57 142
f 56 142 141
f 49 48 133
f 49 133 134
f 50 49 134
f 50 134 135
f 51 52 137
f 51 137 136
f 44 51 136
f 44 136 129
f 52 53 138
f 52 138 137
f 145 144 150
f 145 150 151
f 147 146 152
f 147 152 153
f 144 143 149
f 144 149 150
f 148 147 153
f 148 153 154
f 137 138 151
f 137 151 150
f 129 136 149
f 129 149 143
f 134 133 146
f 134 146 147
f 141 142 154
f 141 154 153
f 131 130 144
f 131 144 145
f 142 135 148
f 142 148 154
f 135 134 147
f 135 147 148
f 138 131 145
f 138 145 151
# 154 vertices
# 0 texture params
# 0 normals
# 304 facets

# 1 groups
