STARTFONT 2.1
FONT -FontForge-ProFontWindows-Book-R-Normal--72-690-75-75-P-358-ISO10646-1
SIZE 69 75 75
FONTBOUNDINGBOX 36 73 0 -18
COMMENT "Generated by fontforge, http://fontforge.sourceforge.net"
STARTPROPERTIES 39
FOUNDRY "FontForge"
FAMILY_NAME "ProFontWindows"
WEIGHT_NAME "Book"
SLANT "R"
SETWIDTH_NAME "Normal"
ADD_STYLE_NAME ""
PIXEL_SIZE 72
POINT_SIZE 690
RESOLUTION_X 75
RESOLUTION_Y 75
SPACING "P"
AVERAGE_WIDTH 358
CHARSET_REGISTRY "ISO10646"
CHARSET_ENCODING "1"
FONTNAME_REGISTRY ""
CHARSET_COLLECTIONS "ASCII ISOLatin1Encoding ISO10646-1"
FONT_NAME "ProFontWindows"
FACE_NAME "ProFontWindows"
FONT_VERSION "ProFontWindows 2.3"
FONT_ASCENT 54
FONT_DESCENT 18
UNDERLINE_POSITION -8
UNDERLINE_THICKNESS 3
X_HEIGHT 29
CAP_HEIGHT 41
RAW_ASCENT 750
RAW_DESCENT 250
NORM_SPACE 36
RELATIVE_WEIGHT 40
RELATIVE_SETWIDTH 50
SUPERSCRIPT_X 0
SUPERSCRIPT_Y 14
SUPERSCRIPT_SIZE 20
SUBSCRIPT_X 0
SUBSCRIPT_Y 4
SUBSCRIPT_SIZE 20
FIGURE_WIDTH 36
AVG_LOWERCASE_WIDTH 360
AVG_UPPERCASE_WIDTH 360
ENDPROPERTIES
CHARS 283
STARTCHAR plus
ENCODING 43
SWIDTH 500 0
DWIDTH 36 0
BBX 30 30 0 6
BITMAP
000FC000
000FC000
000FC000
000FC000
000FC000
000FC000
000FC000
000FC000
000FC000
000FC000
000FC000
000FC000
FFFFFFFC
FFFFFFFC
FFFFFFFC
FFFFFFFC
FFFFFFFC
FFFFFFFC
000FC000
000FC000
000FC000
000FC000
000FC000
000FC000
000FC000
000FC000
000FC000
000FC000
000FC000
000FC000
ENDCHAR
STARTCHAR comma
ENCODING 44
SWIDTH 500 0
DWIDTH 36 0
BBX 14 26 7 -12
BITMAP
0100
07E0
0FF0
1FF8
3FFC
3FFC
3FFC
3FFC
3FFC
1FFC
0FFC
07FC
01FC
00FC
00FC
01FC
03FC
07F8
0FF0
1FE0
3FC0
7F80
FF00
3E00
1C00
0800
ENDCHAR
STARTCHAR hyphen
ENCODING 45
SWIDTH 500 0
DWIDTH 36 0
BBX 18 6 6 18
BITMAP
FFFFC0
FFFFC0
FFFFC0
FFFFC0
FFFFC0
FFFFC0
ENDCHAR
STARTCHAR period
ENCODING 46
SWIDTH 500 0
DWIDTH 36 0
BBX 12 12 9 2
BITMAP
0F80
3FC0
7FE0
7FE0
FFF0
FFF0
FFF0
FFF0
7FE0
7FE0
3FC0
0F80
ENDCHAR
STARTCHAR slash
ENCODING 47
SWIDTH 500 0
DWIDTH 36 0
BBX 34 59 0 -11
BITMAP
0000000400
0000000F00
0000000FC0
0000001FC0
0000001F80
0000003F80
0000003F00
0000007F00
0000007E00
000000FE00
000000FC00
000001FC00
000003F800
000003F800
000007F000
000007F000
00000FE000
00000FE000
00001FC000
00001FC000
00003F8000
00003F8000
00007F0000
00007F0000
0000FE0000
0000FE0000
0001FC0000
0001FC0000
0003F80000
0003F80000
0007F00000
0007E00000
000FE00000
000FC00000
001FC00000
001F800000
003F800000
003F000000
007F000000
007E000000
00FE000000
00FC000000
01FC000000
01F8000000
03F8000000
03F0000000
07F0000000
07E0000000
0FE0000000
1FC0000000
1FC0000000
3F80000000
3F80000000
7F00000000
7F00000000
FE00000000
FE00000000
3C00000000
0C00000000
ENDCHAR
STARTCHAR zero
ENCODING 48
SWIDTH 500 0
DWIDTH 36 0
BBX 30 42 0 0
BITMAP
007FFC00
03FFFF00
07FFFF80
0FFFFFC0
1FFFFFE0
3FFFFFF0
7FC00FF8
7F0003F8
FE0001F8
FE0003FC
FC0007FC
FC000FFC
FC001FFC
FC003FFC
FC007FFC
FC00FFFC
FC01FFFC
FC03FEFC
FC07FCFC
FC0FF8FC
FC1FF0FC
FC3FE0FC
FC7FC0FC
FCFF80FC
FDFF00FC
FFFE00FC
FFFC00FC
FFF800FC
FFF000FC
FFE000FC
FFC000FC
FF8000FC
FF0001FC
FE0001F8
7F0003F8
7FC00FF8
3FFFFFF0
1FFFFFE0
0FFFFFC0
07FFFF80
03FFFF00
00FFF800
ENDCHAR
STARTCHAR one
ENCODING 49
SWIDTH 500 0
DWIDTH 36 0
BBX 30 42 0 0
BITMAP
000FC000
000FC000
001FC000
001FC000
003FC000
00FFC000
1FFFC000
1FFFC000
1FFFC000
1FFFC000
1FFFC000
1FFFC000
000FC000
000FC000
000FC000
000FC000
000FC000
000FC000
000FC000
000FC000
000FC000
000FC000
000FC000
000FC000
000FC000
000FC000
000FC000
000FC000
000FC000
000FC000
000FC000
000FC000
000FC000
000FC000
000FC000
000FC000
FFFFFFFC
FFFFFFFC
FFFFFFFC
FFFFFFFC
FFFFFFFC
FFFFFFFC
ENDCHAR
STARTCHAR two
ENCODING 50
SWIDTH 500 0
DWIDTH 36 0
BBX 30 42 0 0
BITMAP
007FFC00
03FFFF00
07FFFF80
0FFFFFC0
1FFFFFE0
3FFFFFF0
7FC00FF8
7F0003F8
FE0001F8
FE0001FC
FC0000FC
FC0000FC
000000FC
000000FC
000001FC
000003F8
000007F8
00000FF8
00001FF0
00003FE0
00007FC0
0000FF80
0001FF00
0003FE00
0007FC00
000FF800
001FF000
003FE000
007FC000
00FF8000
01FF0000
03FE0000
07FC0000
0FF80000
1FF00000
3FE00000
7FFFFFFC
FFFFFFFC
FFFFFFFC
FFFFFFFC
FFFFFFFC
FFFFFFFC
ENDCHAR
STARTCHAR three
ENCODING 51
SWIDTH 500 0
DWIDTH 36 0
BBX 30 42 0 0
BITMAP
007FFC00
03FFFF00
07FFFF80
0FFFFFC0
1FFFFFE0
3FFFFFF0
7FC00FF8
7F0003F8
FE0001F8
FE0001FC
FC0000FC
FC0000FC
000000FC
000000FC
000001FC
000001F8
000003F8
00000FF0
000FFFF0
000FFFE0
000FFFC0
000FFFC0
000FFFE0
000FFFF0
00000FF0
000003F8
000001F8
000001FC
000000FC
000000FC
FC0000FC
FC0000FC
FE0001FC
FE0001FC
7F0003F8
7FC00FF8
3FFFFFF0
1FFFFFE0
1FFFFFC0
07FFFF80
03FFFF00
00FFFC00
ENDCHAR
STARTCHAR four
ENCODING 52
SWIDTH 500 0
DWIDTH 36 0
BBX 30 42 0 0
BITMAP
00001F00
00003F00
00007F00
0000FF00
0001FF00
0003FF00
0007FF00
000FFF00
001FFF00
003FFF00
007FFF00
00FFBF00
01FF3F00
03FE3F00
07FC3F00
0FF83F00
1FF03F00
3FE03F00
7FC03F00
FF803F00
FF003F00
FE003F00
FC003F00
FC003F00
FFFFFFFC
FFFFFFFC
FFFFFFFC
FFFFFFFC
FFFFFFFC
FFFFFFFC
00003F00
00003F00
00003F00
00003F00
00003F00
00003F00
000FFFFC
000FFFFC
000FFFFC
000FFFFC
000FFFFC
000FFFFC
ENDCHAR
STARTCHAR five
ENCODING 53
SWIDTH 500 0
DWIDTH 36 0
BBX 30 42 0 0
BITMAP
FFFFFFFC
FFFFFFFC
FFFFFFFC
FFFFFFFC
FFFFFFFC
FFFFFFFC
FC000000
FC000000
FC000000
FC000000
FC000000
FC000000
FFFFFC00
FFFFFF00
FFFFFF80
FFFFFFC0
FFFFFFE0
FFFFFFF0
00000FF8
000003F8
000001F8
000001FC
000000FC
000000FC
000000FC
000000FC
000000FC
000000FC
000000FC
000000FC
FC0000FC
FC0000FC
FE0001FC
FE0001F8
7F0003F8
7FC00FF8
3FFFFFF0
1FFFFFE0
0FFFFFC0
07FFFF80
03FFFF00
00FFF800
ENDCHAR
STARTCHAR six
ENCODING 54
SWIDTH 500 0
DWIDTH 36 0
BBX 30 42 0 0
BITMAP
007FFF00
03FFFF00
07FFFF00
0FFFFF00
1FFFFF00
3FFFFF00
7FC00000
7F000000
FE000000
FE000000
FC000000
FC000000
FFFFFC00
FFFFFF00
FFFFFF80
FFFFFFC0
FFFFFFE0
FFFFFFF0
FC000FF8
FC0003F8
FC0001F8
FC0001FC
FC0000FC
FC0000FC
FC0000FC
FC0000FC
FC0000FC
FC0000FC
FC0000FC
FC0000FC
FC0000FC
FC0000FC
FE0001FC
FE0001F8
7F0003F8
7FC00FF8
3FFFFFF0
1FFFFFE0
0FFFFFC0
07FFFF80
03FFFF00
00FFF800
ENDCHAR
STARTCHAR seven
ENCODING 55
SWIDTH 500 0
DWIDTH 36 0
BBX 30 42 0 0
BITMAP
FFFFFFFC
FFFFFFFC
FFFFFFFC
FFFFFFFC
FFFFFFFC
FFFFFFFC
000000FC
000000FC
000000FC
000000FC
000000FC
000000FC
000000FC
000000FC
000001FC
000003FC
000007FC
00000FF8
00001FF0
00003FE0
00007FC0
0000FF80
0001FF00
0003FE00
0007FC00
000FF800
000FF000
000FE000
000FC000
000FC000
000FC000
000FC000
000FC000
000FC000
000FC000
000FC000
000FC000
000FC000
000FC000
000FC000
000FC000
000FC000
ENDCHAR
STARTCHAR eight
ENCODING 56
SWIDTH 500 0
DWIDTH 36 0
BBX 30 42 0 0
BITMAP
007FFC00
03FFFF00
07FFFF80
0FFFFFC0
1FFFFFE0
3FFFFFF0
7FC00FF8
7F0003F8
FE0001F8
FE0001FC
FC0000FC
FC0000FC
FC0000FC
FC0000FC
FE0001FC
7E0001F8
7F0003F8
3FC00FF0
3FFFFFF0
1FFFFFE0
0FFFFFC0
0FFFFFC0
1FFFFFE0
3FFFFFF0
3FC00FF0
7F0003F8
7E0001F8
FE0001FC
FC0000FC
FC0000FC
FC0000FC
FC0000FC
FE0001FC
FE0001FC
7F0003F8
7FC00FF8
3FFFFFF0
1FFFFFE0
1FFFFFC0
07FFFF80
03FFFF00
00FFFC00
ENDCHAR
STARTCHAR nine
ENCODING 57
SWIDTH 500 0
DWIDTH 36 0
BBX 30 42 0 0
BITMAP
007FFC00
03FFFF00
07FFFF80
0FFFFFC0
1FFFFFE0
3FFFFFF0
7FC00FF8
7F0003F8
FE0001F8
FE0001FC
FC0000FC
FC0000FC
FC0000FC
FC0000FC
FC0000FC
FC0000FC
FC0000FC
FC0000FC
FC0000FC
FC0000FC
FE0000FC
FE0000FC
7F0000FC
7FC000FC
3FFFFFFC
1FFFFFFC
0FFFFFFC
07FFFFFC
03FFFFFC
00FFFFFC
000000FC
000000FC
000001FC
000001F8
000003F8
00000FF8
03FFFFF0
03FFFFE0
03FFFFC0
03FFFF80
03FFFF00
03FFF800
ENDCHAR
STARTCHAR colon
ENCODING 58
SWIDTH 500 0
DWIDTH 36 0
BBX 12 31 9 1
BITMAP
0400
1F80
3FC0
7FE0
FFF0
FFF0
FFF0
FFF0
FFF0
7FE0
3FC0
1F80
0400
0000
0000
0000
0000
0000
0400
1F80
3FC0
7FE0
FFF0
FFF0
FFF0
FFF0
FFF0
7FE0
3FC0
1F80
0400
ENDCHAR
STARTCHAR semicolon
ENCODING 59
SWIDTH 500 0
DWIDTH 36 0
BBX 14 44 7 -12
BITMAP
0100
07E0
0FF0
1FF8
3FFC
3FFC
3FFC
3FFC
3FFC
1FF8
0FF0
07E0
0100
0000
0000
0000
0000
0000
0100
07E0
0FF0
1FF8
3FFC
3FFC
3FFC
3FFC
3FFC
1FFC
0FFC
07FC
01FC
00FC
00FC
01FC
03FC
07F8
0FF0
1FE0
3FC0
7F80
FF00
3E00
1C00
0800
ENDCHAR
STARTCHAR less
ENCODING 60
SWIDTH 500 0
DWIDTH 36 0
BBX 27 44 5 -1
BITMAP
00000600
00000F00
00001F80
00003FC0
00007FC0
0000FF80
0001FF00
0003FE00
0007FC00
000FF800
001FF000
003FE000
007FC000
00FF8000
01FF0000
03FE0000
07FC0000
0FF80000
1FF00000
3FE00000
7FC00000
FF800000
FF800000
7FC00000
3FE00000
1FF00000
0FF80000
07FC0000
01FE0000
00FF0000
007F8000
003FC000
001FE000
000FF000
0007F800
0003FC00
0001FE00
0000FF00
00007F80
00003FC0
00001FE0
00000F80
00000700
00000200
ENDCHAR
STARTCHAR equal
ENCODING 61
SWIDTH 500 0
DWIDTH 36 0
BBX 30 18 0 12
BITMAP
FFFFFFFC
FFFFFFFC
FFFFFFFC
FFFFFFFC
FFFFFFFC
FFFFFFFC
00000000
00000000
00000000
00000000
00000000
00000000
FFFFFFFC
FFFFFFFC
FFFFFFFC
FFFFFFFC
FFFFFFFC
FFFFFFFC
ENDCHAR
STARTCHAR greater
ENCODING 62
SWIDTH 500 0
DWIDTH 36 0
BBX 27 45 4 -1
BITMAP
08000000
1C000000
3E000000
7F000000
FF800000
3FC00000
1FE00000
0FF00000
07F80000
03FC0000
01FE0000
00FF0000
007F8000
003FC000
001FE000
000FF000
0007F800
0003FC00
0001FE00
0000FF00
00007F80
00003FC0
00001FE0
00003FC0
00007FC0
0000FF80
0001FF00
0003FE00
0007FC00
000FF800
001FF000
003FE000
007FC000
00FF8000
01FF0000
03FE0000
07FC0000
0FF80000
1FF00000
3FE00000
7FC00000
7F800000
3F000000
1E000000
0C000000
ENDCHAR
STARTCHAR question
ENCODING 63
SWIDTH 500 0
DWIDTH 36 0
BBX 30 42 0 0
BITMAP
007FFC00
03FFFF00
07FFFF80
0FFFFFC0
1FFFFFE0
3FFFFFF0
7FC00FF8
7F0003F8
FE0001F8
FE0001FC
FC0000FC
FC0000FC
000000FC
000000FC
000001FC
000003F8
000007F8
00000FF8
00001FF0
00003FE0
00007FC0
0000FF80
0001FF00
0003FE00
0007FC00
000FF800
000FF000
000FE000
000FC000
000F8000
00000000
00000000
00000000
00000000
00000000
00000000
00078000
000FC000
000FC000
000FC000
000FC000
00078000
ENDCHAR
STARTCHAR at
ENCODING 64
SWIDTH 500 0
DWIDTH 36 0
BBX 30 42 0 0
BITMAP
007FFC00
03FFFF00
07FFFF80
0FFFFFC0
1FFFFFE0
3FFFFFF0
7FC00FF8
7F0003F8
FE0001F8
FE0001FC
FC0000FC
FC0000FC
FC00FFFC
FC03FFFC
FC07FFFC
FC07FFFC
FC0FFFFC
FC0FFFFC
FC0FC0FC
FC0FC0FC
FC0FC0FC
FC0FC0FC
FC0FC0FC
FC0FC0FC
FC0FFFFC
FC0FFFFC
FC07FFF8
FC07FFF8
FC03FFF0
FC00FFC0
FC000000
FC000000
FE000000
FE000000
7F000000
7FC00000
3FFFFFFC
1FFFFFFC
0FFFFFFC
07FFFFFC
03FFFFFC
00FFFFFC
ENDCHAR
STARTCHAR A
ENCODING 65
SWIDTH 500 0
DWIDTH 36 0
BBX 30 42 0 0
BITMAP
001FE000
001FF000
003FF000
003FF800
007FF800
007FFC00
00FFFC00
00FCFE00
01FCFE00
01F87F00
03F87F00
07F03F80
07F03F80
0FE01FC0
0FE01FC0
1FC00FE0
1FC00FE0
3F8007F0
3F8007F0
7F0003F8
7F0003F8
FE0001FC
FE0001FC
FC0000FC
FFFFFFFC
FFFFFFFC
FFFFFFFC
FFFFFFFC
FFFFFFFC
FFFFFFFC
FC0000FC
FC0000FC
FC0000FC
FC0000FC
FC0000FC
FC0000FC
FC0000FC
FC0000FC
FC0000FC
FC0000FC
FC0000FC
FC0000FC
ENDCHAR
STARTCHAR B
ENCODING 66
SWIDTH 500 0
DWIDTH 36 0
BBX 30 42 0 0
BITMAP
FFFFFC00
FFFFFF00
FFFFFF80
FFFFFFC0
FFFFFFE0
FFFFFFF0
FC000FF8
FC0003F8
FC0001F8
FC0001FC
FC0000FC
FC0000FC
FC0000FC
FC0000FC
FC0001FC
FC0001F8
FC0003F8
FC000FF0
FFFFFFF0
FFFFFFE0
FFFFFFC0
FFFFFFC0
FFFFFFE0
FFFFFFF0
FC000FF0
FC0003F8
FC0001F8
FC0001FC
FC0000FC
FC0000FC
FC0000FC
FC0000FC
FC0001FC
FC0001FC
FC0003F8
FC000FF8
FFFFFFF0
FFFFFFE0
FFFFFFC0
FFFFFF80
FFFFFF00
FFFFFC00
ENDCHAR
STARTCHAR C
ENCODING 67
SWIDTH 500 0
DWIDTH 36 0
BBX 30 42 0 0
BITMAP
007FFC00
03FFFF00
07FFFF80
0FFFFFC0
1FFFFFE0
3FFFFFF0
7FC00FF8
7F0003F8
FE0001F8
FE0001FC
FC0000FC
FC0000FC
FC000000
FC000000
FC000000
FC000000
FC000000
FC000000
FC000000
FC000000
FC000000
FC000000
FC000000
FC000000
FC000000
FC000000
FC000000
FC000000
FC000000
FC000000
FC0000FC
FC0000FC
FE0001FC
FE0001F8
7F0003F8
7FC00FF8
3FFFFFF0
1FFFFFE0
0FFFFFC0
07FFFF80
03FFFF00
00FFF800
ENDCHAR
STARTCHAR D
ENCODING 68
SWIDTH 500 0
DWIDTH 36 0
BBX 30 42 0 0
BITMAP
FFFFFC00
FFFFFF00
FFFFFF80
FFFFFFC0
FFFFFFE0
FFFFFFF0
FC000FF8
FC0003F8
FC0001F8
FC0001FC
FC0000FC
FC0000FC
FC0000FC
FC0000FC
FC0000FC
FC0000FC
FC0000FC
FC0000FC
FC0000FC
FC0000FC
FC0000FC
FC0000FC
FC0000FC
FC0000FC
FC0000FC
FC0000FC
FC0000FC
FC0000FC
FC0000FC
FC0000FC
FC0000FC
FC0000FC
FC0001FC
FC0001F8
FC0003F8
FC000FF8
FFFFFFF0
FFFFFFE0
FFFFFFC0
FFFFFF80
FFFFFF00
FFFFF800
ENDCHAR
STARTCHAR E
ENCODING 69
SWIDTH 500 0
DWIDTH 36 0
BBX 30 42 0 0
BITMAP
FFFFFFFC
FFFFFFFC
FFFFFFFC
FFFFFFFC
FFFFFFFC
FFFFFFFC
FC000000
FC000000
FC000000
FC000000
FC000000
FC000000
FC000000
FC000000
FC000000
FC000000
FC000000
FC000000
FFFFFF00
FFFFFF00
FFFFFF00
FFFFFF00
FFFFFF00
FFFFFF00
FC000000
FC000000
FC000000
FC000000
FC000000
FC000000
FC000000
FC000000
FC000000
FC000000
FC000000
FC000000
FFFFFFFC
FFFFFFFC
FFFFFFFC
FFFFFFFC
FFFFFFFC
FFFFFFFC
ENDCHAR
STARTCHAR F
ENCODING 70
SWIDTH 500 0
DWIDTH 36 0
BBX 30 42 0 0
BITMAP
FFFFFFFC
FFFFFFFC
FFFFFFFC
FFFFFFFC
FFFFFFFC
FFFFFFFC
FC000000
FC000000
FC000000
FC000000
FC000000
FC000000
FC000000
FC000000
FC000000
FC000000
FC000000
FC000000
FFFFFF00
FFFFFF00
FFFFFF00
FFFFFF00
FFFFFF00
FFFFFF00
FC000000
FC000000
FC000000
FC000000
FC000000
FC000000
FC000000
FC000000
FC000000
FC000000
FC000000
FC000000
FC000000
FC000000
FC000000
FC000000
FC000000
FC000000
ENDCHAR
STARTCHAR G
ENCODING 71
SWIDTH 500 0
DWIDTH 36 0
BBX 30 42 0 0
BITMAP
007FFC00
03FFFF00
07FFFF80
0FFFFFC0
1FFFFFE0
3FFFFFF0
7FC00FF8
7F0003F8
FE0001F8
FE0001FC
FC0000FC
FC0000FC
FC000000
FC000000
FC000000
FC000000
FC000000
FC000000
FC003FFC
FC003FFC
FC003FFC
FC003FFC
FC003FFC
FC003FFC
FC0000FC
FC0000FC
FC0000FC
FC0000FC
FC0000FC
FC0000FC
FC0000FC
FC0000FC
FE0001FC
FE0001F8
7F0003F8
7FC00FF8
3FFFFFF0
1FFFFFE0
0FFFFFC0
07FFFF80
03FFFF00
00FFF800
ENDCHAR
STARTCHAR H
ENCODING 72
SWIDTH 500 0
DWIDTH 36 0
BBX 30 42 0 0
BITMAP
FC0000FC
FC0000FC
FC0000FC
FC0000FC
FC0000FC
FC0000FC
FC0000FC
FC0000FC
FC0000FC
FC0000FC
FC0000FC
FC0000FC
FC0000FC
FC0000FC
FC0000FC
FC0000FC
FC0000FC
FC0000FC
FFFFFFFC
FFFFFFFC
FFFFFFFC
FFFFFFFC
FFFFFFFC
FFFFFFFC
FC0000FC
FC0000FC
FC0000FC
FC0000FC
FC0000FC
FC0000FC
FC0000FC
FC0000FC
FC0000FC
FC0000FC
FC0000FC
FC0000FC
FC0000FC
FC0000FC
FC0000FC
FC0000FC
FC0000FC
FC0000FC
ENDCHAR
STARTCHAR I
ENCODING 73
SWIDTH 500 0
DWIDTH 36 0
BBX 30 42 0 0
BITMAP
FFFFFFFC
FFFFFFFC
FFFFFFFC
FFFFFFFC
FFFFFFFC
FFFFFFFC
000FC000
000FC000
000FC000
000FC000
000FC000
000FC000
000FC000
000FC000
000FC000
000FC000
000FC000
000FC000
000FC000
000FC000
000FC000
000FC000
000FC000
000FC000
000FC000
000FC000
000FC000
000FC000
000FC000
000FC000
000FC000
000FC000
000FC000
000FC000
000FC000
000FC000
FFFFFFFC
FFFFFFFC
FFFFFFFC
FFFFFFFC
FFFFFFFC
FFFFFFFC
ENDCHAR
STARTCHAR J
ENCODING 74
SWIDTH 500 0
DWIDTH 36 0
BBX 30 42 0 0
BITMAP
000000FC
000000FC
000000FC
000000FC
000000FC
000000FC
000000FC
000000FC
000000FC
000000FC
000000FC
000000FC
000000FC
000000FC
000000FC
000000FC
000000FC
000000FC
000000FC
000000FC
000000FC
000000FC
000000FC
000000FC
FC0000FC
FC0000FC
FC0000FC
FC0000FC
FC0000FC
FC0000FC
FC0000FC
FC0000FC
FE0001FC
FE0001FC
7F0003F8
7FC00FF8
3FFFFFF0
1FFFFFE0
0FFFFFC0
07FFFF80
03FFFF00
00FFF800
ENDCHAR
STARTCHAR K
ENCODING 75
SWIDTH 500 0
DWIDTH 36 0
BBX 30 42 0 0
BITMAP
FC0001FC
FC0003FC
FC0007FC
FC000FF8
FC001FF0
FC003FE0
FC007FC0
FC00FF80
FC01FF00
FC03FE00
FC07FC00
FC0FF800
FC1FF000
FC3FE000
FC7FC000
FCFF8000
FDFF0000
FFFE0000
FFFC0000
FFF80000
FFF00000
FFF00000
FFF80000
FFFC0000
FFFE0000
FDFF0000
FCFF8000
FC7FC000
FC3FE000
FC1FF000
FC0FF800
FC07FC00
FC03FE00
FC01FF00
FC00FF80
FC007FC0
FC003FE0
FC001FF0
FC000FF8
FC0007FC
FC0003FC
FC0001FC
ENDCHAR
STARTCHAR L
ENCODING 76
SWIDTH 500 0
DWIDTH 36 0
BBX 30 42 0 0
BITMAP
FC000000
FC000000
FC000000
FC000000
FC000000
FC000000
FC000000
FC000000
FC000000
FC000000
FC000000
FC000000
FC000000
FC000000
FC000000
FC000000
FC000000
FC000000
FC000000
FC000000
FC000000
FC000000
FC000000
FC000000
FC000000
FC000000
FC000000
FC000000
FC000000
FC000000
FC000000
FC000000
FC000000
FC000000
FC000000
FC000000
FFFFFFFC
FFFFFFFC
FFFFFFFC
FFFFFFFC
FFFFFFFC
FFFFFFFC
ENDCHAR
STARTCHAR M
ENCODING 77
SWIDTH 500 0
DWIDTH 36 0
BBX 30 42 0 0
BITMAP
F800007C
FC0000FC
FE0001FC
FF0003FC
FF8007FC
FFC00FFC
FFE01FFC
FFF03FFC
FFF87FFC
FFFCFFFC
FFFFFFFC
FDFFFEFC
FCFFFCFC
FC7FF8FC
FC3FF0FC
FC1FE0FC
FC0FC0FC
FC0FC0FC
FC0FC0FC
FC0FC0FC
FC0FC0FC
FC0FC0FC
FC0FC0FC
FC0FC0FC
FC0000FC
FC0000FC
FC0000FC
FC0000FC
FC0000FC
FC0000FC
FC0000FC
FC0000FC
FC0000FC
FC0000FC
FC0000FC
FC0000FC
FC0000FC
FC0000FC
FC0000FC
FC0000FC
FC0000FC
FC0000FC
ENDCHAR
STARTCHAR N
ENCODING 78
SWIDTH 500 0
DWIDTH 36 0
BBX 30 42 0 0
BITMAP
F80000FC
FC0000FC
FE0000FC
FF0000FC
FF8000FC
FFC000FC
FFE000FC
FFF000FC
FFF800FC
FFFC00FC
FFFE00FC
FDFF00FC
FCFF80FC
FC7FC0FC
FC3FE0FC
FC1FF0FC
FC0FF8FC
FC07FCFC
FC03FEFC
FC01FFFC
FC00FFFC
FC007FFC
FC003FFC
FC001FFC
FC000FFC
FC0007FC
FC0003FC
FC0001FC
FC0000FC
FC0000FC
FC0000FC
FC0000FC
FC0000FC
FC0000FC
FC0000FC
FC0000FC
FC0000FC
FC0000FC
FC0000FC
FC0000FC
FC0000FC
FC0000FC
ENDCHAR
STARTCHAR O
ENCODING 79
SWIDTH 500 0
DWIDTH 36 0
BBX 30 42 0 0
BITMAP
007FFC00
03FFFF00
07FFFF80
0FFFFFC0
1FFFFFE0
3FFFFFF0
7FC00FF8
7F0003F8
FE0001F8
FE0001FC
FC0000FC
FC0000FC
FC0000FC
FC0000FC
FC0000FC
FC0000FC
FC0000FC
FC0000FC
FC0000FC
FC0000FC
FC0000FC
FC0000FC
FC0000FC
FC0000FC
FC0000FC
FC0000FC
FC0000FC
FC0000FC
FC0000FC
FC0000FC
FC0000FC
FC0000FC
FE0001FC
FE0001F8
7F0003F8
7FC00FF8
3FFFFFF0
1FFFFFE0
0FFFFFC0
07FFFF80
03FFFF00
00FFF800
ENDCHAR
STARTCHAR P
ENCODING 80
SWIDTH 500 0
DWIDTH 36 0
BBX 30 42 0 0
BITMAP
FFFFFC00
FFFFFF00
FFFFFF80
FFFFFFC0
FFFFFFE0
FFFFFFF0
FC000FF8
FC0003F8
FC0001F8
FC0001FC
FC0000FC
FC0000FC
FC0000FC
FC0000FC
FC0001FC
FC0001F8
FC0003F8
FC000FF8
FFFFFFF0
FFFFFFE0
FFFFFFC0
FFFFFF80
FFFFFF00
FFFFF800
FC000000
FC000000
FC000000
FC000000
FC000000
FC000000
FC000000
FC000000
FC000000
FC000000
FC000000
FC000000
FC000000
FC000000
FC000000
FC000000
FC000000
FC000000
ENDCHAR
STARTCHAR Q
ENCODING 81
SWIDTH 500 0
DWIDTH 36 0
BBX 31 49 0 -7
BITMAP
007FFC00
03FFFF00
07FFFF80
0FFFFFC0
1FFFFFE0
3FFFFFF0
7FC00FF8
7F0003F8
FE0001F8
FE0001FC
FC0000FC
FC0000FC
FC0000FC
FC0000FC
FC0000FC
FC0000FC
FC0000FC
FC0000FC
FC0000FC
FC0000FC
FC0000FC
FC0000FC
FC0000FC
FC0000FC
FC0000FC
FC0000FC
FC0000FC
FC0000FC
FC0000FC
FC0100FC
FC0180FC
FC03C0FC
FE0FE1FC
FE1FF1FC
7F0FFBF8
7F87FFF8
3FFFFFF0
3FFFFFF0
1FFFFFE0
0FFFFFC0
03FFFFC0
01FFFFE0
00000FF0
000007FC
000003FE
000001FC
000000F8
00000070
00000020
ENDCHAR
STARTCHAR R
ENCODING 82
SWIDTH 500 0
DWIDTH 36 0
BBX 30 42 0 0
BITMAP
FFFFFC00
FFFFFF00
FFFFFF80
FFFFFFC0
FFFFFFE0
FFFFFFF0
FC000FF8
FC0003F8
FC0001F8
FC0001FC
FC0000FC
FC0000FC
FC0000FC
FC0000FC
FC0001FC
FC0001F8
FC0003F8
FC000FF0
FFFFFFF0
FFFFFFE0
FFFFFFC0
FFFFFFC0
FFFFFFE0
FFFFFFF0
FC000FF0
FC0003F8
FC0001F8
FC0001FC
FC0000FC
FC0000FC
FC0000FC
FC0000FC
FC0000FC
FC0000FC
FC0000FC
FC0000FC
FC0000FC
FC0000FC
FC0000FC
FC0000FC
FC0000FC
FC0000FC
ENDCHAR
STARTCHAR S
ENCODING 83
SWIDTH 500 0
DWIDTH 36 0
BBX 30 42 0 0
BITMAP
007FFC00
03FFFF00
07FFFF80
0FFFFFC0
1FFFFFE0
3FFFFFF0
7FC00FF8
7F0003F8
FE0001F8
FE0001FC
FC0000FC
FC0000FC
FC000000
FC000000
FE000000
FE000000
7F000000
7FC00000
3FFFFC00
1FFFFF00
0FFFFF80
07FFFFC0
03FFFFE0
00FFFFF0
00000FF8
000003F8
000001F8
000001FC
000000FC
000000FC
FC0000FC
FC0000FC
FE0001FC
FE0001F8
7F0003F8
7FC00FF8
3FFFFFF0
1FFFFFE0
0FFFFFC0
07FFFF80
03FFFF00
00FFF800
ENDCHAR
STARTCHAR T
ENCODING 84
SWIDTH 500 0
DWIDTH 36 0
BBX 30 42 0 0
BITMAP
FFFFFFFC
FFFFFFFC
FFFFFFFC
FFFFFFFC
FFFFFFFC
FFFFFFFC
000FC000
000FC000
000FC000
000FC000
000FC000
000FC000
000FC000
000FC000
000FC000
000FC000
000FC000
000FC000
000FC000
000FC000
000FC000
000FC000
000FC000
000FC000
000FC000
000FC000
000FC000
000FC000
000FC000
000FC000
000FC000
000FC000
000FC000
000FC000
000FC000
000FC000
000FC000
000FC000
000FC000
000FC000
000FC000
000FC000
ENDCHAR
STARTCHAR U
ENCODING 85
SWIDTH 500 0
DWIDTH 36 0
BBX 30 42 0 0
BITMAP
FC0000FC
FC0000FC
FC0000FC
FC0000FC
FC0000FC
FC0000FC
FC0000FC
FC0000FC
FC0000FC
FC0000FC
FC0000FC
FC0000FC
FC0000FC
FC0000FC
FC0000FC
FC0000FC
FC0000FC
FC0000FC
FC0000FC
FC0000FC
FC0000FC
FC0000FC
FC0000FC
FC0000FC
FC0000FC
FC0000FC
FC0000FC
FC0000FC
FC0000FC
FC0000FC
FC0000FC
FC0000FC
FE0001FC
FE0001FC
7F0003F8
7FC00FF8
3FFFFFF0
1FFFFFE0
0FFFFFC0
07FFFF80
03FFFF00
00FFF800
ENDCHAR
STARTCHAR V
ENCODING 86
SWIDTH 500 0
DWIDTH 36 0
BBX 30 42 0 0
BITMAP
FC0000FC
FC0000FC
FC0000FC
FC0000FC
FC0000FC
FC0000FC
FC0000FC
FC0000FC
FC0000FC
FC0000FC
FC0000FC
FC0001FC
FE0001FC
7E0003F8
7F0003F8
3F0007F0
3F8007F0
1F800FE0
1FC00FE0
0FC01FC0
0FE01FC0
07E03F80
07F03F80
03F07F00
03F87F00
01F8FE00
01FCFE00
00FFFC00
00FFFC00
007FF800
007FF800
003FF000
003FF000
001FE000
001FE000
000FC000
000FC000
00078000
00078000
00030000
00030000
00020000
ENDCHAR
STARTCHAR W
ENCODING 87
SWIDTH 500 0
DWIDTH 36 0
BBX 30 42 0 0
BITMAP
FC0000FC
FC0000FC
FC0000FC
FC0000FC
FC0000FC
FC0000FC
FC0000FC
FC0000FC
FC0000FC
FC0000FC
FC0000FC
FC0000FC
FC0000FC
FC0000FC
FC0000FC
FC0000FC
FC0000FC
FC0000FC
FC0FC0FC
FC0FC0FC
FC0FC0FC
FC0FC0FC
FC0FC0FC
FC0FC0FC
FC0FC0FC
FC0FC0FC
FC1FE0FC
FC3FF0FC
FC7FF8FC
FCFFFCFC
FDFFFEFC
FFFFFFFC
FFFCFFFC
FFF87FFC
FFF03FFC
FFE01FFC
FFC00FFC
FF8007FC
FF0003FC
FE0001FC
FC0000FC
F800007C
ENDCHAR
STARTCHAR X
ENCODING 88
SWIDTH 500 0
DWIDTH 36 0
BBX 30 42 0 0
BITMAP
FC0000FC
FC0000FC
FC0000FC
FC0000FC
FC0000FC
FC0000FC
FC0000FC
FC0000FC
FE0001FC
FF0003FC
FF8007FC
7FC00FF8
3FE01FF0
1FF03FE0
0FF87FC0
07FCFF80
03FFFF00
01FFFE00
00FFFC00
007FF800
003FF000
003FF000
007FF800
00FFFC00
01FFFE00
03FFFF00
07FCFF80
0FF87FC0
1FF03FE0
3FE01FF0
7FC00FF8
FF8007FC
FF0003FC
FE0001FC
FC0000FC
FC0000FC
FC0000FC
FC0000FC
FC0000FC
FC0000FC
FC0000FC
FC0000FC
ENDCHAR
STARTCHAR Y
ENCODING 89
SWIDTH 500 0
DWIDTH 36 0
BBX 30 42 0 0
BITMAP
FC0000FC
FC0000FC
FC0000FC
FC0000FC
FC0000FC
FC0000FC
FC0000FC
FC0000FC
FC0000FC
FC0000FC
FC0000FC
FC0000FC
FC0000FC
FC0000FC
FE0001FC
FF0003FC
FF8007FC
7FC00FF8
3FE01FF0
1FF03FE0
0FF87FC0
07FCFF80
03FFFF00
01FFFE00
00FFFC00
007FF800
003FF000
001FE000
000FC000
000FC000
000FC000
000FC000
000FC000
000FC000
000FC000
000FC000
000FC000
000FC000
000FC000
000FC000
000FC000
000FC000
ENDCHAR
STARTCHAR Z
ENCODING 90
SWIDTH 500 0
DWIDTH 36 0
BBX 30 42 0 0
BITMAP
FFFFFFFC
FFFFFFFC
FFFFFFFC
FFFFFFFC
FFFFFFFC
FFFFFFFC
000000FC
000000FC
000001FC
000003FC
000007F8
00000FF0
00001FE0
00003FC0
00007F80
0000FF00
0001FE00
0003FC00
0007F800
000FF000
001FE000
003FC000
007F8000
00FF0000
01FE0000
03FC0000
07F80000
0FF00000
1FE00000
3FC00000
7F800000
FF000000
FE000000
FC000000
FC000000
FC000000
FFFFFFFC
FFFFFFFC
FFFFFFFC
FFFFFFFC
FFFFFFFC
FFFFFFFC
ENDCHAR
STARTCHAR bracketleft
ENCODING 91
SWIDTH 500 0
DWIDTH 36 0
BBX 12 54 12 -6
BITMAP
FFF0
FFF0
FFF0
FFF0
FFF0
FFF0
FC00
FC00
FC00
FC00
FC00
FC00
FC00
FC00
FC00
FC00
FC00
FC00
FC00
FC00
FC00
FC00
FC00
FC00
FC00
FC00
FC00
FC00
FC00
FC00
FC00
FC00
FC00
FC00
FC00
FC00
FC00
FC00
FC00
FC00
FC00
FC00
FC00
FC00
FC00
FC00
FC00
FC00
FFF0
FFF0
FFF0
FFF0
FFF0
FFF0
ENDCHAR
STARTCHAR backslash
ENCODING 92
SWIDTH 500 0
DWIDTH 36 0
BBX 34 59 2 -11
BITMAP
0C00000000
3C00000000
7E00000000
FE00000000
7F00000000
3F00000000
3F80000000
1F80000000
1FC0000000
0FC0000000
0FE0000000
07E0000000
07F0000000
03F0000000
03F8000000
01F8000000
01FC000000
00FC000000
00FE000000
007E000000
007F000000
003F000000
003F800000
001F800000
001FC00000
000FC00000
000FE00000
0007E00000
0007F00000
0003F00000
0003F80000
0001F80000
0001FC0000
0000FC0000
0000FE0000
00007E0000
00007F0000
00003F0000
00001F8000
00001F8000
00000FC000
00000FC000
000007E000
000007F000
000003F000
000003F800
000001F800
000001FC00
000000FC00
000000FE00
0000007E00
0000007F00
0000003F00
0000003F80
0000001F80
0000001FC0
0000000FC0
0000000F00
0000000400
ENDCHAR
STARTCHAR bracketright
ENCODING 93
SWIDTH 500 0
DWIDTH 36 0
BBX 12 54 6 -6
BITMAP
FFF0
FFF0
FFF0
FFF0
FFF0
FFF0
03F0
03F0
03F0
03F0
03F0
03F0
03F0
03F0
03F0
03F0
03F0
03F0
03F0
03F0
03F0
03F0
03F0
03F0
03F0
03F0
03F0
03F0
03F0
03F0
03F0
03F0
03F0
03F0
03F0
03F0
03F0
03F0
03F0
03F0
03F0
03F0
03F0
03F0
03F0
03F0
03F0
03F0
FFF0
FFF0
FFF0
FFF0
FFF0
FFF0
ENDCHAR
STARTCHAR asciicircum
ENCODING 94
SWIDTH 500 0
DWIDTH 36 0
BBX 32 20 0 23
BITMAP
00018000
0003C000
0007E000
000FF000
001FF800
003FFC00
007FFE00
00FFFF00
01FFFF80
03FE7FC0
07FC3FE0
0FF81FF0
1FF00FF8
3FE007FC
7FC003FE
FF8001FF
7F0000FE
3E00007C
1C000038
08000010
ENDCHAR
STARTCHAR underscore
ENCODING 95
SWIDTH 500 0
DWIDTH 36 0
BBX 36 6 0 -12
BITMAP
FFFFFFFFF0
FFFFFFFFF0
FFFFFFFFF0
FFFFFFFFF0
FFFFFFFFF0
FFFFFFFFF0
ENDCHAR
STARTCHAR grave
ENCODING 96
SWIDTH 500 0
DWIDTH 36 0
BBX 14 14 5 34
BITMAP
1000
1800
3C00
7E00
FF00
7F80
3FC0
1FE0
0FF0
07F8
03FC
01F0
00E0
0040
ENDCHAR
STARTCHAR a
ENCODING 97
SWIDTH 500 0
DWIDTH 36 0
BBX 30 30 0 0
BITMAP
007FFFFC
03FFFFFC
07FFFFFC
0FFFFFFC
1FFFFFFC
3FFFFFFC
7FC000FC
7F0000FC
FE0000FC
FE0000FC
FC0000FC
FC0000FC
FC0000FC
FC0000FC
FC0000FC
FC0001FC
FC0003FC
FC0007FC
FC000FFC
FC001FFC
FE003FFC
FE007FFC
7F00FEFC
7FC3FCFC
3FFFF8FC
1FFFF0FC
1FFFE0FC
07FFC0FC
03FF80FC
00FE00FC
ENDCHAR
STARTCHAR b
ENCODING 98
SWIDTH 500 0
DWIDTH 36 0
BBX 30 42 0 0
BITMAP
FC000000
FC000000
FC000000
FC000000
FC000000
FC000000
FC000000
FC000000
FC000000
FC000000
FC000000
FC000000
FFFFFC00
FFFFFF00
FFFFFF80
FFFFFFC0
FFFFFFE0
FFFFFFF0
FC000FF8
FC0003F8
FC0001F8
FC0001FC
FC0000FC
FC0000FC
FC0000FC
FC0000FC
FC0000FC
FC0000FC
FC0000FC
FC0000FC
FC0000FC
FC0000FC
FC0001FC
FC0001F8
FC0003F8
FC000FF8
FFFFFFF0
FFFFFFE0
FFFFFFC0
FFFFFF80
FFFFFF00
FFFFF800
ENDCHAR
STARTCHAR c
ENCODING 99
SWIDTH 500 0
DWIDTH 36 0
BBX 30 30 0 0
BITMAP
007FFC00
03FFFF00
07FFFF80
0FFFFFC0
1FFFFFE0
3FFFFFF0
7FC00FF8
7F0003F8
FE0001F8
FE0001FC
FC0000FC
FC0000FC
FC000000
FC000000
FC000000
FC000000
FC000000
FC000000
FC000000
FC000000
FE000000
FE000000
7F000000
7FC00000
3FFFFFFC
1FFFFFFC
0FFFFFFC
07FFFFFC
03FFFFFC
00FFFFFC
ENDCHAR
STARTCHAR d
ENCODING 100
SWIDTH 500 0
DWIDTH 36 0
BBX 30 42 0 0
BITMAP
000000FC
000000FC
000000FC
000000FC
000000FC
000000FC
000000FC
000000FC
000000FC
000000FC
000000FC
000000FC
007FFFFC
03FFFFFC
07FFFFFC
0FFFFFFC
1FFFFFFC
3FFFFFFC
7FC000FC
7F0000FC
FE0000FC
FE0000FC
FC0000FC
FC0000FC
FC0000FC
FC0000FC
FC0000FC
FC0000FC
FC0000FC
FC0000FC
FC0000FC
FC0000FC
FE0000FC
FE0000FC
7F0000FC
7FC000FC
3FFFFFFC
1FFFFFFC
0FFFFFFC
07FFFFFC
03FFFFFC
00FFFFFC
ENDCHAR
STARTCHAR e
ENCODING 101
SWIDTH 500 0
DWIDTH 36 0
BBX 30 30 0 0
BITMAP
007FFC00
03FFFF00
07FFFF80
0FFFFFC0
1FFFFFE0
3FFFFFF0
7FC00FF8
7F0003F8
FE0001F8
FE0001FC
FC0000FC
FC0000FC
FFFFFFFC
FFFFFFFC
FFFFFFFC
FFFFFFFC
FFFFFFFC
FFFFFFFC
FC000000
FC000000
FE000000
FE000000
7F000000
7FC00000
3FFFFFFC
1FFFFFFC
0FFFFFFC
07FFFFFC
03FFFFFC
00FFFFFC
ENDCHAR
STARTCHAR f
ENCODING 102
SWIDTH 500 0
DWIDTH 36 0
BBX 24 42 6 0
BITMAP
0001FF
000FFF
001FFF
003FFF
007FFF
00FFFF
01FF00
01FC00
03F800
03F800
03F000
03F000
FFFFC0
FFFFC0
FFFFC0
FFFFC0
FFFFC0
FFFFC0
03F000
03F000
03F000
03F000
03F000
03F000
03F000
03F000
03F000
03F000
03F000
03F000
03F000
03F000
03F000
03F000
03F000
03F000
03F000
03F000
03F000
03F000
03F000
03F000
ENDCHAR
STARTCHAR g
ENCODING 103
SWIDTH 500 0
DWIDTH 36 0
BBX 30 42 0 -12
BITMAP
007FFFFC
03FFFFFC
07FFFFFC
0FFFFFFC
1FFFFFFC
3FFFFFFC
7FC000FC
7F0000FC
FE0000FC
FE0000FC
FC0000FC
FC0000FC
FC0000FC
FC0000FC
FC0000FC
FC0000FC
FC0000FC
FC0000FC
FC0000FC
FC0000FC
FE0000FC
FE0000FC
7F0000FC
7FC000FC
3FFFFFFC
1FFFFFFC
0FFFFFFC
07FFFFFC
03FFFFFC
00FFFFFC
000000FC
000000FC
000001FC
000001FC
000003F8
00000FF8
03FFFFF0
03FFFFE0
03FFFFC0
03FFFF80
03FFFF00
03FFF800
ENDCHAR
STARTCHAR h
ENCODING 104
SWIDTH 500 0
DWIDTH 36 0
BBX 30 42 0 0
BITMAP
FC000000
FC000000
FC000000
FC000000
FC000000
FC000000
FC000000
FC000000
FC000000
FC000000
FC000000
FC000000
FFFFFC00
FFFFFF00
FFFFFF80
FFFFFFC0
FFFFFFE0
FFFFFFF0
FC000FF8
FC0003F8
FC0001F8
FC0001FC
FC0000FC
FC0000FC
FC0000FC
FC0000FC
FC0000FC
FC0000FC
FC0000FC
FC0000FC
FC0000FC
FC0000FC
FC0000FC
FC0000FC
FC0000FC
FC0000FC
FC0000FC
FC0000FC
FC0000FC
FC0000FC
FC0000FC
FC0000FC
ENDCHAR
STARTCHAR i
ENCODING 105
SWIDTH 500 0
DWIDTH 36 0
BBX 18 42 6 0
BITMAP
01E000
03F000
03F000
03F000
03F000
01E000
000000
000000
000000
000000
000000
000000
FFF000
FFF000
FFF000
FFF000
FFF000
FFF000
03F000
03F000
03F000
03F000
03F000
03F000
03F000
03F000
03F000
03F000
03F000
03F000
03F000
03F000
03F000
03F000
03F000
03F000
FFFFC0
FFFFC0
FFFFC0
FFFFC0
FFFFC0
FFFFC0
ENDCHAR
STARTCHAR j
ENCODING 106
SWIDTH 500 0
DWIDTH 36 0
BBX 18 54 0 -12
BITMAP
000780
000FC0
000FC0
000FC0
000FC0
000780
000000
000000
000000
000000
000000
000000
03FFC0
03FFC0
03FFC0
03FFC0
03FFC0
03FFC0
000FC0
000FC0
000FC0
000FC0
000FC0
000FC0
000FC0
000FC0
000FC0
000FC0
000FC0
000FC0
000FC0
000FC0
000FC0
000FC0
000FC0
000FC0
000FC0
000FC0
000FC0
000FC0
000FC0
000FC0
000FC0
000FC0
001FC0
001F80
003F80
00FF80
FFFF00
FFFE00
FFFC00
FFF800
FFF000
FF8000
ENDCHAR
STARTCHAR k
ENCODING 107
SWIDTH 500 0
DWIDTH 36 0
BBX 30 42 0 0
BITMAP
FC000000
FC000000
FC000000
FC000000
FC000000
FC000000
FC000000
FC000000
FC000000
FC000000
FC000000
FC000000
FC001FF0
FC003FE0
FC007FC0
FC00FF80
FC01FF00
FC03FE00
FC07FC00
FC0FF800
FC1FF000
FC3FE000
FC7FC000
FCFF8000
FDFF8000
FFFFC000
FFFFE000
FFFFF000
FFFFF800
FFE7FC00
FFC3FE00
FF81FF00
FF00FF80
FE007FC0
FC003FE0
FC001FF0
FC000FF8
FC0007FC
FC0003FC
FC0001FC
FC0000FC
FC00007C
ENDCHAR
STARTCHAR l
ENCODING 108
SWIDTH 500 0
DWIDTH 36 0
BBX 18 42 6 0
BITMAP
FFF000
FFF000
FFF000
FFF000
FFF000
FFF000
03F000
03F000
03F000
03F000
03F000
03F000
03F000
03F000
03F000
03F000
03F000
03F000
03F000
03F000
03F000
03F000
03F000
03F000
03F000
03F000
03F000
03F000
03F000
03F000
03F000
03F000
03F000
03F000
03F000
03F000
FFFFC0
FFFFC0
FFFFC0
FFFFC0
FFFFC0
FFFFC0
ENDCHAR
STARTCHAR m
ENCODING 109
SWIDTH 500 0
DWIDTH 36 0
BBX 30 30 0 0
BITMAP
FFFFFC00
FFFFFF00
FFFFFF80
FFFFFFC0
FFFFFFE0
FFFFFFF0
FC0FCFF8
FC0FC3F8
FC0FC1F8
FC0FC1FC
FC0FC0FC
FC0FC0FC
FC0FC0FC
FC0FC0FC
FC0FC0FC
FC0FC0FC
FC0FC0FC
FC0FC0FC
FC0FC0FC
FC0FC0FC
FC0FC0FC
FC0FC0FC
FC0FC0FC
FC0FC0FC
FC0FC0FC
FC0FC0FC
FC0FC0FC
FC0FC0FC
FC0FC0FC
FC0FC0FC
ENDCHAR
STARTCHAR n
ENCODING 110
SWIDTH 500 0
DWIDTH 36 0
BBX 30 30 0 0
BITMAP
FC01FC00
FC07FF00
FC0FFF80
FC1FFFC0
FC3FFFE0
FC7FFFF0
FCFF0FF8
FDFC03F8
FFF801F8
FFF001FC
FFE000FC
FFC000FC
FF8000FC
FF0000FC
FE0000FC
FC0000FC
FC0000FC
FC0000FC
FC0000FC
FC0000FC
FC0000FC
FC0000FC
FC0000FC
FC0000FC
FC0000FC
FC0000FC
FC0000FC
FC0000FC
FC0000FC
FC0000FC
ENDCHAR
STARTCHAR o
ENCODING 111
SWIDTH 500 0
DWIDTH 36 0
BBX 30 30 0 0
BITMAP
007FFC00
03FFFF00
07FFFF80
0FFFFFC0
1FFFFFE0
3FFFFFF0
7FC00FF8
7F0003F8
FE0001F8
FE0001FC
FC0000FC
FC0000FC
FC0000FC
FC0000FC
FC0000FC
FC0000FC
FC0000FC
FC0000FC
FC0000FC
FC0000FC
FE0001FC
FE0001F8
7F0003F8
7FC00FF8
3FFFFFF0
1FFFFFE0
0FFFFFC0
07FFFF80
03FFFF00
00FFF800
ENDCHAR
STARTCHAR p
ENCODING 112
SWIDTH 500 0
DWIDTH 36 0
BBX 30 42 0 -12
BITMAP
FFFFFC00
FFFFFF00
FFFFFF80
FFFFFFC0
FFFFFFE0
FFFFFFF0
FC000FF8
FC0003F8
FC0001F8
FC0001FC
FC0000FC
FC0000FC
FC0000FC
FC0000FC
FC0000FC
FC0000FC
FC0000FC
FC0000FC
FC0000FC
FC0000FC
FC0001FC
FC0001F8
FC0003F8
FC000FF8
FFFFFFF0
FFFFFFE0
FFFFFFC0
FFFFFF80
FFFFFF00
FFFFF800
FC000000
FC000000
FC000000
FC000000
FC000000
FC000000
FC000000
FC000000
FC000000
FC000000
FC000000
FC000000
ENDCHAR
STARTCHAR q
ENCODING 113
SWIDTH 500 0
DWIDTH 36 0
BBX 30 42 0 -12
BITMAP
007FFFFC
03FFFFFC
07FFFFFC
0FFFFFFC
1FFFFFFC
3FFFFFFC
7FC000FC
7F0000FC
FE0000FC
FE0000FC
FC0000FC
FC0000FC
FC0000FC
FC0000FC
FC0000FC
FC0000FC
FC0000FC
FC0000FC
FC0000FC
FC0000FC
FE0000FC
FE0000FC
7F0000FC
7FC000FC
3FFFFFFC
1FFFFFFC
0FFFFFFC
07FFFFFC
03FFFFFC
00FFFFFC
000000FC
000000FC
000000FC
000000FC
000000FC
000000FC
000000FC
000000FC
000000FC
000000FC
000000FC
000000FC
ENDCHAR
STARTCHAR r
ENCODING 114
SWIDTH 500 0
DWIDTH 36 0
BBX 30 30 0 0
BITMAP
FC01FC00
FC07FF00
FC0FFF80
FC1FFFC0
FC3FFFE0
FC7FFFF0
FCFF0FF8
FDFC03F8
FFF801F8
FFF001FC
FFE000FC
FFC000FC
FF800000
FF000000
FE000000
FC000000
FC000000
FC000000
FC000000
FC000000
FC000000
FC000000
FC000000
FC000000
FC000000
FC000000
FC000000
FC000000
FC000000
FC000000
ENDCHAR
STARTCHAR s
ENCODING 115
SWIDTH 500 0
DWIDTH 36 0
BBX 30 30 0 0
BITMAP
003FFFFC
01FFFFFC
07FFFFFC
0FFFFFFC
1FFFFFFC
3FFFFFFC
7FC00000
7F000000
7E000000
7E000000
7F000000
7FC00000
3FFFF000
1FFFFE00
0FFFFF80
07FFFFC0
01FFFFE0
003FFFF0
00000FF8
000003F8
000001F8
000001F8
000003F8
00000FF8
FFFFFFF0
FFFFFFE0
FFFFFFC0
FFFFFF80
FFFFFE00
FFFFF000
ENDCHAR
STARTCHAR t
ENCODING 116
SWIDTH 500 0
DWIDTH 36 0
BBX 24 42 6 0
BITMAP
03F000
03F000
03F000
03F000
03F000
03F000
03F000
03F000
03F000
03F000
03F000
03F000
FFFFC0
FFFFC0
FFFFC0
FFFFC0
FFFFC0
FFFFC0
03F000
03F000
03F000
03F000
03F000
03F000
03F000
03F000
03F000
03F000
03F000
03F000
03F000
03F000
03F800
03F800
01FC00
01FF00
00FFFF
007FFF
003FFF
001FFF
000FFF
0003FF
ENDCHAR
STARTCHAR u
ENCODING 117
SWIDTH 500 0
DWIDTH 36 0
BBX 30 30 0 0
BITMAP
FC0000FC
FC0000FC
FC0000FC
FC0000FC
FC0000FC
FC0000FC
FC0000FC
FC0000FC
FC0000FC
FC0000FC
FC0000FC
FC0000FC
FC0000FC
FC0000FC
FC0000FC
FC0001FC
FC0003FC
FC0007FC
FC000FFC
FC001FFC
FE003FFC
FE007FFC
7F00FEFC
7FC3FCFC
3FFFF8FC
1FFFF0FC
1FFFE0FC
07FFC0FC
03FF80FC
00FE00FC
ENDCHAR
STARTCHAR v
ENCODING 118
SWIDTH 500 0
DWIDTH 36 0
BBX 30 30 0 0
BITMAP
FC0000FC
FC0000FC
FC0000FC
FC0000FC
FC0000FC
FE0001FC
FE0001FC
7F0003F8
7F0003F8
3F8007F0
3F8007F0
1FC00FE0
1FC00FE0
0FE01FC0
0FE01FC0
07F03F80
07F03F80
03F87F00
03F87F00
01FCFE00
01FCFE00
00FFFC00
00FFFC00
007FF800
007FF800
003FF000
003FF000
001FE000
001FE000
000FC000
ENDCHAR
STARTCHAR w
ENCODING 119
SWIDTH 500 0
DWIDTH 36 0
BBX 30 30 0 0
BITMAP
FC0FC0FC
FC0FC0FC
FC0FC0FC
FC0FC0FC
FC0FC0FC
FC0FC0FC
FC0FC0FC
FC0FC0FC
FC0FC0FC
FC0FC0FC
FC0FC0FC
FC0FC0FC
FC0FC0FC
FC0FC0FC
FC0FC0FC
FC0FC0FC
FC0FC0FC
FC0FC0FC
FC0FC0FC
FC0FC0FC
FC0FC0FC
7E1FE1F8
7E1FE1F8
7F3FF3F8
3FFCFFF0
3FFCFFF0
1FF87FE0
0FF87FC0
07F03F80
03E01F00
ENDCHAR
STARTCHAR x
ENCODING 120
SWIDTH 500 0
DWIDTH 36 0
BBX 30 30 0 0
BITMAP
FC0000FC
FC0000FC
FE0001FC
FF0003FC
FF8007FC
7FC00FF8
3FE01FF0
1FF03FE0
0FF87FC0
07FCFF80
03FFFF00
01FFFE00
00FFFC00
007FF800
003FF000
003FF000
007FF800
00FFFC00
01FFFE00
03FFFF00
07FCFF80
0FF87FC0
1FF03FE0
3FE01FF0
7FC00FF8
FF8007FC
FF0003FC
FE0001FC
FC0000FC
FC0000FC
ENDCHAR
STARTCHAR y
ENCODING 121
SWIDTH 500 0
DWIDTH 36 0
BBX 30 42 0 -12
BITMAP
FC0000FC
FC0000FC
FC0000FC
FC0000FC
FC0000FC
FC0000FC
FC0000FC
FC0000FC
FC0000FC
FC0000FC
FC0000FC
FC0000FC
FC0000FC
FC0000FC
FC0000FC
FC0000FC
FC0000FC
FC0000FC
FC0000FC
FC0000FC
FE0000FC
FE0000FC
7F0000FC
7FC000FC
3FFFFFFC
1FFFFFFC
0FFFFFFC
07FFFFFC
03FFFFFC
00FFFFFC
000000FC
000000FC
000001FC
000001FC
000003F8
00000FF8
03FFFFF0
03FFFFE0
03FFFFC0
03FFFF80
03FFFF00
03FFF800
ENDCHAR
STARTCHAR z
ENCODING 122
SWIDTH 500 0
DWIDTH 36 0
BBX 30 30 0 0
BITMAP
FFFFFFFC
FFFFFFFC
FFFFFFFC
FFFFFFFC
FFFFFFFC
FFFFFFF8
00001FF0
00003FE0
00007FC0
0000FF80
0001FF00
0003FE00
0007FC00
000FF800
001FF000
003FE000
007FC000
00FF8000
01FF0000
03FE0000
07FC0000
0FF80000
1FF00000
3FE00000
7FFFFFFC
FFFFFFFC
FFFFFFFC
FFFFFFFC
FFFFFFFC
FFFFFFFC
ENDCHAR
ENDFONT
