STARTFONT 2.1
FONT -FontForge-ProFontWindows-Book-R-Normal--44-420-75-75-P-219-ISO10646-1
SIZE 42 75 75
FONTBOUNDINGBOX 25 44 -1 -11
COMMENT "Generated by fontforge, http://fontforge.sourceforge.net"
STARTPROPERTIES 38
FOUNDRY "FontForge"
FAMILY_NAME "ProFontWindows"
WEIGHT_NAME "Book"
SLANT "R"
SETWIDTH_NAME "Normal"
ADD_STYLE_NAME ""
PIXEL_SIZE 44
POINT_SIZE 420
RESOLUTION_X 75
RESOLUTION_Y 75
SPACING "P"
AVERAGE_WIDTH 219
CHARSET_REGISTRY "ISO10646"
CHARSET_ENCODING "1"
FONTNAME_REGISTRY ""
CHARSET_COLLECTIONS "ASCII ISOLatin1Encoding ISO10646-1"
FONT_NAME "ProFontWindows"
FACE_NAME "ProFontWindows"
FONT_VERSION "ProFontWindows 2.3"
FONT_ASCENT 33
FONT_DESCENT 11
UNDERLINE_POSITION -5
UNDERLINE_THICKNESS 2
X_HEIGHT 17
CAP_HEIGHT 25
RAW_ASCENT 750
RAW_DESCENT 250
NORM_SPACE 22
RELATIVE_WEIGHT 40
RELATIVE_SETWIDTH 50
SUPERSCRIPT_X 0
SUPERSCRIPT_Y 8
SUPERSCRIPT_SIZE 12
SUBSCRIPT_X 0
SUBSCRIPT_Y 2
SUBSCRIPT_SIZE 12
AVG_LOWERCASE_WIDTH 220
AVG_UPPERCASE_WIDTH 220
ENDPROPERTIES
STARTCHAR plus
ENCODING 43
SWIDTH 500 0
DWIDTH 22 0
BBX 18 18 0 4
BITMAP
01E000
01E000
01E000
01E000
01E000
01E000
01E000
FFFFC0
FFFFC0
FFFFC0
FFFFC0
01E000
01E000
01E000
01E000
01E000
01E000
01E000
ENDCHAR
STARTCHAR comma
ENCODING 44
SWIDTH 500 0
DWIDTH 22 0
BBX 8 15 4 -7
BITMAP
3E
3F
7F
7F
7F
3F
1F
07
0F
1F
3E
7C
F8
70
20
ENDCHAR
STARTCHAR hyphen
ENCODING 45
SWIDTH 500 0
DWIDTH 22 0
BBX 11 4 4 11
BITMAP
FFE0
FFE0
FFE0
FFE0
ENDCHAR
STARTCHAR period
ENCODING 46
SWIDTH 500 0
DWIDTH 22 0
BBX 7 7 6 1
BITMAP
38
7C
FE
FE
FE
7C
38
ENDCHAR
STARTCHAR slash
ENCODING 47
SWIDTH 500 0
DWIDTH 22 0
BBX 21 36 0 -7
BITMAP
000060
000078
0000F8
0000F0
0001F0
0001E0
0003C0
0003C0
000780
000780
000F00
000F00
001E00
001E00
003C00
003C00
007800
007800
00F000
00F000
01E000
01E000
03C000
03C000
078000
078000
0F0000
0F0000
1E0000
3E0000
3C0000
7C0000
780000
F80000
F00000
300000
ENDCHAR
STARTCHAR zero
ENCODING 48
SWIDTH 500 0
DWIDTH 22 0
BBX 18 26 0 0
BITMAP
07F800
1FFE00
3FFF00
7FFF80
7C0780
F803C0
F003C0
F007C0
F00FC0
F01FC0
F03BC0
F073C0
F0E3C0
F1C3C0
F383C0
F703C0
FE03C0
FC03C0
F803C0
F003C0
F007C0
780F80
7FFF80
3FFF00
1FFE00
07F800
ENDCHAR
STARTCHAR one
ENCODING 49
SWIDTH 500 0
DWIDTH 22 0
BBX 18 26 0 0
BITMAP
01E000
01E000
03E000
07E000
7FE000
7FE000
7FE000
7FE000
01E000
01E000
01E000
01E000
01E000
01E000
01E000
01E000
01E000
01E000
01E000
01E000
01E000
01E000
FFFFC0
FFFFC0
FFFFC0
FFFFC0
ENDCHAR
STARTCHAR two
ENCODING 50
SWIDTH 500 0
DWIDTH 23 0
BBX 19 26 0 0
BITMAP
07FC00
1FFF00
3FFF80
3FFFC0
7C07C0
7803E0
F001E0
F001E0
0001E0
0003E0
0007C0
000F80
001F00
003E00
007C00
00F800
01F000
03E000
07C000
0F8000
1F0000
3E0000
7FFFE0
FFFFE0
FFFFE0
FFFFE0
ENDCHAR
STARTCHAR three
ENCODING 51
SWIDTH 500 0
DWIDTH 22 0
BBX 18 26 0 0
BITMAP
07F800
1FFE00
3FFF00
7FFF80
7C0F80
F807C0
F003C0
F003C0
0003C0
0007C0
000F80
01FF00
01FE00
01FE00
01FF00
000F80
0007C0
0003C0
F003C0
F003C0
F807C0
7C0F80
7FFF80
3FFF00
1FFE00
07F800
ENDCHAR
STARTCHAR four
ENCODING 52
SWIDTH 500 0
DWIDTH 22 0
BBX 19 26 0 0
BITMAP
000E00
001E00
003E00
007E00
00FE00
01FE00
03FE00
07DE00
0F9E00
1F1E00
3E1E00
7C1E00
F81E00
F01E00
F01E00
FFFFE0
FFFFE0
FFFFE0
FFFFE0
001E00
001E00
001E00
01FFE0
01FFE0
01FFE0
01FFE0
ENDCHAR
STARTCHAR five
ENCODING 53
SWIDTH 500 0
DWIDTH 22 0
BBX 18 26 0 0
BITMAP
FFFFC0
FFFFC0
FFFFC0
FFFFC0
F00000
F00000
F00000
FFF800
FFFE00
FFFF00
FFFF80
000F80
0007C0
0003C0
0003C0
0003C0
0003C0
0003C0
F003C0
F003C0
F807C0
7C0F80
7FFF80
3FFF00
1FFE00
07F800
ENDCHAR
STARTCHAR six
ENCODING 54
SWIDTH 500 0
DWIDTH 22 0
BBX 18 26 0 0
BITMAP
0FFC00
1FFC00
3FFC00
7FFC00
780000
F00000
F00000
FFF800
FFFE00
FFFF00
FFFF80
F00F80
F007C0
F003C0
F003C0
F003C0
F003C0
F003C0
F003C0
F003C0
F807C0
7C0F80
7FFF80
3FFF00
1FFE00
07F800
ENDCHAR
STARTCHAR seven
ENCODING 55
SWIDTH 500 0
DWIDTH 22 0
BBX 19 26 -1 0
BITMAP
FFFFE0
FFFFE0
FFFFE0
FFFFE0
0001E0
0001E0
0001E0
0001E0
0001E0
0003E0
0007E0
000FC0
001F80
001F00
003E00
007C00
00F800
00F000
00F000
00F000
00F000
00F000
00F000
00F000
00F000
00F000
ENDCHAR
STARTCHAR eight
ENCODING 56
SWIDTH 500 0
DWIDTH 22 0
BBX 18 26 0 0
BITMAP
07F800
1FFE00
3FFF00
7FFF80
7C0F80
F807C0
F003C0
F003C0
F003C0
F807C0
7C0F80
3FFF00
1FFE00
1FFE00
3FFF00
7C0F80
F807C0
F003C0
F003C0
F003C0
F807C0
7C0F80
7FFF80
3FFF00
1FFE00
0FF800
ENDCHAR
STARTCHAR nine
ENCODING 57
SWIDTH 500 0
DWIDTH 22 0
BBX 18 26 0 0
BITMAP
07F800
1FFE00
3FFF00
7FFF80
7C0F80
F807C0
F003C0
F003C0
F003C0
F003C0
F003C0
F003C0
F003C0
F803C0
7C03C0
7FFFC0
3FFFC0
1FFFC0
0FFFC0
0003C0
0003C0
000F80
0FFF80
0FFF00
0FFE00
0FFC00
ENDCHAR
STARTCHAR colon
ENCODING 58
SWIDTH 500 0
DWIDTH 22 0
BBX 7 18 5 1
BITMAP
7C
7E
FE
FE
FE
7E
3C
00
00
00
00
7C
7E
FE
FE
FE
7E
3C
ENDCHAR
STARTCHAR semicolon
ENCODING 59
SWIDTH 500 0
DWIDTH 22 0
BBX 8 26 4 -7
BITMAP
3E
3F
7F
7F
7F
3F
1E
00
00
00
00
3E
3F
7F
7F
7F
3F
1F
07
0F
1F
3E
7C
F8
70
20
ENDCHAR
STARTCHAR less
ENCODING 60
SWIDTH 500 0
DWIDTH 22 0
BBX 16 27 3 -1
BITMAP
0004
000E
001F
003E
007C
00F8
01F0
03E0
07C0
0F80
1F00
3E00
7C00
F800
7C00
3E00
1F00
0F80
07C0
03E0
01F0
00F8
007C
003E
001F
000E
0004
ENDCHAR
STARTCHAR equal
ENCODING 61
SWIDTH 500 0
DWIDTH 22 0
BBX 18 12 0 7
BITMAP
FFFFC0
FFFFC0
FFFFC0
FFFFC0
000000
000000
000000
000000
FFFFC0
FFFFC0
FFFFC0
FFFFC0
ENDCHAR
STARTCHAR greater
ENCODING 62
SWIDTH 500 0
DWIDTH 22 0
BBX 16 28 3 -1
BITMAP
2000
7000
F800
7C00
3E00
1F00
0F80
0FC0
07E0
03F0
01F8
00FC
007E
003E
001F
003E
007C
00F8
01F0
03E0
07C0
0F80
1F00
3E00
7C00
F800
7000
2000
ENDCHAR
STARTCHAR question
ENCODING 63
SWIDTH 500 0
DWIDTH 22 0
BBX 19 26 0 0
BITMAP
07FC00
1FFF00
3FFF80
3FFFC0
7C07C0
7803E0
F001E0
F001E0
0001E0
0003E0
0007C0
000FC0
001F80
003F00
007E00
00FC00
00F000
00E000
00C000
000000
000000
000000
00C000
01E000
01E000
00C000
ENDCHAR
STARTCHAR at
ENCODING 64
SWIDTH 500 0
DWIDTH 22 0
BBX 18 26 0 0
BITMAP
0FF800
1FFE00
3FFF00
7FFF80
7C0F80
F803C0
F003C0
F07FC0
F0FFC0
F1FFC0
F1FFC0
F1E3C0
F1E3C0
F1E3C0
F1E3C0
F1FFC0
F1FFC0
F0FF80
F07F00
F00000
F80000
780000
7FFFC0
3FFFC0
1FFFC0
0FFFC0
ENDCHAR
STARTCHAR A
ENCODING 65
SWIDTH 500 0
DWIDTH 22 0
BBX 18 26 0 0
BITMAP
01F000
03F000
03F000
07F800
07F800
0F3C00
0F3C00
1E1E00
1E1E00
3E1F00
3C0F00
7C0F80
780780
F807C0
F003C0
FFFFC0
FFFFC0
FFFFC0
FFFFC0
F003C0
F003C0
F003C0
F003C0
F003C0
F003C0
F003C0
ENDCHAR
STARTCHAR B
ENCODING 66
SWIDTH 500 0
DWIDTH 22 0
BBX 18 26 0 0
BITMAP
FFF800
FFFE00
FFFF00
FFFF80
F00F80
F007C0
F003C0
F003C0
F003C0
F007C0
F00F80
FFFF00
FFFE00
FFFE00
FFFF00
F00F80
F007C0
F003C0
F003C0
F003C0
F007C0
F00F80
FFFF80
FFFF00
FFFE00
FFF800
ENDCHAR
STARTCHAR C
ENCODING 67
SWIDTH 500 0
DWIDTH 22 0
BBX 18 26 0 0
BITMAP
07F800
1FFE00
3FFF00
7FFF80
7C0F80
F807C0
F003C0
F003C0
F00000
F00000
F00000
F00000
F00000
F00000
F00000
F00000
F00000
F00000
F003C0
F003C0
F807C0
7C0F80
7FFF80
3FFF00
1FFE00
07F800
ENDCHAR
STARTCHAR D
ENCODING 68
SWIDTH 500 0
DWIDTH 22 0
BBX 18 26 0 0
BITMAP
FFF800
FFFE00
FFFF00
FFFF80
F00F80
F007C0
F003C0
F003C0
F003C0
F003C0
F003C0
F003C0
F003C0
F003C0
F003C0
F003C0
F003C0
F003C0
F003C0
F003C0
F007C0
F00F80
FFFF80
FFFF00
FFFE00
FFF800
ENDCHAR
STARTCHAR E
ENCODING 69
SWIDTH 500 0
DWIDTH 22 0
BBX 19 26 0 0
BITMAP
FFFFE0
FFFFE0
FFFFE0
FFFFE0
F00000
F00000
F00000
F00000
F00000
F00000
F00000
FFFE00
FFFE00
FFFE00
FFFE00
F00000
F00000
F00000
F00000
F00000
F00000
F00000
FFFFE0
FFFFE0
FFFFE0
FFFFE0
ENDCHAR
STARTCHAR F
ENCODING 70
SWIDTH 500 0
DWIDTH 22 0
BBX 19 26 0 0
BITMAP
FFFFE0
FFFFE0
FFFFE0
FFFFE0
F00000
F00000
F00000
F00000
F00000
F00000
F00000
FFFE00
FFFE00
FFFE00
FFFE00
F00000
F00000
F00000
F00000
F00000
F00000
F00000
F00000
F00000
F00000
F00000
ENDCHAR
STARTCHAR G
ENCODING 71
SWIDTH 500 0
DWIDTH 22 0
BBX 18 26 0 0
BITMAP
07F800
1FFE00
3FFF00
7FFF80
7C0F80
F807C0
F003C0
F003C0
F00000
F00000
F00000
F01FC0
F01FC0
F01FC0
F01FC0
F003C0
F003C0
F003C0
F003C0
F003C0
F807C0
7C0780
7FFF80
3FFF00
1FFE00
07F800
ENDCHAR
STARTCHAR H
ENCODING 72
SWIDTH 500 0
DWIDTH 22 0
BBX 18 26 0 0
BITMAP
F003C0
F003C0
F003C0
F003C0
F003C0
F003C0
F003C0
F003C0
F003C0
F003C0
F003C0
FFFFC0
FFFFC0
FFFFC0
FFFFC0
F003C0
F003C0
F003C0
F003C0
F003C0
F003C0
F003C0
F003C0
F003C0
F003C0
F003C0
ENDCHAR
STARTCHAR I
ENCODING 73
SWIDTH 500 0
DWIDTH 22 0
BBX 18 26 0 0
BITMAP
FFFFC0
FFFFC0
FFFFC0
FFFFC0
01E000
01E000
01E000
01E000
01E000
01E000
01E000
01E000
01E000
01E000
01E000
01E000
01E000
01E000
01E000
01E000
01E000
01E000
FFFFC0
FFFFC0
FFFFC0
FFFFC0
ENDCHAR
STARTCHAR J
ENCODING 74
SWIDTH 500 0
DWIDTH 22 0
BBX 18 26 0 0
BITMAP
0003C0
0003C0
0003C0
0003C0
0003C0
0003C0
0003C0
0003C0
0003C0
0003C0
0003C0
0003C0
0003C0
0003C0
0003C0
F003C0
F003C0
F003C0
F003C0
F003C0
F807C0
7C0F80
7FFF80
3FFF00
1FFE00
07F800
ENDCHAR
STARTCHAR K
ENCODING 75
SWIDTH 500 0
DWIDTH 22 0
BBX 18 26 0 0
BITMAP
F003C0
F007C0
F00FC0
F01F80
F03F00
F07E00
F0FC00
F1F800
F3F000
F7E000
FFC000
FF8000
FF0000
FE0000
FF0000
FF8000
F7C000
F3E000
F1F000
F0F800
F07C00
F03E00
F01F00
F00F80
F007C0
F003C0
ENDCHAR
STARTCHAR L
ENCODING 76
SWIDTH 500 0
DWIDTH 22 0
BBX 19 26 0 0
BITMAP
F00000
F00000
F00000
F00000
F00000
F00000
F00000
F00000
F00000
F00000
F00000
F00000
F00000
F00000
F00000
F00000
F00000
F00000
F00000
F00000
F00000
F00000
FFFFE0
FFFFE0
FFFFE0
FFFFE0
ENDCHAR
STARTCHAR M
ENCODING 77
SWIDTH 500 0
DWIDTH 22 0
BBX 18 26 0 0
BITMAP
E001C0
F003C0
F807C0
FC0FC0
FE1FC0
FF3FC0
FFFFC0
FFFBC0
F7F3C0
F3F3C0
F1E3C0
F1E3C0
F1E3C0
F1E3C0
F1E3C0
F003C0
F003C0
F003C0
F003C0
F003C0
F003C0
F003C0
F003C0
F003C0
F003C0
F003C0
ENDCHAR
STARTCHAR N
ENCODING 78
SWIDTH 500 0
DWIDTH 22 0
BBX 18 26 0 0
BITMAP
E003C0
F003C0
F803C0
FC03C0
FE03C0
FF03C0
FF83C0
F7C3C0
F3C3C0
F1E3C0
F0F3C0
F07BC0
F03FC0
F03FC0
F01FC0
F00FC0
F007C0
F003C0
F003C0
F003C0
F003C0
F003C0
F003C0
F003C0
F003C0
F003C0
ENDCHAR
STARTCHAR O
ENCODING 79
SWIDTH 500 0
DWIDTH 22 0
BBX 18 26 0 0
BITMAP
07F800
1FFE00
3FFF00
7FFF80
7C0F80
F807C0
F003C0
F003C0
F003C0
F003C0
F003C0
F003C0
F003C0
F003C0
F003C0
F003C0
F003C0
F003C0
F003C0
F003C0
F807C0
7C0F80
7FFF80
3FFF00
1FFE00
07F800
ENDCHAR
STARTCHAR P
ENCODING 80
SWIDTH 500 0
DWIDTH 22 0
BBX 18 26 0 0
BITMAP
FFF800
FFFE00
FFFF00
FFFF80
F00F80
F007C0
F003C0
F003C0
F003C0
F007C0
F00F80
FFFF80
FFFF00
FFFE00
FFF800
F00000
F00000
F00000
F00000
F00000
F00000
F00000
F00000
F00000
F00000
F00000
ENDCHAR
STARTCHAR Q
ENCODING 81
SWIDTH 500 0
DWIDTH 22 0
BBX 18 30 0 -4
BITMAP
07F800
1FFE00
3FFF00
7FFF80
7C0F80
F807C0
F003C0
F003C0
F003C0
F003C0
F003C0
F003C0
F003C0
F003C0
F003C0
F003C0
F003C0
F003C0
F043C0
F0C3C0
F1E3C0
79F780
7FFF80
3FFF00
1FFF00
07FF80
000FC0
0007C0
000380
000100
ENDCHAR
STARTCHAR R
ENCODING 82
SWIDTH 500 0
DWIDTH 22 0
BBX 18 26 0 0
BITMAP
FFF800
FFFE00
FFFF00
FFFF80
F00F80
F007C0
F003C0
F003C0
F003C0
F007C0
F00F80
FFFF00
FFFE00
FFFE00
FFFF00
F00F80
F007C0
F003C0
F003C0
F003C0
F003C0
F003C0
F003C0
F003C0
F003C0
F003C0
ENDCHAR
STARTCHAR S
ENCODING 83
SWIDTH 500 0
DWIDTH 22 0
BBX 18 26 0 0
BITMAP
07F800
1FFE00
3FFF00
7FFF80
7C0F80
F807C0
F003C0
F003C0
F00000
F80000
7C0000
7FFC00
3FFE00
1FFF00
0FFF80
000F80
0007C0
0003C0
F003C0
F003C0
F807C0
7C0F80
7FFF80
3FFF00
1FFE00
07F800
ENDCHAR
STARTCHAR T
ENCODING 84
SWIDTH 500 0
DWIDTH 22 0
BBX 18 26 0 0
BITMAP
FFFFC0
FFFFC0
FFFFC0
FFFFC0
01E000
01E000
01E000
01E000
01E000
01E000
01E000
01E000
01E000
01E000
01E000
01E000
01E000
01E000
01E000
01E000
01E000
01E000
01E000
01E000
01E000
01E000
ENDCHAR
STARTCHAR U
ENCODING 85
SWIDTH 500 0
DWIDTH 22 0
BBX 18 26 0 0
BITMAP
F003C0
F003C0
F003C0
F003C0
F003C0
F003C0
F003C0
F003C0
F003C0
F003C0
F003C0
F003C0
F003C0
F003C0
F003C0
F003C0
F003C0
F003C0
F003C0
F003C0
F807C0
7C0F80
7FFF80
3FFF00
1FFE00
07F800
ENDCHAR
STARTCHAR V
ENCODING 86
SWIDTH 500 0
DWIDTH 22 0
BBX 18 26 0 0
BITMAP
F003C0
F003C0
F003C0
F003C0
F003C0
F003C0
F003C0
F003C0
780780
780780
7C0F80
3C0F00
3E1F00
1E1E00
1F3E00
0F3C00
0F7C00
07F800
07F800
03F000
03F000
01E000
01E000
00C000
00C000
008000
ENDCHAR
STARTCHAR W
ENCODING 87
SWIDTH 500 0
DWIDTH 22 0
BBX 18 26 0 0
BITMAP
F003C0
F003C0
F003C0
F003C0
F003C0
F003C0
F003C0
F003C0
F003C0
F003C0
F003C0
F1E3C0
F1E3C0
F1E3C0
F1E3C0
F1E3C0
F3F3C0
F3F3C0
F7FBC0
FFFFC0
FF3FC0
FE1FC0
FC0FC0
F807C0
F003C0
E001C0
ENDCHAR
STARTCHAR X
ENCODING 88
SWIDTH 500 0
DWIDTH 22 0
BBX 18 26 0 0
BITMAP
F003C0
F003C0
F003C0
F003C0
F003C0
F807C0
FC0FC0
7C0F80
3E1F00
1F3E00
0FFC00
07F800
03F000
03F000
07F800
0FFC00
1F3E00
3E1F00
7C0F80
FC0FC0
F807C0
F003C0
F003C0
F003C0
F003C0
F003C0
ENDCHAR
STARTCHAR Y
ENCODING 89
SWIDTH 500 0
DWIDTH 22 0
BBX 18 26 0 0
BITMAP
F003C0
F003C0
F003C0
F003C0
F003C0
F003C0
F003C0
F003C0
F003C0
F807C0
FC0FC0
7E1F80
3F3F00
1FFE00
0FFC00
07F800
03F000
01E000
01E000
01E000
01E000
01E000
01E000
01E000
01E000
01E000
ENDCHAR
STARTCHAR Z
ENCODING 90
SWIDTH 500 0
DWIDTH 22 0
BBX 18 26 0 0
BITMAP
FFFFC0
FFFFC0
FFFFC0
FFFFC0
0001C0
0003C0
0007C0
000F80
001F00
003E00
007C00
00F800
01F000
03E000
07C000
0F8000
1F0000
3E0000
7C0000
F80000
F00000
F00000
FFFFC0
FFFFC0
FFFFC0
FFFFC0
ENDCHAR
STARTCHAR bracketleft
ENCODING 91
SWIDTH 500 0
DWIDTH 22 0
BBX 7 34 7 -4
BITMAP
FE
FE
FE
FE
F0
F0
F0
F0
F0
F0
F0
F0
F0
F0
F0
F0
F0
F0
F0
F0
F0
F0
F0
F0
F0
F0
F0
F0
F0
F0
FE
FE
FE
FE
ENDCHAR
STARTCHAR backslash
ENCODING 92
SWIDTH 500 0
DWIDTH 22 0
BBX 21 36 1 -7
BITMAP
100000
700000
F80000
780000
3C0000
3C0000
1E0000
1E0000
0F0000
0F0000
078000
078000
03C000
03C000
01E000
01E000
00F000
00F000
007800
007800
003C00
001C00
001E00
000E00
000F00
000700
000780
0003C0
0003C0
0001E0
0001E0
0000F0
0000F0
000078
000078
000020
ENDCHAR
STARTCHAR bracketright
ENCODING 93
SWIDTH 500 0
DWIDTH 22 0
BBX 7 34 4 -4
BITMAP
FE
FE
FE
FE
1E
1E
1E
1E
1E
1E
1E
1E
1E
1E
1E
1E
1E
1E
1E
1E
1E
1E
1E
1E
1E
1E
1E
1E
1E
1E
FE
FE
FE
FE
ENDCHAR
STARTCHAR asciicircum
ENCODING 94
SWIDTH 500 0
DWIDTH 22 0
BBX 20 12 0 14
BITMAP
004000
00E000
01F000
03F800
07FC00
0FBE00
1F1F00
3E0F80
7C07E0
F803F0
7001C0
200080
ENDCHAR
STARTCHAR underscore
ENCODING 95
SWIDTH 500 0
DWIDTH 22 0
BBX 22 4 0 -7
BITMAP
FFFFFC
FFFFFC
FFFFFC
FFFFFC
ENDCHAR
STARTCHAR grave
ENCODING 96
SWIDTH 500 0
DWIDTH 22 0
BBX 8 8 3 21
BITMAP
20
70
F8
7C
3E
1F
0F
04
ENDCHAR
STARTCHAR a
ENCODING 97
SWIDTH 500 0
DWIDTH 22 0
BBX 18 19 0 0
BITMAP
07FFC0
1FFFC0
3FFFC0
7FFFC0
7C03C0
F803C0
F003C0
F003C0
F003C0
F003C0
F007C0
F00FC0
F01FC0
F83FC0
7C7BC0
7FFBC0
3FF3C0
1FC3C0
0F83C0
ENDCHAR
STARTCHAR b
ENCODING 98
SWIDTH 500 0
DWIDTH 22 0
BBX 18 26 0 0
BITMAP
F00000
F00000
F00000
F00000
F00000
F00000
F00000
FFF800
FFFE00
FFFF00
FFFF80
F00F80
F007C0
F003C0
F003C0
F003C0
F003C0
F003C0
F003C0
F003C0
F007C0
F00F80
FFFF80
FFFF00
FFFE00
FFF800
ENDCHAR
STARTCHAR c
ENCODING 99
SWIDTH 500 0
DWIDTH 22 0
BBX 19 19 0 0
BITMAP
07FC00
1FFF00
3FFF80
7FFF80
7C07C0
F803C0
F001E0
F001E0
F00000
F00000
F00000
F00000
F00000
F80000
7C0000
7FFFE0
3FFFE0
1FFFE0
07FFE0
ENDCHAR
STARTCHAR d
ENCODING 100
SWIDTH 500 0
DWIDTH 22 0
BBX 18 26 0 0
BITMAP
0003C0
0003C0
0003C0
0003C0
0003C0
0003C0
0003C0
0FFFC0
1FFFC0
3FFFC0
7FFFC0
7C03C0
F803C0
F003C0
F003C0
F003C0
F003C0
F003C0
F003C0
F003C0
F803C0
7C03C0
7FFFC0
3FFFC0
1FFFC0
07FFC0
ENDCHAR
STARTCHAR e
ENCODING 101
SWIDTH 500 0
DWIDTH 22 0
BBX 19 19 0 0
BITMAP
07FC00
1FFF00
3FFF80
7FFF80
7C07C0
F803C0
F001E0
F001E0
FFFFE0
FFFFE0
FFFFE0
FFFFE0
F00000
F00000
FC0000
7FFFE0
3FFFE0
1FFFE0
07FFE0
ENDCHAR
STARTCHAR f
ENCODING 102
SWIDTH 500 0
DWIDTH 22 0
BBX 15 26 3 0
BITMAP
007E
01FE
03FE
07FE
0FC0
0F00
0F00
FFF0
FFF0
FFF0
FFF0
0F00
0F00
0F00
0F00
0F00
0F00
0F00
0F00
0F00
0F00
0F00
0F00
0F00
0F00
0F00
ENDCHAR
STARTCHAR g
ENCODING 103
SWIDTH 500 0
DWIDTH 22 0
BBX 18 26 0 -7
BITMAP
07FFC0
1FFFC0
3FFFC0
7FFFC0
7C03C0
F803C0
F003C0
F003C0
F003C0
F003C0
F003C0
F003C0
F003C0
F803C0
7C03C0
7FFFC0
3FFFC0
1FFFC0
0FFFC0
0003C0
0003C0
000F80
0FFF80
0FFF00
0FFE00
0FFC00
ENDCHAR
STARTCHAR h
ENCODING 104
SWIDTH 500 0
DWIDTH 22 0
BBX 18 26 0 0
BITMAP
F00000
F00000
F00000
F00000
F00000
F00000
F00000
FFF800
FFFE00
FFFF00
FFFF80
F00F80
F007C0
F003C0
F003C0
F003C0
F003C0
F003C0
F003C0
F003C0
F003C0
F003C0
F003C0
F003C0
F003C0
F003C0
ENDCHAR
STARTCHAR i
ENCODING 105
SWIDTH 500 0
DWIDTH 22 0
BBX 11 25 4 0
BITMAP
0C00
1E00
1E00
0C00
0000
0000
0000
FE00
FE00
FE00
1E00
1E00
1E00
1E00
1E00
1E00
1E00
1E00
1E00
1E00
1E00
FFE0
FFE0
FFE0
FFE0
ENDCHAR
STARTCHAR j
ENCODING 106
SWIDTH 500 0
DWIDTH 22 0
BBX 11 32 0 -7
BITMAP
00C0
01E0
01E0
00C0
0000
0000
0000
0FE0
0FE0
0FE0
01E0
01E0
01E0
01E0
01E0
01E0
01E0
01E0
01E0
01E0
01E0
01E0
01E0
01E0
01E0
01E0
01E0
03E0
0FC0
FF80
FF00
FE00
ENDCHAR
STARTCHAR k
ENCODING 107
SWIDTH 500 0
DWIDTH 22 0
BBX 18 26 0 0
BITMAP
F00000
F00000
F00000
F00000
F00000
F00000
F00000
F00000
F01F80
F03E00
F07C00
F0F800
F1F000
F3E000
F7C000
FFC000
FFE000
FFF000
FCF800
F87C00
F03E00
F01F00
F00F80
F007C0
F003C0
F001C0
ENDCHAR
STARTCHAR l
ENCODING 108
SWIDTH 500 0
DWIDTH 22 0
BBX 11 26 4 0
BITMAP
FE00
FE00
FE00
FE00
1E00
1E00
1E00
1E00
1E00
1E00
1E00
1E00
1E00
1E00
1E00
1E00
1E00
1E00
1E00
1E00
1E00
1E00
FFE0
FFE0
FFE0
FFE0
ENDCHAR
STARTCHAR m
ENCODING 109
SWIDTH 500 0
DWIDTH 22 0
BBX 18 19 0 0
BITMAP
FFF800
FFFE00
FFFF00
FFFF80
F1EF80
F1E7C0
F1E3C0
F1E3C0
F1E3C0
F1E3C0
F1E3C0
F1E3C0
F1E3C0
F1E3C0
F1E3C0
F1E3C0
F1E3C0
F1E3C0
F1E3C0
ENDCHAR
STARTCHAR n
ENCODING 110
SWIDTH 500 0
DWIDTH 22 0
BBX 18 19 0 0
BITMAP
F07800
F1FE00
F3FF00
F7FF80
FF8F80
FF07C0
FE03C0
FC03C0
F803C0
F003C0
F003C0
F003C0
F003C0
F003C0
F003C0
F003C0
F003C0
F003C0
F003C0
ENDCHAR
STARTCHAR o
ENCODING 111
SWIDTH 500 0
DWIDTH 22 0
BBX 18 19 0 0
BITMAP
07F800
1FFE00
3FFF00
7FFF80
7C0F80
F807C0
F003C0
F003C0
F003C0
F003C0
F003C0
F003C0
F003C0
F807C0
7C0F80
7FFF80
3FFF00
1FFE00
07F800
ENDCHAR
STARTCHAR p
ENCODING 112
SWIDTH 500 0
DWIDTH 22 0
BBX 18 26 0 -7
BITMAP
FFF800
FFFE00
FFFF00
FFFF80
F00F80
F007C0
F003C0
F003C0
F003C0
F003C0
F003C0
F003C0
F003C0
F007C0
F00F80
FFFF80
FFFF00
FFFE00
FFF800
F00000
F00000
F00000
F00000
F00000
F00000
F00000
ENDCHAR
STARTCHAR q
ENCODING 113
SWIDTH 500 0
DWIDTH 22 0
BBX 18 26 0 -7
BITMAP
07FFC0
1FFFC0
3FFFC0
7FFFC0
7C03C0
F803C0
F003C0
F003C0
F003C0
F003C0
F003C0
F003C0
F003C0
F803C0
7C03C0
7FFFC0
3FFFC0
1FFFC0
0FFFC0
0003C0
0003C0
0003C0
0003C0
0003C0
0003C0
0003C0
ENDCHAR
STARTCHAR r
ENCODING 114
SWIDTH 500 0
DWIDTH 22 0
BBX 19 19 0 0
BITMAP
F07C00
F0FF00
F1FF80
F3FF80
F787C0
FF03C0
FE01E0
FC01E0
F80000
F00000
F00000
F00000
F00000
F00000
F00000
F00000
F00000
F00000
F00000
ENDCHAR
STARTCHAR s
ENCODING 115
SWIDTH 500 0
DWIDTH 22 0
BBX 18 19 0 0
BITMAP
07FFC0
1FFFC0
3FFFC0
7FFFC0
7C0000
F00000
700000
7C0000
7FF800
3FFE00
1FFF80
07FF80
0007C0
0003C0
0007C0
FFFF80
FFFF80
FFFE00
FFF800
ENDCHAR
STARTCHAR t
ENCODING 116
SWIDTH 500 0
DWIDTH 22 0
BBX 15 26 3 0
BITMAP
0F00
0F00
0F00
0F00
0F00
0F00
0F00
FFF0
FFF0
FFF0
FFF0
0F00
0F00
0F00
0F00
0F00
0F00
0F00
0F00
0F00
0F80
07C0
07FE
03FE
01FE
007E
ENDCHAR
STARTCHAR u
ENCODING 117
SWIDTH 500 0
DWIDTH 22 0
BBX 18 18 0 0
BITMAP
F003C0
F003C0
F003C0
F003C0
F003C0
F003C0
F003C0
F003C0
F003C0
F007C0
F00FC0
F01FC0
F83FC0
FC7BC0
7FFBC0
3FF3C0
1FC3C0
0F83C0
ENDCHAR
STARTCHAR v
ENCODING 118
SWIDTH 500 0
DWIDTH 22 0
BBX 18 18 0 0
BITMAP
F001C0
F001C0
F001C0
F003C0
F803C0
780780
7C0780
3C0F00
1E0F00
1E1E00
0F1E00
0F3C00
07BC00
07F800
03F800
03F000
01F000
01E000
ENDCHAR
STARTCHAR w
ENCODING 119
SWIDTH 500 0
DWIDTH 22 0
BBX 18 18 0 0
BITMAP
F1E3C0
F1E3C0
F1E3C0
F1E3C0
F1E3C0
F1E3C0
F1E3C0
F1E3C0
F1E3C0
F1E3C0
F1E3C0
F1E3C0
F1E3C0
7BF780
7FFF80
7F3F00
3F3F00
0E1E00
ENDCHAR
STARTCHAR x
ENCODING 120
SWIDTH 500 0
DWIDTH 22 0
BBX 18 18 0 0
BITMAP
F001C0
F003C0
F807C0
7C0F80
3E1F00
1F3E00
0FFC00
07F800
03F000
03F000
07F800
0FFC00
1F3E00
3E1F00
7C0F80
F807C0
F003C0
F001C0
ENDCHAR
STARTCHAR y
ENCODING 121
SWIDTH 500 0
DWIDTH 22 0
BBX 18 25 0 -7
BITMAP
F003C0
F003C0
F003C0
F003C0
F003C0
F003C0
F003C0
F003C0
F003C0
F003C0
F003C0
F003C0
F803C0
FC03C0
7FFFC0
3FFFC0
1FFFC0
0FFFC0
0003C0
0003C0
000FC0
0FFF80
0FFF00
0FFE00
0FFC00
ENDCHAR
STARTCHAR z
ENCODING 122
SWIDTH 500 0
DWIDTH 22 0
BBX 18 19 0 0
BITMAP
FFFFC0
FFFFC0
FFFFC0
FFFF80
000F00
001E00
003E00
007C00
00F800
01F000
03E000
07C000
0F8000
1F0000
3E0000
7FFFC0
FFFFC0
FFFFC0
FFFFC0
ENDCHAR
ENDFONT
