STARTFONT 2.1
FONT -FontForge-ProFontWindows-Book-R-Normal--17-120-100-100-P-89-ISO10646-1
SIZE 12 100 100
FONTBOUNDINGBOX 9 17 0 -4
COMMENT "Generated by fontforge, http://fontforge.sourceforge.net"
STARTPROPERTIES 38
FOUNDRY "FontForge"
FAMILY_NAME "ProFontWindows"
WEIGHT_NAME "Book"
SLANT "R"
SETWIDTH_NAME "Normal"
ADD_STYLE_NAME ""
PIXEL_SIZE 17
POINT_SIZE 120
RESOLUTION_X 100
RESOLUTION_Y 100
SPACING "P"
AVERAGE_WIDTH 89
CHARSET_REGISTRY "ISO10646"
CHARSET_ENCODING "1"
FONTNAME_REGISTRY ""
CHARSET_COLLECTIONS "ASCII ISOLatin1Encoding ISO10646-1"
FONT_NAME "ProFontWindows"
FACE_NAME "ProFontWindows"
FONT_VERSION "ProFontWindows 2.3"
FONT_ASCENT 13
FONT_DESCENT 4
UNDERLINE_POSITION -2
UNDERLINE_THICKNESS 1
X_HEIGHT 6
CAP_HEIGHT 9
RAW_ASCENT 750
RAW_DESCENT 250
NORM_SPACE 9
RELATIVE_WEIGHT 40
RELATIVE_SETWIDTH 50
SUPERSCRIPT_X 0
SUPERSCRIPT_Y 3
SUPERSCRIPT_SIZE 4
SUBSCRIPT_X 0
SUBSCRIPT_Y 1
SUBSCRIPT_SIZE 4
AVG_LOWERCASE_WIDTH 89
AVG_UPPERCASE_WIDTH 89
ENDPROPERTIES
CHARS 283
STARTCHAR plus
ENCODING 43
SWIDTH 500 0
DWIDTH 9 0
BBX 7 8 0 1
BITMAP
10
10
10
10
FE
10
10
10
ENDCHAR
STARTCHAR comma
ENCODING 44
SWIDTH 500 0
DWIDTH 9 0
BBX 3 6 2 -3
BITMAP
E0
E0
60
60
C0
80
ENDCHAR
STARTCHAR hyphen
ENCODING 45
SWIDTH 500 0
DWIDTH 9 0
BBX 5 1 1 4
BITMAP
F8
ENDCHAR
STARTCHAR period
ENCODING 46
SWIDTH 500 0
DWIDTH 9 0
BBX 3 3 2 0
BITMAP
C0
E0
C0
ENDCHAR
STARTCHAR slash
ENCODING 47
SWIDTH 500 0
DWIDTH 9 0
BBX 8 14 0 -3
BITMAP
01
03
02
06
04
0C
08
18
30
30
60
60
C0
C0
ENDCHAR
STARTCHAR zero
ENCODING 48
SWIDTH 500 0
DWIDTH 9 0
BBX 8 10 0 0
BITMAP
7E
87
8F
9F
BF
FD
F9
F1
E1
7E
ENDCHAR
STARTCHAR one
ENCODING 49
SWIDTH 500 0
DWIDTH 9 0
BBX 7 10 0 0
BITMAP
10
10
70
10
10
10
10
10
10
FE
ENDCHAR
STARTCHAR two
ENCODING 50
SWIDTH 500 0
DWIDTH 8 0
BBX 6 10 1 0
BITMAP
78
84
04
04
0C
18
30
60
C0
FC
ENDCHAR
STARTCHAR three
ENCODING 51
SWIDTH 500 0
DWIDTH 9 0
BBX 8 10 0 0
BITMAP
7E
81
01
01
01
0E
01
01
81
7E
ENDCHAR
STARTCHAR four
ENCODING 52
SWIDTH 500 0
DWIDTH 9 0
BBX 6 10 0 0
BITMAP
08
18
38
68
C8
88
FC
08
08
1C
ENDCHAR
STARTCHAR five
ENCODING 53
SWIDTH 500 0
DWIDTH 9 0
BBX 8 10 0 0
BITMAP
FF
80
80
FC
03
01
01
01
83
7E
ENDCHAR
STARTCHAR six
ENCODING 54
SWIDTH 500 0
DWIDTH 9 0
BBX 8 10 0 0
BITMAP
3E
C0
80
FC
83
81
81
81
C3
7E
ENDCHAR
STARTCHAR seven
ENCODING 55
SWIDTH 500 0
DWIDTH 9 0
BBX 7 10 1 0
BITMAP
FE
02
02
06
0C
18
20
20
20
20
ENDCHAR
STARTCHAR eight
ENCODING 56
SWIDTH 500 0
DWIDTH 9 0
BBX 8 10 0 0
BITMAP
7E
81
81
81
81
7E
81
81
81
7E
ENDCHAR
STARTCHAR nine
ENCODING 57
SWIDTH 500 0
DWIDTH 9 0
BBX 8 10 0 0
BITMAP
7E
C3
81
81
81
C1
3F
01
03
7C
ENDCHAR
STARTCHAR colon
ENCODING 58
SWIDTH 500 0
DWIDTH 9 0
BBX 3 7 2 0
BITMAP
E0
E0
00
00
E0
E0
40
ENDCHAR
STARTCHAR semicolon
ENCODING 59
SWIDTH 500 0
DWIDTH 9 0
BBX 3 10 2 -3
BITMAP
E0
E0
00
00
E0
E0
60
60
C0
80
ENDCHAR
STARTCHAR less
ENCODING 60
SWIDTH 500 0
DWIDTH 9 0
BBX 6 10 1 0
BITMAP
04
0C
18
30
60
E0
30
18
0C
04
ENDCHAR
STARTCHAR equal
ENCODING 61
SWIDTH 500 0
DWIDTH 9 0
BBX 7 4 0 3
BITMAP
FE
00
00
FE
ENDCHAR
STARTCHAR greater
ENCODING 62
SWIDTH 500 0
DWIDTH 9 0
BBX 6 10 1 0
BITMAP
40
E0
30
18
0C
0C
18
30
60
C0
ENDCHAR
STARTCHAR question
ENCODING 63
SWIDTH 500 0
DWIDTH 9 0
BBX 6 10 1 0
BITMAP
78
84
04
04
08
10
30
00
00
20
ENDCHAR
STARTCHAR at
ENCODING 64
SWIDTH 500 0
DWIDTH 8 0
BBX 7 10 0 0
BITMAP
7C
C6
82
9E
92
92
9E
80
C0
7E
ENDCHAR
STARTCHAR A
ENCODING 65
SWIDTH 500 0
DWIDTH 9 0
BBX 8 10 0 0
BITMAP
18
3C
24
66
C3
81
FF
81
81
81
ENDCHAR
STARTCHAR B
ENCODING 66
SWIDTH 500 0
DWIDTH 9 0
BBX 8 10 0 0
BITMAP
FE
81
81
81
81
FE
81
81
81
FE
ENDCHAR
STARTCHAR C
ENCODING 67
SWIDTH 500 0
DWIDTH 9 0
BBX 8 10 0 0
BITMAP
7E
C1
80
80
80
80
80
80
C1
7E
ENDCHAR
STARTCHAR D
ENCODING 68
SWIDTH 500 0
DWIDTH 9 0
BBX 8 10 0 0
BITMAP
FE
83
81
81
81
81
81
81
83
FE
ENDCHAR
STARTCHAR E
ENCODING 69
SWIDTH 500 0
DWIDTH 9 0
BBX 7 10 0 0
BITMAP
FE
80
80
80
80
F8
80
80
80
FE
ENDCHAR
STARTCHAR F
ENCODING 70
SWIDTH 500 0
DWIDTH 9 0
BBX 7 10 0 0
BITMAP
FE
80
80
80
80
F8
80
80
80
80
ENDCHAR
STARTCHAR G
ENCODING 71
SWIDTH 500 0
DWIDTH 9 0
BBX 7 10 0 0
BITMAP
7C
82
80
80
80
8E
82
82
86
7C
ENDCHAR
STARTCHAR H
ENCODING 72
SWIDTH 500 0
DWIDTH 9 0
BBX 8 10 0 0
BITMAP
81
81
81
81
81
FF
81
81
81
81
ENDCHAR
STARTCHAR I
ENCODING 73
SWIDTH 500 0
DWIDTH 9 0
BBX 7 10 0 0
BITMAP
FE
10
10
10
10
10
10
10
10
FE
ENDCHAR
STARTCHAR J
ENCODING 74
SWIDTH 500 0
DWIDTH 9 0
BBX 8 10 0 0
BITMAP
01
01
01
01
01
01
81
81
83
7E
ENDCHAR
STARTCHAR K
ENCODING 75
SWIDTH 500 0
DWIDTH 9 0
BBX 7 10 0 0
BITMAP
86
8C
98
B0
E0
E0
B0
98
8C
86
ENDCHAR
STARTCHAR L
ENCODING 76
SWIDTH 500 0
DWIDTH 9 0
BBX 7 10 0 0
BITMAP
80
80
80
80
80
80
80
80
80
FE
ENDCHAR
STARTCHAR M
ENCODING 77
SWIDTH 500 0
DWIDTH 8 0
BBX 7 10 0 0
BITMAP
C6
EE
FE
9A
92
92
82
82
82
82
ENDCHAR
STARTCHAR N
ENCODING 78
SWIDTH 500 0
DWIDTH 9 0
BBX 8 10 0 0
BITMAP
C1
E1
F1
99
8F
87
81
81
81
81
ENDCHAR
STARTCHAR O
ENCODING 79
SWIDTH 500 0
DWIDTH 9 0
BBX 8 10 0 0
BITMAP
7E
C3
81
81
81
81
81
81
C3
7E
ENDCHAR
STARTCHAR P
ENCODING 80
SWIDTH 500 0
DWIDTH 9 0
BBX 8 10 0 0
BITMAP
FE
81
81
81
81
FE
80
80
80
80
ENDCHAR
STARTCHAR Q
ENCODING 81
SWIDTH 500 0
DWIDTH 9 0
BBX 8 12 0 -2
BITMAP
7E
81
81
81
81
81
81
9D
FF
7E
07
01
ENDCHAR
STARTCHAR R
ENCODING 82
SWIDTH 500 0
DWIDTH 9 0
BBX 8 10 0 0
BITMAP
FE
83
81
81
83
FE
81
81
81
81
ENDCHAR
STARTCHAR S
ENCODING 83
SWIDTH 500 0
DWIDTH 9 0
BBX 8 10 0 0
BITMAP
7E
C1
80
80
C0
3E
01
01
81
7E
ENDCHAR
STARTCHAR T
ENCODING 84
SWIDTH 500 0
DWIDTH 9 0
BBX 7 10 0 0
BITMAP
FE
10
10
10
10
10
10
10
10
10
ENDCHAR
STARTCHAR U
ENCODING 85
SWIDTH 500 0
DWIDTH 9 0
BBX 8 10 0 0
BITMAP
81
81
81
81
81
81
81
81
C3
7E
ENDCHAR
STARTCHAR V
ENCODING 86
SWIDTH 500 0
DWIDTH 9 0
BBX 8 10 0 0
BITMAP
81
81
81
C3
42
66
3C
18
18
10
ENDCHAR
STARTCHAR W
ENCODING 87
SWIDTH 500 0
DWIDTH 8 0
BBX 7 10 0 0
BITMAP
82
82
82
82
92
92
BA
FE
EE
C6
ENDCHAR
STARTCHAR X
ENCODING 88
SWIDTH 500 0
DWIDTH 9 0
BBX 8 10 0 0
BITMAP
81
81
C3
66
3C
3C
66
C3
81
81
ENDCHAR
STARTCHAR Y
ENCODING 89
SWIDTH 500 0
DWIDTH 8 0
BBX 7 10 0 0
BITMAP
82
82
82
82
44
38
10
10
10
10
ENDCHAR
STARTCHAR Z
ENCODING 90
SWIDTH 500 0
DWIDTH 9 0
BBX 7 10 0 0
BITMAP
FE
02
06
0C
18
30
60
C0
80
FE
ENDCHAR
STARTCHAR bracketleft
ENCODING 91
SWIDTH 500 0
DWIDTH 9 0
BBX 3 12 3 -1
BITMAP
E0
80
80
80
80
80
80
80
80
80
80
E0
ENDCHAR
STARTCHAR backslash
ENCODING 92
SWIDTH 500 0
DWIDTH 9 0
BBX 9 14 0 -3
BITMAP
4000
E000
6000
3000
3000
1800
1800
0C00
0400
0600
0200
0300
0100
0180
ENDCHAR
STARTCHAR bracketright
ENCODING 93
SWIDTH 500 0
DWIDTH 9 0
BBX 3 12 1 -1
BITMAP
E0
20
20
20
20
20
20
20
20
20
20
E0
ENDCHAR
STARTCHAR asciicircum
ENCODING 94
SWIDTH 500 0
DWIDTH 9 0
BBX 8 5 0 5
BITMAP
10
38
7C
E6
43
ENDCHAR
STARTCHAR underscore
ENCODING 95
SWIDTH 500 0
DWIDTH 9 0
BBX 9 1 0 -3
BITMAP
FF80
ENDCHAR
STARTCHAR grave
ENCODING 96
SWIDTH 500 0
DWIDTH 9 0
BBX 3 3 1 8
BITMAP
40
E0
20
ENDCHAR
STARTCHAR a
ENCODING 97
SWIDTH 500 0
DWIDTH 9 0
BBX 8 7 0 0
BITMAP
7F
C1
81
81
83
C5
79
ENDCHAR
STARTCHAR b
ENCODING 98
SWIDTH 500 0
DWIDTH 9 0
BBX 8 10 0 0
BITMAP
80
80
80
FC
83
81
81
81
83
FE
ENDCHAR
STARTCHAR c
ENCODING 99
SWIDTH 500 0
DWIDTH 9 0
BBX 7 7 0 0
BITMAP
7C
84
82
80
80
80
7E
ENDCHAR
STARTCHAR d
ENCODING 100
SWIDTH 500 0
DWIDTH 9 0
BBX 8 10 0 0
BITMAP
01
01
01
3F
C1
81
81
81
C1
7F
ENDCHAR
STARTCHAR e
ENCODING 101
SWIDTH 500 0
DWIDTH 9 0
BBX 7 7 0 0
BITMAP
78
84
86
FE
80
80
7E
ENDCHAR
STARTCHAR f
ENCODING 102
SWIDTH 500 0
DWIDTH 9 0
BBX 5 10 2 0
BITMAP
38
40
40
E0
40
40
40
40
40
40
ENDCHAR
STARTCHAR g
ENCODING 103
SWIDTH 500 0
DWIDTH 9 0
BBX 8 10 0 -3
BITMAP
7F
C1
81
81
81
C1
3F
01
03
7C
ENDCHAR
STARTCHAR h
ENCODING 104
SWIDTH 500 0
DWIDTH 9 0
BBX 8 10 0 0
BITMAP
80
80
80
FC
83
81
81
81
81
81
ENDCHAR
STARTCHAR i
ENCODING 105
SWIDTH 500 0
DWIDTH 9 0
BBX 5 9 1 0
BITMAP
20
00
E0
20
20
20
20
20
F8
ENDCHAR
STARTCHAR j
ENCODING 106
SWIDTH 500 0
DWIDTH 9 0
BBX 4 12 0 -3
BITMAP
10
00
70
10
10
10
10
10
10
10
F0
E0
ENDCHAR
STARTCHAR k
ENCODING 107
SWIDTH 500 0
DWIDTH 9 0
BBX 7 10 0 0
BITMAP
80
80
80
8E
98
B0
F8
CC
86
82
ENDCHAR
STARTCHAR l
ENCODING 108
SWIDTH 500 0
DWIDTH 9 0
BBX 4 10 1 0
BITMAP
E0
20
20
20
20
20
20
20
20
F0
ENDCHAR
STARTCHAR m
ENCODING 109
SWIDTH 500 0
DWIDTH 8 0
BBX 7 7 0 0
BITMAP
FC
96
92
92
92
92
92
ENDCHAR
STARTCHAR n
ENCODING 110
SWIDTH 500 0
DWIDTH 9 0
BBX 8 7 0 0
BITMAP
9E
A3
C1
81
81
81
81
ENDCHAR
STARTCHAR o
ENCODING 111
SWIDTH 500 0
DWIDTH 9 0
BBX 8 7 0 0
BITMAP
7E
C3
81
81
81
C3
7E
ENDCHAR
STARTCHAR p
ENCODING 112
SWIDTH 500 0
DWIDTH 9 0
BBX 8 10 0 -3
BITMAP
FE
83
81
81
81
83
FC
80
80
80
ENDCHAR
STARTCHAR q
ENCODING 113
SWIDTH 500 0
DWIDTH 9 0
BBX 8 10 0 -3
BITMAP
7F
C1
81
81
81
C1
3F
01
01
01
ENDCHAR
STARTCHAR r
ENCODING 114
SWIDTH 500 0
DWIDTH 9 0
BBX 7 7 0 0
BITMAP
9C
E4
C2
80
80
80
80
ENDCHAR
STARTCHAR s
ENCODING 115
SWIDTH 500 0
DWIDTH 9 0
BBX 7 7 0 0
BITMAP
7E
C0
C0
7C
06
06
FC
ENDCHAR
STARTCHAR t
ENCODING 116
SWIDTH 500 0
DWIDTH 9 0
BBX 5 10 2 0
BITMAP
40
40
40
E0
40
40
40
40
40
38
ENDCHAR
STARTCHAR u
ENCODING 117
SWIDTH 500 0
DWIDTH 9 0
BBX 8 7 0 0
BITMAP
81
81
81
81
83
C5
79
ENDCHAR
STARTCHAR v
ENCODING 118
SWIDTH 500 0
DWIDTH 9 0
BBX 7 7 0 0
BITMAP
82
C6
46
6C
2C
38
18
ENDCHAR
STARTCHAR w
ENCODING 119
SWIDTH 500 0
DWIDTH 8 0
BBX 7 7 0 0
BITMAP
92
92
92
92
92
92
6C
ENDCHAR
STARTCHAR x
ENCODING 120
SWIDTH 500 0
DWIDTH 9 0
BBX 7 7 0 0
BITMAP
82
46
2C
18
2C
46
82
ENDCHAR
STARTCHAR y
ENCODING 121
SWIDTH 500 0
DWIDTH 9 0
BBX 8 10 0 -3
BITMAP
81
81
81
81
81
C1
3F
01
03
7C
ENDCHAR
STARTCHAR z
ENCODING 122
SWIDTH 500 0
DWIDTH 9 0
BBX 7 7 0 0
BITMAP
FE
0E
1C
38
70
E0
FE
ENDCHAR
ENDFONT
